<mxfile host="65bd71144e">
    <diagram id="doGqDZVhiGjPMj_YGopV" name="Page-1">
        <mxGraphModel dx="1794" dy="1186" grid="0" gridSize="10" guides="1" tooltips="1" connect="1" arrows="1" fold="1" page="1" pageScale="1" pageWidth="1600" pageHeight="900" background="#ffffff" math="0" shadow="0">
            <root>
                <mxCell id="0"/>
                <mxCell id="1" parent="0"/>
                <mxCell id="64" value="" style="rounded=0;whiteSpace=wrap;html=1;labelBackgroundColor=none;fontSize=29;fontColor=#000000;fillColor=none;gradientColor=none;strokeColor=#000000;" vertex="1" parent="1">
                    <mxGeometry x="1" width="1598" height="899" as="geometry"/>
                </mxCell>
                <mxCell id="32" value="&lt;h3&gt;&lt;br&gt;&lt;/h3&gt;" style="rounded=0;whiteSpace=wrap;html=1;fillColor=#99CCFF;strokeColor=#6c8ebf;dashed=1;align=left;gradientColor=none;" parent="1" vertex="1">
                    <mxGeometry x="72" y="204" width="1418" height="490" as="geometry"/>
                </mxCell>
                <mxCell id="27" style="edgeStyle=none;html=1;entryX=0.5;entryY=1;entryDx=0;entryDy=0;fontSize=18;strokeColor=#000000;exitX=0.5;exitY=0;exitDx=0;exitDy=0;startArrow=classic;startFill=1;" parent="1" source="4" target="12" edge="1">
                    <mxGeometry relative="1" as="geometry">
                        <mxPoint x="774" y="760" as="sourcePoint"/>
                    </mxGeometry>
                </mxCell>
                <mxCell id="4" value="DEMS" style="rounded=1;whiteSpace=wrap;html=1;fillColor=#ffcc99;strokeColor=#36393d;fontSize=25;fontColor=#000000;" parent="1" vertex="1">
                    <mxGeometry x="72" y="723" width="960" height="90" as="geometry"/>
                </mxCell>
                <mxCell id="5" value="JUSTIN" style="rounded=1;whiteSpace=wrap;html=1;fillColor=#E6E6E6;strokeColor=#666666;fontSize=25;gradientColor=none;fontColor=#000000;" parent="1" vertex="1">
                    <mxGeometry x="72" y="94" width="1084" height="80" as="geometry"/>
                </mxCell>
                <mxCell id="8" value="&amp;nbsp; &amp;nbsp;JUSTIN&lt;br&gt;&amp;nbsp; &amp;nbsp;Utility&lt;br&gt;&amp;nbsp; &amp;nbsp;Adapter" style="rounded=1;whiteSpace=wrap;html=1;fillColor=#f5f5f5;fontColor=#333333;strokeColor=#000000;align=left;" parent="1" vertex="1">
                    <mxGeometry x="482" y="248" width="140" height="60" as="geometry"/>
                </mxCell>
                <mxCell id="9" value="&amp;nbsp; &amp;nbsp;Court Cases&lt;br&gt;&amp;nbsp; &amp;nbsp;(Kafka Topic)" style="strokeWidth=2;html=1;shape=mxgraph.flowchart.multi-document;whiteSpace=wrap;fillColor=#f5f5f5;fontColor=#333333;strokeColor=#000000;align=left;" parent="1" vertex="1">
                    <mxGeometry x="157" y="364" width="143" height="90" as="geometry"/>
                </mxCell>
                <mxCell id="10" value="" style="endArrow=classic;html=1;strokeColor=#000000;exitX=0.5;exitY=1;exitDx=0;exitDy=0;entryX=0.5;entryY=0;entryDx=0;entryDy=0;startArrow=classic;startFill=1;" parent="1" source="5" target="8" edge="1">
                    <mxGeometry width="50" height="50" relative="1" as="geometry">
                        <mxPoint x="382" y="274" as="sourcePoint"/>
                        <mxPoint x="402" y="284" as="targetPoint"/>
                    </mxGeometry>
                </mxCell>
                <mxCell id="11" value="" style="endArrow=classic;html=1;strokeColor=#000000;exitX=0.25;exitY=1;exitDx=0;exitDy=0;entryX=0.5;entryY=0;entryDx=0;entryDy=0;entryPerimeter=0;labelBackgroundColor=none;" parent="1" source="8" target="9" edge="1">
                    <mxGeometry width="50" height="50" relative="1" as="geometry">
                        <mxPoint x="612" y="384" as="sourcePoint"/>
                        <mxPoint x="662" y="334" as="targetPoint"/>
                    </mxGeometry>
                </mxCell>
                <mxCell id="59" value="Produce&lt;br&gt;Court Case&lt;br&gt;Events" style="edgeLabel;html=1;align=center;verticalAlign=middle;resizable=0;points=[];fontColor=#000000;labelBackgroundColor=none;" vertex="1" connectable="0" parent="11">
                    <mxGeometry x="-0.168" y="-2" relative="1" as="geometry">
                        <mxPoint x="-54" y="-21" as="offset"/>
                    </mxGeometry>
                </mxCell>
                <mxCell id="16" value="Get&lt;br&gt;Court Case&lt;br&gt;Details" style="edgeStyle=none;html=1;entryX=0.5;entryY=1;entryDx=0;entryDy=0;strokeColor=#000000;exitX=0.75;exitY=0;exitDx=0;exitDy=0;labelBackgroundColor=none;fontColor=#000000;" parent="1" source="12" target="15" edge="1">
                    <mxGeometry x="0.4853" y="-37" relative="1" as="geometry">
                        <mxPoint as="offset"/>
                    </mxGeometry>
                </mxCell>
                <mxCell id="21" style="edgeStyle=none;html=1;strokeColor=#000000;exitX=0.5;exitY=0.88;exitDx=0;exitDy=0;exitPerimeter=0;entryX=0;entryY=0.5;entryDx=0;entryDy=0;labelBackgroundColor=none;fontColor=#000000;" parent="1" source="9" target="12" edge="1">
                    <mxGeometry relative="1" as="geometry">
                        <mxPoint x="42" y="654" as="targetPoint"/>
                        <Array as="points">
                            <mxPoint x="229" y="624"/>
                        </Array>
                    </mxGeometry>
                </mxCell>
                <mxCell id="58" value="Consume&lt;br&gt;Court Case&lt;br&gt;Events" style="edgeLabel;html=1;align=center;verticalAlign=middle;resizable=0;points=[];fontColor=#000000;labelBackgroundColor=none;" vertex="1" connectable="0" parent="21">
                    <mxGeometry x="-0.3309" y="-3" relative="1" as="geometry">
                        <mxPoint x="-40" y="-62" as="offset"/>
                    </mxGeometry>
                </mxCell>
                <mxCell id="12" value="&amp;nbsp; &amp;nbsp;DEMS&lt;br&gt;&amp;nbsp; &amp;nbsp;Edge&lt;br&gt;&amp;nbsp; &amp;nbsp;Adapter" style="rounded=1;whiteSpace=wrap;html=1;fillColor=#f5f5f5;fontColor=#333333;strokeColor=#000000;align=left;" parent="1" vertex="1">
                    <mxGeometry x="482" y="594" width="140" height="60" as="geometry"/>
                </mxCell>
                <mxCell id="17" value="Get&lt;br&gt;Court Case&lt;br&gt;Details" style="edgeStyle=none;html=1;entryX=0.75;entryY=1;entryDx=0;entryDy=0;strokeColor=#000000;labelBackgroundColor=none;fontColor=#000000;" parent="1" source="15" target="8" edge="1">
                    <mxGeometry x="-0.4201" y="-40" relative="1" as="geometry">
                        <mxPoint as="offset"/>
                    </mxGeometry>
                </mxCell>
                <mxCell id="15" value="&amp;nbsp; &amp;nbsp;Lookup&lt;br&gt;&amp;nbsp; &amp;nbsp;Service" style="rounded=1;whiteSpace=wrap;html=1;absoluteArcSize=1;arcSize=14;strokeWidth=2;fillColor=#f5f5f5;strokeColor=#666666;fontColor=#333333;align=left;" parent="1" vertex="1">
                    <mxGeometry x="581" y="374" width="137.4" height="70" as="geometry"/>
                </mxCell>
                <mxCell id="22" value="" style="shape=image;verticalLabelPosition=bottom;verticalAlign=top;imageAspect=0;aspect=fixed;image=data:image/png,iVBORw0KGgoAAAANSUhEUgAAAQsAAAELCAIAAABBNzQFAAAAAXNSR0IArs4c6QAAAARnQU1BAACxjwv8YQUAAAAJcEhZcwAADsMAAA7DAcdvqGQAAChPSURBVHhe7d13WBXH3gfwlyIgohgMigpIscYIFqRZgiKWx4jRoIEUBZRoLBijRiVBLNeWq2hUYuxgzGOL2GkaTEQTsSWAijGxIMagNEFBKXLfQb6vj+81Gna2nJllP3/d4v5mODvfc3bO2Z35n//UeaWlpRcuXNi9e/fcuXP9/f3d3NxsbGwaNGhg8ISpqam1tbWrq+s777wTERGxc+fO9PT0kpISHKxRu7qbkJs3b27ZsoVEonXr1vr6+v8jhIODg5+f39q1a69fv45yGpWqcwl5/PhxQkLCqFGjLC0tMd5FsLCwCAgIOHjwYHl5ORrQqEsdSkhFRcX27dt79uyJ0S0pcm0WExNTVlaGxjRqUVcSEhcX5+npieEsGxcXl3379qFJjSqoPyHZ2dmBgYF6enoYxfIj113a/EQ1VJ6Q2NhYMqvGyFWQtbU1uaJDJzQ8U21CqqqqwsLCMGB1ZPr06ZWVleiQhk/qTEhxcbGfnx/GqU4NHTq0oKAA3dJwSIUJyc3N7dOnD0YoAzw8PG7fvo3OaXijtoSQeMj0fa4Y3bt3/+uvv9BFDVdUlZCSkhJvb2+MSsaQ3BYWFqKjGn6oKiHvvfcexiOT3n77bW3izh31JGThwoUYiQwLDw9HdzWcUElCkpOTDQ0NMQwZpq+vf/jwYXRawwM1JKSgoKBdu3YYg8yzt7e/c+cOuq5hnhoSMnXqVIw+TowbNw5d1zCP+4ScPn3a2NgYQ08iJiYmVlZWDk+Q/1C/fn38HxIhF4QpKSn4AzRs4z4hgwcPxrgTzdnZmXwcxcbGpqWl5eTk3HuCXBGlp6fv3bt3+vTpXbp0wT8VzcfHp6qqCn+DhmF8J+TYsWMYceK89dZbZAL9j093VFRUJCUljRw5EoeJExcXh7oahvGdkGHDhmG40ercuXNCQgLK1VpycnL37t1RgtaAAQNQTsMwjhOSkZFhZGSE4UZl7Nix+fn5KCdQcXHxxIkTUYiKgYHBmTNnUE7DKo4TMmvWLIw1Kp9//jkKibBkyRKUozJ58mQU0rCK14SUlJS0b98eA004ki4UEk3Mb/l2dnZFRUUopGESrwkhMwHqB2sDAgJQRSKBgYEoLRzFLEijJF4T8tlnn2GICeTg4HD37l1UkUhBQQH1B9q0adNQRcMkLhNSVVXl5eWFISbQt99+iyqS2rNnDxoQyMPD4/Hjx6iiYQ+XCcnJyaFbD87Nza2iogJVJEUd2saNG2dlZaGKhj1cJuT48eN0k5DNmzejhAx27tyJZgRKSkpCCQ17uEzIxo0bMbiEaNq0qeQzkGeR2Yi1tTUaE2L16tUooWEPlwkJDw/H4BJi+PDhOF42AQEBaEyITz75BMdr2MNlQoKDgzG4hFi8eDGOl83KlSvRmBCSf/uskRCXCfH19cXgEiI2NhbHy+bQoUNoTIiBAwfieA17uEwIxXJYZGZ/8uRJHC+b06dPUzwM3KtXLxyvYQ+XCSFDCoOr1oyMjM6dO4fjZZORkUHxuJW7u7v2kwizuExI7969Mbhqjby1K3AjbVpaGsUDj56entrTVMziMiH9+/fH4BIiOTkZx8smJSWF4ocactGI4zXs4TIhI0aMwOASIjo6GsfLZseOHWhMCF9fXxyvYQ+XCaF7dGn69Ok4Xjaff/45GhMiKCgIx2vYw2VC6J5b8vDwkPtyn27NeW0hRpZxmZBdu3ZhcAlB5tDp6ekoIYMrV66YmpqiMSFiYmJQQsMeLhOSlpZWr149jC8hPv30U5SQwbx589CMEPr6+qmpqSihYQ+XCXnw4EHr1q0xxISwsrKSabOb3NxcutsWbWxstE2qWMZlQgjqRatCQ0NRQlIzZ85EAwINGTIEJTRM4jUhUVFRGGICGRkZHT16FFUkkpKSQr1yaWRkJKpomMRrQjIzM+mmxYSDg4OE+52Tyzbqh9Tl/vJAIx6vCSH69euHgSacu7u7JE9TFRYWvvHGGygqnKenp3ZHFuM4TsimTZsw0Ki4uLhcvXoVtahkZWX16NED5aisWrUKtTSs4jgh+fn5LVu2xFijYmNjs3fvXpQT6PDhw/b29ihExdLSMicnB+V0rays7MaNG6dOnTp06FB0dDSZ5q1cuZIEeMOGDbt37z527NilS5fq5k6lHCeEoLvL478EBQWR04+KtfDbb7+NHTtWX18fx9OaOnUqKurI/fv3f/rpp2XLlo0cObJz585NmjR5yR9lZmbm6Ojo7e09Y8aM2NjY7OxsVFE7vhNCzhM5rziHIjRs2DA4ODghIeHevXso/Zzi4uKkpKSQkJBGjRrhMBHMzc3/+OMPlFYWmfmQz4QpU6a0b9+eet1K8gE4bNiwzZs3q36feL4TQkREROCkScHBwWH48OFz5sxZt27d9ifWr19PmvDz8yPvoPhHUiDvxPgDFFRUVESumjw9PdEJKVhbW4eGhqalpaEN1eE+IQUFBXS/r+sQGVUKz0BKSkrWrFnTtm1b9EBqpqamY8aMuXDhAtpTEe4TQnz33Xc4UZzYunUruq6Iffv2de3aFW3LqXHjxmFhYdRbsrBJDQkhxKy+rjBywYZOy498Uo0dOxYNK8XJySkxMRE94J9KEpKXl8fFlup2dnYy3Tr5PDIdl++y6uUMDAzCw8MrKyvRFZ6pJCFEamqqmZkZThGTjI2NyahFd2UWFRUl+SbXQvn6+ubm5qJD3FJPQohvv/1W/M8U8lm/fj06KjPqG40lR+Y/uvpSWyqqSghBty6oAhYuXIguymzSpElokg1t2rQR9IMsa9SWEOKLL77AyWHGnDlz0DmZhYaGokmWkJD8/vvv6CJvVJgQYs2aNWSyiPOja0uWLEG3ZDZ37lw0yR5nZ2dZt6aQjzoTQuzevZtunyoJmZubK7ZKw9atW9EqqwYPHlxeXo7u8kO1CSHOnz/v6uqK86O4Tp06nThxAl2RGflLGzZsiIYZFhYWhh7zQ80JIe7fv08uzZX/gmvs2LGK/bRcUlLi4uKChtmmp6cXHx+PfnNC5QmpcfToUQ8PD5wlmXXu3PngwYNoWBHUG2frRNu2bfla26VOJIQoKytbu3Zthw4dcKJkYGdnFxkZST610KQiyPWVzn8ZFEqB5WElVFcSUqOwsDAqKkrya5LXX3/93//+t04eGHzzzTfRCSlYWlq6u7sHBATMmDEjIiKCfDqNGzeuf//+0t49bWpqytH6FXUrITUqKioSExPJuW/VqhVOGpUWLVqMGjVq3759Dx8+RGllkWt6dEUc8ink5+e3ffv2Fz05WFRUlJKSQubZUkXF398fpZlXFxPy1L17944cOTJ79mwrKyuculogH0HTpk0jkw3d3nRUVVXl7e2NPokQGBhY++efyCu2evVqke8sRL169RTYEkwSdTohTw0YMACn7p/o6emdPn0ah+kUeVMX+R0dmZUdPnwY5YS4efMm+fBEFVohISEoxzYtIdV8fHxw3v4JSQgjC1EHBQWhT1TI7OLPP/9ELSorVqyg2Nb0KQsLi1u3bqEWw7SEVKv94nQkIT///DMO052cnJxXX30VfRJu6NChDx48QC0RYmJixIRkzZo1KMQwLSHVuEsIGZrokHA9e/YsLi5GIdFWrVqFusKRl539LU61hFTjLiH+/v7okEDNmzcXudLk84KDg1FdIDMzM/afHtESUo2vhBQUFFB/m7RlyxZUkU5ubi718pMKL2pBQUtINb4ScuLECdINdEiI3r17y7SQ9saNG9GGQOPGjUMJVmkJqcZXQsgEF70RaN++fSghtdLSUrqVNFxdXRmfimgJqcZXQsj7LnojRIcOHWT97X/BggVoSYhmzZoptvgLHS0h1fhKCN1P6XLfL/jLL78YGRmhsVozMDBgfKNTLSHVOEoI+Rx4/fXX0RshDh06hBLyePTokZOTExoTQr5rP0loCanGUULu3LlDsWtKw4YNFVhL4Z133kF7QmzYsAHHM0lLSDWOEnLt2rXGjRujN7XWunXrl2z8IJVZs2ahPSG++OILHM8kLSHVOEpIZmYmxSPpXbt2VWAVheXLl6M9IebNm4fjmaQlpBpHCbl48WKDBg3Qm1pzc3NTYEtRujtQFFtMjI6WkGocJeTy5csUnyGdO3cmM2mUkM3SpUvRnhALFizA8UzSElKNo4RkZWVZWFigN7XWqlWrvLw8lJDN1KlT0Z4QkZGROJ5JWkKqcZSQ/Px8ipuyTExMMjIyUEI2dA/NR0dH43gmaQmpNmjQIJyuf0ISotu9yCoqKrp06YLeCPHtt9+ihDyKioocHBzQmBBxcXEowaS6npDbt2//8MMPHTt2xOmqhbCwsB9//FGH90rQvVUHBQXheHkcO3aMvH2gsVozNjb+9ddfUYJJdTEhBQUF8fHxM2fO7Nu3b9OmTXGuBCIHent7kyLkLVDhJdKmT5+OTghhZWUl69ITdLsy2NjYML7AXB1KSGlpKRnNH374IfXDDC9CCo4dO/bQoUPKLCf3zTffoGGB5HvqNScnh24dcS8vL5RgVZ1ISFZW1qJFi+juGhKEXK3Nnz//2rVraFge6enp5OIETQrRtm1bMltAFUlRr4yqk33lBVF5Qi5fvvzxxx+LWfSAwiuvvDJx4sSLFy+iEzJwd3dHYwLNnj0bJaRDEku98vz+/ftRhVWqTQj53J81a5bC2XgWyQmZMIhccedvpaamUq99SD58jhw5gkJSINeuPXr0QHWBmjVrppOlXAVRYUKqqqo2btxoZ2eH86BTZCa6du1aqfZNfvz4cWRkpMgtf0mXMjMzUVE0Mfu1v/POO6jCMLUlhJz7wYMH4wwww8fHR/wPdr///rtUf1q7du3I9SfqikCuYFGRyq5du1CIYapKyJYtW3S+M9uLWFhYfP311+iocNu2bWvevDlqScHW1jY5ORnVhcvPz3/vvfdQi4q9vb2Ey3bJRyUJKSkpGT9+PF57hgUHBwsdFnfv3hW5AOmL1K9ff+7cuRTPjcTFxTk7O6MKLdI0yrFNDQnJzs7u06cPXnjm9ezZ8/r16+j6P0lMTHzttddwpDycnJzItK2wsBBNvtTJkyffffddit/O/wv5RM3KykJRtnGfEHJ93759e7zwnHB0dDx//jz+gBd4+PBhWFiYYntet27devLkyQcOHCDpJR/I6MR//lNeXk4+xH7++edly5Z5eXmJz0aNmTNnogHm8Z2Q1NRUioe2WdCsWbOUlBT8Gc85e/Ys9VeoIpmbm5NPrd69ew8YMMDb27tbt26Sv8KkIPtf8j7FcUJOnz4t7eRVYZaWln8bki+//LJRo0b4R2q0bt06/Kk84DUhFy5csLGxwUvOLSsrq19++QV/0pNVGoYNG4b/T6V8fHyk+nVIGVwm5NatW3LPXxVDJgA1uwfu2LHD2toa/6tKNWnSRJLfYZTEX0IePXrUt29fvOSq0KdPnwkTJuC/qJrcT3HJgb+ETJw4Ea+3hiscfX/1LM4Ssm3bNrzemv/P1NQ0MDCQYrE5ZQQEBCiwHJEceEoImchSPxKobs7OzseOHSMv0e7du8VsLCiTIUOGlJaW1pxE7vCUEPJC4yXXPIPMYZ79RZzM+E1MTPD/MWD48OGS7CqqK9wkhPrR09pr3rw5mTSPHz9+0aJF69atIy0S5D+Q//rRRx95e3u3aNEC/5QNdnZ2f3t77MGDBxn5sB0zZowCK9nJio+E5OfnS/5w+VNknJHZf3x8/F9//YX2XiAnJycxMTE0NJT6ASYJDRs27MaNG+jZc86ePdu5c2f8U10wMDBYuHAhesMzPhISERGBF15Srq6umzZtquVNe88qLi7eunWrDm8MWb16NbryYuRtZfTo0ThGWeTtjHyOoR+c4yAh2dnZTZo0wWsvEfIhEB0dXVZWhjaoVFRUbNu2TeH7Jnv37v3sz/D/iFwoKvy4ZWBg4K1bt9A8/zhIyOzZs/HaS2Ts2LESrgd3584dZX7vMzQ0DA8Pp/hSKCsra9KkSQpM393d3Q8cOIBW1YL1hJDxZ2VlhTMgWoMGDTZu3IjSkoqJiaFe76M2XnvtNTIFQmNUzp8/Ty66RD7j/iLOzs4bNmzg9yvdl2A9IStXrsRJEI1cqh09ehR1ZXD8+PFmzZqhMUmFhIRItXJ7enr6jBkzpPraw9jYeNCgQdu3b5d1l13dYjoh5eXl3bp1w9kQx9LS8sSJE6grm9OnT0v4iUdYW1vLcS/TvXv3vvvuO/KRQuZjFA9FWVhY9O/ff+nSpQqsJ69zTCeEvCtL8lBb/fr1k5KSUFRmP/zwg1SXWwMGDLh69SrqyqOoqOjkyZNr1qwhH1NeXl5t27YlbyXk5SJzHoMnjIyMzM3NbW1tyVuVn59fRETE/v37a/8UsQownRCRi8089dVXX6GiIjZt2oSGxSHzclRUyoMHD27evHnp0qVz586dOnUqNTU1LS3tjz/+INd4VVVV+Ed1DLsJIdM+Sb5I9ff3R0UFBQYGonkROnbsqOLre16wm5CffvpJ/CUWmRXo5Lv5O3fuiH8EUl9fn7wIqKjREXYTsnjxYowUEb788kuUU9z69evRCREWLVqEchodYTchdDstPYtcpOnwrtJHjx6J349h8ODBKKfREUYTUlRURLGf5X9ZuXIlyunI119/ja7QIi8C41s0qR6jCTl79my9evUwTKi8+uqrcuxMIAiZjYhcr8jQ0PDMmTMop9EFRhOyfft2jBFaAQEBqKVT4u+u5XH1AzVhNCH/+te/MEBoxcTEoJZO7dixAx2iFRERgVoaXWA0ISEhIRggVExMTCTcREaMq1evirxZUO5dnjUvx2hCRH6R1a5dO5HPfkilvLy8S5cu6BaVgQMHopZGF1hMSFVVlcjH90jAUIsBfn5+6BaV7t2787WMp8qwmJBHjx6J3MBl/PjxqMUAkXeXtW/f/tntCjQKYzEhDx48IJdJGCBUwsLCUIsBCxYsQLeotGrVimKbKI1UWExIcXGxg4MDBgiVefPmoRYDli1bhm5RadGihfajoQ4xmhBHR0cMECpqSkjLli21hOgQiwkhl90i73v/9NNPUYsBIpcysre3LyoqQi2N4lhMSFlZmchvSIODg1GLAR999BG6RaVjx46qXCGBFywmpKqq6o033sAAodKvXz/UYoDI33Y8PDw4XTVdHVhMCDF8+HAMECq2trb3799HLZ0Sf8Xo6+uLWhpdYDQhkyZNwgChYmhoePbsWdTSqfT0dCMjI3SLyrhx41BLowuMJmT58uUYILR0/nBIjbVr16JDtBYvXoxaGl1gNCH79+/HAKHVv39/1NIp8U9K7t27F7U0usBoQi5dumRqaooxQqV+/foXL15EOR25cuWKyBt7TUxMLly4gHIaXWA0IY8ePRK/FNCMGTNQTkfCw8PRFVodOnTQbsrSLUYTQrz77rsYJrQsLS11uEz/3bt3RT6CSzDypGRdxm5CvvrqKwwTEaZMmYJyips5cyY6IYLCq0VqnsduQsgswtjYGCOFFrmOT01NRUUF/fLLLyLnUQTpvM6nUhp2E1JZWenu7o7BIoKrq6vCd22UlZX16tULzYvQo0cP7dd0nWM3IYTIJyuemjBhAioq4pNPPkHD4tRms0JpkWzn5uZev379t99+u3TpUmZm5h9//HH79m1GblDQCaYTkpGRIdXeYsuWLUNRma1atQpNijZy5MicnBzUlQeJRHp6+tatW0mq33zzzS5durRq1crCwqJBgwbkla9fv36jRo2aN2/eoUMHLy+vwMBA8jJ+//33d+7cwfF1ANMJIQYMGIDxIo6ent7atWtRVDabN2/W19dHk1Jo3759XFwcqkuHXHYeOXJk6tSpTk5OJAZorNasra2HDx++bt068gmDiurFekJ27tyJ0yKFL774AnVlsHLlSkn2A/ovJHJhYWFSTaWuXr06f/588QsK13jllVf8/f1JhlU8X2I9IWRkdOzYESdECiEhIcXFxagukZKSkokTJ6IBefTs2fPcuXNoj8rly5cnTZpExjQqSsrT03PXrl2q3IWH9YQQUVFROA8S6datm4Rbfh4/flyS79z+UePGjdesWYNWhcjLyyOfQmR2gUKy8fb2Tk5ORqtqwUFC7t+/L3Lpk+cZGhqSDxORvzaQd2Xy0SFyBW6h/Pz8bty4gR7Uwp49e1577TUcLD8DA4PQ0NDc3Fw0zz8OEkJER0fjDEjK3Nyc5OTkyZMVFRVoqRYqKytPnTo1YcIEBd6V/5adnV1tbvgl7yyTJ0/GMcoiF8Y//vgj+sE5PhJCRrDIVRhfztXVNTw8PDExMTs7G00+59atW+TabN68eR4eHnLMyIUib9Uv+ZkiMzNT1lfsH5mYmOhwAzAJ8ZEQ4sSJEwpcz1haWjo5OQ0cOHDUqFEfPTF69OhBgwY5Ozs3bdoU/4gZLi4uf7tJPJkMWFtb4x/pFIkx70uqcpMQYtq0aXjhNf+nQYMGS5YswQv0xMGDB8mcHv83Az744INHjx6hcxziKSHFxcUi1/NVK19f399//528RIcPHyaZwf/KjICAAEEzPabwlBAiNTWV4jfgusDW1pZMpV599VX8d8aEhITgFPKGs4QQ4tdG0OjE/PnzcQq5wl9CCF19iSkTcqUufrtD9hkYGMTGxuIU8oPLhJCL2rfeegsvPOcGDBhQ823PmjVrzM3N8b+qVLNmza5fv15zEnnBZUKIwsLCPn364IXnlpub27M/P587d06SR69YNmTIEL5u3+I1IQQZW1yPJxcXl+cXmigtLQ0LC5P2FnrWbN26FX8tDzhOCJGXl9e3b1+88Fzx9PS8ffs2/oznxMXFSX4rWi2ZmJjY2to6Ozu7urp27dq1bdu2kt8ObGdnR04c/lTm8Z0Qori4eMSIEXjtOTF48OB/HCI5OTlkBo8D5Ne8efNRo0bFxMSkp6eTvj193uPBgwfXrl1LSEj47LPPSGDwr0WbO3duTX32cZ8QglzXfvrpp3jtmTd58uTa72S9efNmue92cXR0XLFixUs+0J4qLy8nUSHxxpEikD/qzz//RF22qSEhNbZs2aKrm21ryczMLCoqCt2ttczMTB8fH5SQlJ6e3rRp0ygeOt+9e3ebNm1QhRYvK3arJyHE+fPne/fujTPAGDc3t59++gkdFYh85syfP1+qRS1qWFpailkz+9atW76+vqhFhcxwyCUcyjFMVQkhyGBasGBBw4YNcR4YQEb27NmzxS+/e+zYsU6dOqGoOGQuLn5/lcrKyuDgYFSkwsWy9mpLSI1ff/11yJAhOA86NXDgQAkXfczPzx8/fjxK0yKfHlJtP0Qm9P7+/qgr3Pvvv49CDFNnQmrs379fhz+YkMuqnTt3oiuS2rFjh5WVFZoRSF9fn7wsKCSF4uJiFxcXVBeoRYsWd+/eRSFWqTkhRHl5ORmmXl5eOCeK6NGjxzfffCPrQxHUa0d8/PHHKCGdM2fOUC9SfPjwYVRhlcoT8tTRo0cDAwPJBQbOjAwsLCzee++9hIQENCmbzMxMuhFpZ2dHrtNQRVLUC7GSGRpKsKquJKTGn3/+GR0d7efnR32V8rymTZsOGzZs48aNN2/eRDMy2759O9oWaPny5SghtezsbLqf3r29vVGCVXUrIU+RqBw6dCgsLKxfv362traGhoY4Y7VgYGBgY2PTt2/fWbNmkWt65TfxoduZhHx+yroK8IcffoiWhGjVqlVhYSFKMKmOJuRZeXl506dPxxmrhQkTJuj2tqKhQ4eiK0LI/cXRkSNH0JIQJiYm6enpKMEkLSHVBC3YvnDhQhymC5WVlXT3R8l9Ry35KCAfCGhMCAVmbmJoCam2bNkynK5a0O1dd2SqTSbc6EqtGRsbp6WloYRs6G7ZiomJwfFM0hJSjaOE3Lx5s0mTJuhKrZGJkwIrhYaGhqI9IVasWIHjmaQlpBpHCbl8+TLFPTXOzs4KLFq1ZMkStCfEggULcDyTtIRU4yghFy9epFgRy9XVVYG1D+n235ozZw6OZ5KWkGocJSQzM9PMzAxdqbVu3bqVl5ejhGyWL1+O9oSYN28ejmeSlpBqHCXk2rVrFIuOtmnTpqioCCVkM3v2bLQnxNKlS3E8k7SEVOMoIXfu3GnRogW6UmuNGjVSYM/BgIAAtCfE+vXrcTyTtIRU4yghpaWldDvmxMfHo4Q8ysrKOnfujMaEYPwpES0h1ThKCEG3UNisWbNwvDzotvY2MDA4deoUSjBJS0g1vhISEhKCrgjRqVOn2q8gQYFMJ9CSEJaWlsrf2CaIlpBqfCXkyy+/RFcEku9hjEePHr3++utoRggXFxfGd5rWElKNr4QcP34cXRHIx8cHJaS2bds2tCHQ2LFjUYJVWkKq8ZWQvLw86k3Y5HgwuKioqH379mhAoM2bN6MKq7SEVOMrIYSfnx96I5Ctre1LdjOlM3HiRFQXyNTU9LfffkMVVmkJqcZdQjZt2oTeCNe/f38Jp+xieuLl5cX4JITQElKNu4TcunVLzILTo0aNkuQmlNjYWDHr3DF+V28NLSHVuEsI8f7776NDVMh1mshVHTZs2CAmHubm5llZWajFMC0h1QTdcsfInXbff/89OkSrS5cuP/74I8oJUVhYSD33eIp8jqEc27SEVFu5ciXOWy0w8jxDZWWl+EWKyYdAaGjo5cuXUfSflJaWbtmypWPHjjielqGhIeM/pT9VpxNSUFCQkJAwe/ZsQae8Xbt2M2fOjIuLk2ntqdrbt28f+iQOmdIEBwfHx8eTFwSl/7+HDx+mpaUtWrSIfOzgGHGGDRuG0syriwmpqKg4fPjwmDFjbGxscMaotGzZMjAw8MCBAwo8vve3Hj9+3K9fP/RGCuQvGjRo0OTJk8nnZGRk5NKlS8l7QUBAQKdOnQQtmPRyxsbGZ86cwd/AvLqVEPKuv2rVqm7duuFcScTJyYnMZCg24hDv559/rlevHvrBCTKHQe95UFcSQq4ToqKiZN0c0MHBYcWKFeJ3QRCKekVQnbCzs9PJWwm1OpGQpKQkV1dXnCKZde3a9dChQ2hYEUVFRXR3DerEnj170G9OqDwhxcXFkyZN0tPTw/lRSkhIyItmvXI4depU/fr10TbDpkyZgh7zQ80JIdNB6q0txCOzW+pt2Sh8/fXXaJhVffr0Ide66C4/VJuQnTt3Uqy8Ji1zc3Mld9efNm0aGmYPmQEy/qTUi6gzIatWrdLX18fJ0bUlS5agWzJ7/PixyI0FZWJjY6PAmqgyUWFC6Fb+k1VERAQ6J7PKysrRo0ejVTZYW1ufO3cO/eOQ2hISGRmJM8OYRYsWoYsyq6qqEn/TlFTat2+fkZGBnvFJVQnZtm2b8l9b1d6GDRvQUfktXbrUwMAADeuIt7e3YvtyyUc9CTl16hTFcp1KMjEx+eGHH9Bd+e3fv1/kbTViTJkyhcdvrp6nkoTk5ua2adMGJ4dh9vb2t2/fRqfld+PGjZEjR6JtpTg6OnL3s+BLqCQhH3zwAc4P8/z8/NBppZCLT7plGoWqV69eaGjoX3/9hYZVQQ0J2b17N04RJ5T8kaRGXl7ewoULW7ZsiR5IjWSDfFjx8siHINwnpKCggHys40RxgkwPZN2W9kVIo8uWLZP2Jq4mTZoEBQWlpKSgDdXhPiFz5szBuZKCg4PD22+/TWquW7du+xPr16+PiIgYMWJE69at8Y+kMGPGDPwBiistLT148OCoUaNsbW3RG+HMzMz69u27atWq69evo65K8Z2Q7OxsCwsLnDQRGjZsOGbMmMTExJdsslFcXHzkyJEPP/zQ3Nwch4lAiiiwXcHLkUuvhIQE8nYwcOBA8tZgamqKzv0dfX19KysrNze38ePHb9mypfYP7vKO74R89tlnOIG09PT0goODL126hIq1cOXKFZIT8b82TJ06FRUZcO/ePfIifP/992RaTz4ZFi9ePH/+fDJ1Wb58+aZNmw4cOHD27Nnbt2+zv7yV5DhOCHkLpNhr5lnkMmPfvn0oJ1BcXBx530UhKpaWljqZjWgE4TghGzduxFij0rVrV5HXOVlZWT169EA5KqtXr0YtDas4ToiYRQy6d+8uyft3YWHhG2+8gaLCkYDVwesWvvCaEHLR/PKZ5Us4Ojpeu3YNhUQjV+fUK58bGxunp6ejkIZJvCYkKioKo0wgIyOj5ORkVJHIiRMnqB+CjYyMRBUNk3hNyIgRIzDEBJLpUelZs2ahAYGGDBmCEhomcZmQBw8e0P2ObmVlJdNdQ7m5uXQ30pKjlFzzQSMUlwlJS0ujW0Zt5syZKCGDefPmoRkh9PX1U1NTUULDHi4TsmvXLowvIci0WNbn3a5cuUL35UFMTAxKaNjDZULonkT38PCoqqpCCXnQ7XQeHh6O4zXs4TIhdM9hT58+HcfL5vPPP0djQgQFBeF4DXu4TAjdF1nR0dE4XjY7d+5EY0L4+vrieA17uExI//79MbiEkPxnkOelpKRQLCVBrs1wvIY9XCaEYu8lQ0NDBfasSEtLo9jaz9PTU+4JkoYalwnp1asXBletGRkZKbCuWUZGBsWP6+7u7trdWcziMiEUXxmRi5+TJ0/ieNmcPn2aYq8mEngcr2EPlwkhU1sMLiFiY2NxvGwOHTqExoQYOHAgjtewh8uE0K3fvHjxYhwvG0F76j4VEBCA4zXs4TIh4eHhGFxCKLD/KhnraEyITz75BMdr2MNlQuieLrS0tJR1B72CggJra2s0JoT2pCHLuEzI8ePH6Vaw3rx5M0rIgO7nQiIpKQklNOzhMiE5OTlNmzbF+BLCzc2toqICVSRVVVVF9zhu48aNs7KyUEXDHi4TQoYj3T2CxLZt21BFUnv27EEDAnl4eGg/hrCMy4QQ1CtlOTg43L17F1UkQmYg1Du1K3A/pUYMXhOSnJxMNxUhJP92NTAwEKWFS0xMRBUNk3hNSElJCfUKI0RYWBgKibZw4UIUFc7e3v4l66BqWMBrQgjqxRNqSLL7pshdRUNDQ1FIwyqOE5KRkWFkZISxRmXMmDH5+fkoJxB5758wYQIKUTEwMFDgdmONSBwnhBg2bBiGGy1nZ+f4+HiUq7WjR4+6uLigBC3tdiwu8J2QY8eOYbiJM3To0MOHD5eVlaHuC5SXlyclJVEv1fVf4uLiUFfDML4TQgwePBgjTjQnJ6epU6fu2bMnLS0tJyfn3hPkP6Snp+/du3fatGmdO3fGPxXNx8dHe2qKC9wnhFzKGxsbY9xJxMTEpFmzZg5PWFlZUTw2+HKGhoYnTpzAH6BhG/cJIcgbP4YeJ8aNG4eua5inhoQUFBSI+W1EYfb29pL/qK+RjxoSQiQnJ9OtU6owfX19bYLOF5UkhFi8eDGGIcPmzJmD7mo4oZ6EEO+//z5GIpP8/PwqKyvRVw0nVJWQkpISHx8fjEfG9OrV6969e+iohh+qSgiRm5tLsZqW3FxdXWXat0QjN7UlhCAh6du3L8YmAzw9PbV48EuFCSHu378/cuRIjFCdGjp0aGFhIbql4ZA6E0JUVVXR7VUgoRkzZmhTc96pNiE19u7d6+DggAGrIBsbmx07dqATGp6pPCFEdnZ2UFCQvr4+Bq/83n333Rs3bqB5DefUn5AaCQkJPXr0wBCWjaur6/79+9GkRhXqSkIIMiUgVz4yfRfs5ua2devW8vJyNKZRizqUkBqPHz+Oj48fPXq0paUlRrcIFhYWAQEBBw4c0LKhVnUuIU/dvHkzOjqajO82bdoInaU4OjqOGDFi/fr1169fRzmNStXdhDz18OHDixcvfvfdd/PnzyeTbHd3dxsbGzMzM4MnGjRoQP4ruYjy9/ePiIjYtWtXenp6SUkJDtao23/+87+yC2TxWZu58AAAAABJRU5ErkJggg==;" parent="1" vertex="1">
                    <mxGeometry x="247" y="404" width="30" height="30" as="geometry"/>
                </mxCell>
                <mxCell id="39" style="edgeStyle=none;html=1;entryX=0;entryY=0.5;entryDx=0;entryDy=0;strokeColor=#000000;exitX=1;exitY=0.5;exitDx=0;exitDy=0;exitPerimeter=0;labelBackgroundColor=none;" parent="1" source="9" target="33" edge="1">
                    <mxGeometry relative="1" as="geometry">
                        <mxPoint x="27" y="484" as="sourcePoint"/>
                    </mxGeometry>
                </mxCell>
                <mxCell id="57" value="Process &lt;br&gt;Court Case &lt;br&gt;Events" style="edgeLabel;html=1;align=center;verticalAlign=middle;resizable=0;points=[];fontColor=#000000;labelBackgroundColor=none;" vertex="1" connectable="0" parent="39">
                    <mxGeometry x="-0.2158" y="-1" relative="1" as="geometry">
                        <mxPoint y="22" as="offset"/>
                    </mxGeometry>
                </mxCell>
                <mxCell id="40" style="edgeStyle=none;html=1;entryX=0;entryY=0.5;entryDx=0;entryDy=0;entryPerimeter=0;strokeColor=#000000;exitX=1;exitY=0.5;exitDx=0;exitDy=0;labelBackgroundColor=none;" parent="1" source="15" target="35" edge="1">
                    <mxGeometry relative="1" as="geometry"/>
                </mxCell>
                <mxCell id="60" value="Produce&lt;br&gt;Audit&lt;br&gt;Events" style="edgeLabel;html=1;align=center;verticalAlign=middle;resizable=0;points=[];fontColor=#000000;labelBackgroundColor=none;" vertex="1" connectable="0" parent="40">
                    <mxGeometry x="-0.563" y="-6" relative="1" as="geometry">
                        <mxPoint x="25" y="-41" as="offset"/>
                    </mxGeometry>
                </mxCell>
                <mxCell id="33" value="&amp;nbsp; &amp;nbsp;Notification&lt;br&gt;&amp;nbsp; &amp;nbsp;Service" style="rounded=1;whiteSpace=wrap;html=1;absoluteArcSize=1;arcSize=14;strokeWidth=2;fillColor=#f5f5f5;strokeColor=#666666;fontColor=#333333;align=left;" parent="1" vertex="1">
                    <mxGeometry x="399" y="374" width="140" height="70" as="geometry"/>
                </mxCell>
                <mxCell id="34" value="" style="shape=image;verticalLabelPosition=bottom;verticalAlign=top;imageAspect=0;aspect=fixed;image=data:image/png,iVBORw0KGgoAAAANSUhEUgAAANQAAADuCAMAAAB24dnhAAAAilBMVEX/nQD/////lgD/lwD/mwD/mQD/7tj/7t7/ngD/lAD/+/T/8+T/+O7/79z//fn///3/wnr/tVn/z5f/4b7/rUL/2Kz/y4//3rj/0p//r0j/5cj/1qf/6tL/wHT/6M3/9en/t1//pCH/qTT/wHX/xob/vGr/pin/slD/tlz/yIn/rDz/0qL/pSX/u2W+KjuXAAAMi0lEQVR4nO2d2XrCOAxGiS0zCWvYSqGlJZSlLeX9X2+SsNMskiwHOt/8N71qkkNsR5Ilq+b9B1W79wO40P9Qf0WVQLXqo21/uexvR/VWFfdzDtUdfERGa5Mq/huFg67rezqGaoegDdQuBEZD2HR7V6dQ9c0N0Ymr13Z5X4dQrVWQQXTgClYOZ5c7qL4xeUiJjO47u7UrqEGki5AS6Wjg6OZuoJoTlTvyLsagGrpZMVxAdUKNQNpjhQ0HD+AA6gUKJ9O1DGzln0Ac6i3CvqbDy9LRm/QzCEO9zzGT6XYMfgpPLVGo7pMmjLyzjPoSNZ0kocZ+6TKei1UbCT6IHFR9SB95Z4H+fhV7FCmoRoFNhMQKdlKWkxBUiU2Ek5jlJAI1LbeJcNK+iOUkAIWziXAC9S3glFhDdZZySHusD2vLyRZqRLGJcDLm+a5Qb2uaTYRTbDlN7wb1vrNdxnOxVM/GcrKAYtpEOBm95FtObCgLmwiJBWzLiQnVtrKJcAK9YFpOLKjGzD1SiqXmLMuJA/UsYRPhZPQTY2rRoaZE19ZS2h87h2puqhl5ZzEsJxqUtE2ExAo+aFOLBDWqVTaZrkW0nAhQr05sIpxA+wTLCQ1VFO6vBCvYoC0nLJRTmwiJpUPk8o6DGri2iXDCWk4YqLaga2un2HLChHPLoaqyiXAC9fluD7WtzibCCWE5lUBNf+63jOeq1HIqhGr2HmnknRVbTnUmVOdLPdjIOwuCWYHllA818h8WKZEx+eHcPKjXxQNOpmvlh3OzoVqrx5xM1wK1yXZKMqFEwv1VKLacOjioB7GJcDLmBQElGe6vQqDXvyynW6i+kzjyWfIXj6fWrlME1foWHnlgjFbGjxbfw8lkOFxEoJTOTC2zkfFf86Hakp8mMDoww9l28E/j/EN2G636YBQOjRIlA/2SBzWVG3qg9c9yXOCqtkczXwsO9WCZDfUqtUKANvNxuYPgNUefRoxLfWVBNWXGA5hgMkLvBTbGm0BoHKrzCDxBdXyJa4OOnonh7/cvX+Z1Bael/QTVE1gjIBhydte7o4XEyIfacUE6Qo2U/UXVgr2rOf0WwDKra6iG9cCOv+xWG7VTAbcgmF5BfdgOPot9v6NerM1oWF9CNQPLq6lMa5moxs52DKrxBdTK7jfSa6Hc+bfI7kFgcYZqWFl8EIQySLG6K7sxo+onqBcbKAN2mRw3GlutFyY8QU0srqM3wknYTZshCP4RqmFxFcGhd1S3ZzFw0vGXQE35F1G2uVGZWvItAbM9QD1x3xRoR9UafPsmtSoSqDlzSoGWy+W90Zi7CKbf3wQq4kGBcVjZxXZY9QGKN/pAFwbpbTVgjsCgs4fivWolXqJxQ8V8rKYFlHJV0XUSb7VI1nQuVJARGJXWkvOpsYDS8t/cDHG8cT6UmTAesTGmzsIuY11mQ0GNYe+9aB1QUy2b9AHIhgoYi/k4yQKCgGhW0RcLLhSrzuRnP5IC4v/OqdOKCQXfDKZTwCCgxTLI4UgmlObkwZ89AeLYpVoWPCj9xGDyBicoiJpHIeLt5HWdBbX3Lcl6O69joI7SG0SIukV7VSwopnn0nnkToxEz7Im0rnOggPPZTZQz4dVk+k+OjlO3S1orOFCK62985jwZaJWnyWHOkYJdDCgzZzJ5I7pxAMfBSXlVDKiA7ey+c0zuw6ea8oPQoeCTy8QMLh48HMKrokMpi0jLgBWI2+/O9PH/S4Y6xN+ZYsV3ABKHgBBuJUNpeoHMWVNeeMj0kn/Gb8uQoYzFAQvs+GS6P/2GHn9UKPNhwcTeooFN8v/opYIKxf7wsuNdqXTyDUaHxolQTFM2Ud1mAyydyegNXCKUWZY9e54aNauNtPQLvEZeggjFD8kOrXZy91BL5DVoUADcDXia7/BL+w8JdhONCLVhMtXtkmlAp/G4DjKrkwbFPlDhhz+hAIw6FhcNXUBxd9gIdts1jtGBv9ue3ALkok6E4jG1yExgtNb+Inx+u4pgICcVCYoV7fOIyTRJ3i0Mw9FbRpzpHTc1SVCGt8/RRq8SyQv6Xg6aufalg+GneRtSSNcQtB72SyYt7lI0KFayzituFATfL+WBzRD1qkhQASqceqsN4tc1eoWKfPTloVi+FOK7C+oTmUmMiwdQoCBiMHm70h+XkDSDcxRJUEMGU7P0RVESTHALKQmKY/mVT21KZL6FmiYkKEbEr1M6XkgB366DOUX35cutNUPZEO/Kf6dAUb++3VJ/V5MMf9zuB9XzXZXe90qlEXDqioqKhlKjSXpNSp8ofQZqbNQJVDycCD7VuPRFrWlMuNgfY9eDMLHEX5STObX/H2yUVnxGuVj9jtJD3MQq/VnJuw0dcYvirNv602yVRiboxiTO9eWm8SCS0cvTvzT5nPRXl1DxP+7K/JDvssHHCI3Kux7XKhuC5Ymi5qvwAll6lncSrwVB0UONywdKQD9i0YE7fyv9k2vhIrw5syMzuQi8/BIEs+zFfYw4iY2Tj+EiQvtbBvoZC0aIWKQ4GU7lbrQIVA107elmbuDO8OFU8yDzMKyh0kr53uj98L4a0xBQdSesKM5XNcPv8IRaRZvPXW/ygz49gxXtLf307SUDVUuPOzGUo044MURs0osYFFGGk4WLTW26GxTnbGNsIfydoHibQtiUlztBsfLa37D7XPeB4mWs4gy/2r2geBmr6LX1LlDQ4zDh0zrvAsVLRcNs3p2vXzUU70URisPuAcVLLUYvE3eB4iU4UQ4BuQMUb+lDGuipqocyxI2Tw4uiJM3cAYrV0QKbv5iqcihekRytSqRqKGZmMa1+r2ooXpHclPZ4FUMZ1neXWiJSMZRmZTdRjzqoFoq+zZGInFVcKRSzTIl8PmSlUCx/l3HyW5VQinX8H6M+qUIozi6H57UZ2d/VQfGyBVkHrlYGBYYzoboLTt1LZVABy5TgHSJ7hLI/rbXkPqwqkRWvlke191BWJVvl0qxispBZn5RsJidQ2CIynjTLMeQy1QJvD2V5tmmxNKsynTn2Du6N1aGFCLGYunN2bRzsDlC8qnaUWGOvseb/ymnpWnoQqDMoxVkj6jbtF9K4YnpkK7Iyjip6LnGikc1BtOB3j1BbJ6/KACcaO7P6au4r4VMoeokdQnrCOIXt1bJfxT6qvT+wmnziV6mAeuhYKtsuoIdc4z1UXdj8A71m7NhMrZv0XB0tLtKB4CTQEeM0jmbPumXmMWRwgGKcDph3YR18M5BaoUDLzGN1/7GxgmV9+0l+D1Fd+EvvoUT7ODPzrqGErFoo6h+Xp/pKpLEp+LctMOIBKEJl9JxYZjqeCPVqDU6fxXNbmamQrwgaQvRX9y0U65ZzccTjRQMg/tkyNwKj/HBa+ultjT8iJdaw6fK7eAEVU8m1ajLaLL4GufGW9jiMRJtrBZdbX5dQsQ8iadmm1f2bWX88bbcanXgSdzuNRns67s+GWranVmw6XwXqr6C8tnTjvfRYCa3iBduPIt8HnTQ/k+5+Fv9814vTNVSSq+zIDXHVpi5ZmYY335FbqAdqs4xURpeeX1B/rPkjBOHvZTYD6i+16VSZfdszof5IQ9WajrKtl2yoP9H61uTWPudBPXyTYtCz3LKyfKjHbietJgWpWwVQj9v4u6yfeSHUg7ZoL2qPjYHyvO2jLe8QrMoc0VIorzF7pDEIurjlPBLqoSynkslEgHoYy8moJ1SREg4qiTbdfWrhT1jCQsWWk5xfzELSC/SZnWio2HJa33F5J7UBJUDFllPtTmPQ6CWl4o8E5XVstyVYgqBHy5ihQcWW06ZqLMhzMOSgYsspqnRqGaBndNKhkjMUKptaoDK8dSdQlVlOsYPByudkQcWW07ACLB0xm+ExoTxv7NpyMqw2V3ZQji0nUCt+S10LKO9958pyAjW0aZdpA+V5b24sJ5yD4QoqtpxAfAwaXkWSIJTXEd5SiCcTq3JMFCq2nAQdY9BrgR7BAlCp5STDZHxWocGtRKCEthSM/rJo8XIhISivYe0Yg+qxCqwyJAXleXUryyn21lnHfGdKDsrKcjIg2R9YEsrrMi2n2MHg9gzJlChUbDnN6WMwZzvQQsJQseVEdIwZ3nqpxKE874ViORl2D5QCOYCKLSfsywL1wXcw8uUCCms5xQ4Gu+1iodxAed6g3HJie+ulcgWVnERbOLVKtwMt5A6qcEsBsR1oIYdQseW0yd7fN6rnZjId5BTK817nWl8njyXpjSubAARCjqHi9X3cgyTHz+xT/7S/G8j4FwVyDpWoOdiG881mvtxOpbyLQlUCVbX+h/or+k9C/QtwXMc4k74PYQAAAABJRU5ErkJggg==" parent="1" vertex="1">
                    <mxGeometry x="465.14" y="409" width="26.72" height="30" as="geometry"/>
                </mxCell>
                <mxCell id="35" value="&lt;div&gt;&lt;span&gt;&amp;nbsp; &amp;nbsp;Audits&lt;/span&gt;&lt;/div&gt;&lt;div&gt;&lt;span&gt;&amp;nbsp; &amp;nbsp;(Kafka Topic)&lt;/span&gt;&lt;/div&gt;" style="strokeWidth=2;html=1;shape=mxgraph.flowchart.multi-document;whiteSpace=wrap;fillColor=#f5f5f5;fontColor=#333333;strokeColor=#000000;align=left;" parent="1" vertex="1">
                    <mxGeometry x="802" y="359" width="140" height="100" as="geometry"/>
                </mxCell>
                <mxCell id="42" value="" style="shape=image;verticalLabelPosition=bottom;labelBackgroundColor=#ffffff;verticalAlign=top;aspect=fixed;imageAspect=0;image=data:image/png,iVBORw0KGgoAAAANSUhEUgAAAt8AAAJSCAYAAAAbJKnCAAAACXBIWXMAAC4jAAAuIwF4pT92AAAgAElEQVR4nO3db4zd9X0n+l85aZI63TDEpmlIkAcudcpWGxsZNeNKyCHsoygIe0eiz2JPIp+rrHZonDxaXYl/9+mFuLF0I80IGProLtJZHFGt9kEpZveqeKNGmK4qUpot9iUJNOBkAgaC6aRX38Nv3PGc+XP+/P5+v6+XZCU6h8Qz5xj77c/5/PmNDKBlOt3eVJZl+8JXvbIwe9r7B0BbCN9A43W6vRC0j2RZ9oXV0L3OcpZlZ7Ms+16WZadWFmbPDfwTACM6dvLMdJZl06v/q8X5GX/ZZ2LCN9BYnW7vaJZlf7JJ4N7KUpZlDwjhwKjywH0o/71net3/PPxF/1SWZY8L4oxL+AYaJw/d923wB9+oTuch3B+SwKaOnTwzlQfu1U/YhnEuD+J/ujg/4y/6DE34BhqjwNC9nhAODDh28kwI3HdlWXZ04MnRhLa3x8OnbovzM8teabYifAO1yocnj27yEW/RhHBI3LGTZ1ZnSMLvO1MlvBqhGv69xfmZpYFnSF4mfAN1yUP3N/LQXcYfgFsJ4fvxlYVZfzhCArbp4y6L/nA2JHwDlao5dK93Lq+EC+EQmTH7uMuiP5zLhG+gEp1ub3pNe0ndoXs9IRwiUWAfd1n0hydO+AZKlYfu+xr8B+Fa/RCe7wr3hyK0RAV93GXRH54g4RsoRctC93oheP9plmUnhHBoppr6uMuiPzwhwjdQqJaH7vWEcGiQhvVxl0V/eOSEb6AQnW7vC3kF6lCEr6gQDjVqQR93WfSHR0j4BiaSh+77Iq5Cred0PVSgxX3cZdEfHgnhGxhLgqF7PSEcChZZH3dZ9Ie3nPANjCQ/AR9zv+WohHCYQCJ93GXRH95CwjcwlDx036catan+H4BO18NwEu7jLov+8JYQvoEtCd0jO51XwoVwWEcfd2X0hzeY8A0MyE/AHxK6JyKEgz7uuukPbyDhG7gsD93faOgJ+LYKf+A97nQ9KdHH3Uj6wxtC+AaE7mqcyyvhQjjR0sfdGvrDayR8Q8KE7loI4URFH3fr6Q+vmPANCYrsBHxb9UN4+IPP1UzaRh93lPSHV0T4hoQI3Y3kdD2toI87KefWtKXoDy+Y8A0JELpbQQinkfRxJ+9s/nvTKf3hxRC+IWL5Cfg/yatVtIMQTu30cbOJ1baUUxs/zTCEb4hQHrrv89Fw6zldT2X0cTOC5TVrC8964UYjfENEhO5oCeGUYk0f910+IWNM+sNHJHxDBPIT8Iag4ieEU4g1fdyHtJVQIP3hQxC+ocXy0O0EfHr6H/c6Xc8o1vRxH/J7BhXQH74J4RtaSOgmdzqvhAvhbGhNH3cI3fs2+megZPrD1xG+oSXya5SHhG42IIRzmT5uGiz5/vBM+IbmcwKeEYTw/bjT9WnSx03LJNsfLnxDQwndTOBcXgkXwiOnj5tIJNUfLnxDwwjdFEgIj5A+biKWRH+48A0N4QQ8JeqH8PCHmquZ7XXs5BkXa0nJubwafn9s37PwDTUTuqmQ0/Utdezkmcf8HkGiQgV8LqZKuPANNRG6qZEQ3iKCN/R/z7ohlsFM4Rsqlp+A99ExTSCEN1y+weTJ1F8HCNucFudnbo/hhRC+oSJ56L7PCXgayun6hsn3dT9viwlcdvvi/Ezr7xlcNfAIUKgQujvd3jNZlj0jeNNgoa3h5U6391jeEkX9viF4wxUei+HlUPmGkuQn4I8I3LSUSniN8nWCz1s3CgOOL87PnBh4tEWEbyhYHrqdgCcW/Z27TtdXy5AlbKr1w5fCNxRE6CZyp/NKuBBesnyf9zNRf5MwmaXF+Zm5tr6GwjdMIL9GeUjoJiFCeMmOnTzzvMuVsK1b2rr7W/iGMTgBD/0Q/rjT9cU6dvLM0ViGyqBkrV09KHzDCIRuGHAur4QL4RPKVwu+7PcWGNrhxfmZU217uYRvGILQDdsSwid07OSZ+/MWNmA45/L2k1YNXwrfsAUn4GFk/RAetqS4mjm8fLXgy235eqFBHlicn7m/TW+I8A0bELphYk7Xj+DYyTNP5sPbwGiW8+p3a24SCN+whtANhRPCt2G1IEysVasHhW/IT8Dn/dwqT1AOIXwTx06eedmqUpjY7YvzM61YgSp8k7Q8dN/nBDxUZjm/mul0/QfBOwxyf3vgCWBUrVk9KHyTJKEbGmEp5RButSAUbm5xfqbxG5eEb5KSn4A/InRDoyQZwo+dPPPtfIUpUIzwydoNTV89KHyThDx0OwEPzbaUX82M/nT9sZNnwvn45weeACbV+NWDwjdRE7qhlU7nlfBoQ/ixk2ee8QkclOaGJq8eFL6JktANUYgyhB87eSZsVXpy4AmgKKcW52cON/XVFL6JhhPwEK0Qvv90ZWH2VAzfoNWCUInGrh4Uvmk9oRuScS6vhDd+m8Fmjp08c3/+qRxQrrOL8zO3NPE1Fr5pLaEbktXKEG61IFTu+OL8zImBR2smfNM6a07AH/KHGCStVSH82Mkzj2VZdnTgCaAsjVw9KHzTGmtCtz+8gLUaf7r+2MkzYbPJMwNPAGU7sTg/c7xJr7LwTeMJ3cCQGhvCrRaEWjVq9aDwTWPlJ+CPCN3AiBoVwo+dPBN+D3ts4AmgKqcX52dub8qrLXzTOHnovk+VCJhQCN6n6jxdnw9ZPm+1INSuMasHrxp4BGoSQnen23sm74sUvIFJTeWfnL3c6fYey1vYqvYNwRsaoTGfPql8U7tOt3coXxcocANlW6qqEn7s5JnpvOptKxM0wwOL8zP31/2VCN/Uxgl4oEYhhD9e5un6YyfPPJmvRAWaoRGrB4VvKid0Aw1yOq+EFxrCrRaExlpanJ+Zq/OLE76pjNANNFihIfzYyTOh3WTfwBNAE9yyOD9ztq6vQ/imVE7AAy0TwvefrizMnhr3y7ZaEBqv1tWDwjelELqBlhvrdH2+WvBlv+9B480tzs+M9O93UYRvCiV0A5EZKYQfO3nm2/nvgUCzncvbTyofvhS+KcSaE/CHhG4gQtuG8Hy14MsDTwBNVcvqQeGbiawJ3U7AAynY9HT9sZNnHAiDdlnOq9+VXsAVvhmL0A0k7ooQbrUgtFblqweFb0YSTsBnWXZE6Abo64fwr/6bTx+xRhVa6/bF+ZnSDm6t96GBR2ADeei+z0eqAFeY+oNdv32flwRaLQxK31LVN6DyzZaEboDNfbhzVXb3Zz/Z/0+g1SpbPSh8s6FOt3coXxcodANs4rbPXJP93jU7Nn4SaJPQQnZDFasHtZ1wBSfgAYbziY/+puAN8Vi9U1L66kGVb/qEboDRfOnGXdnvfuwjXjWIyw1lrx5U+U6c0A0wut0f/6jgDXEKw5eHy/zOVL4T5AQ8wGTu/uzvZr/94Y5XEeJU6upBle+ECN0Ak7vlkx8XvCFuj4X2k7K+Q5XvBAjdAMUIofvQTb9jtSDE7/ji/MyJMr5L4Ttia07AHxK6ASZntSAko7TVg9pOIrQmdDsBD1CQT33sI4I3pGMqz1LHi/6OVb4jInQDlMdqQUhS4asHVb4jkJ+APyJ0A5QjVLwFb0hSGL68vchvXOW7xfLQfZ8T8ADlCcOVYcjShhNI1uHF+ZlTRX3zKt8tJHQDVOcPdv224A1pC4d3CgvfKt8t0un2DuXrAoVugAqE0B0O6gDJe2Bxfub+Il4E4bsFnIAHqMcdu3f2T8kDySts9aC2kwYTugHqE1YLCt5AbipvP5mb9AVR+W4goRugfod+73eyT3z0N70TwFq3L87PnJ7kFVH5bggn4AGaIwxZCt7ABkJxdKLwrfJdM6EboFnCasG7P/vJ/n8CbGBucX5mafDh4QjfNRG6AZrp85+6ul/5BthEuHh5y7jDl9pOKrbmBPwhoRugWcJqQcGb7ez4SCe7ftfHLv9Tez798cv//cJb72UX3nyv/9/fWPPficp0XkAda/WgyndF1oRuJ+ABGupLN+5yRp4rhKAdwvVnP/3x7PpdO64I2sN65Y13slfeeDt76SdvZX/3kzcF8jgs59Xvc6N+NyrfJRO6AdohrBYUvOux8B8+P9HP+857K9nZl3+ePffiG/1wO6kQuPfd+Insj35/11hhe70Q2sOPP/r9a/vPhDD+Vy++nj33w9f7XzuttLp68PCoX7zKd0k63d6+vJ9b6AZogXDJ0hn5ekwavtf6T//9fPb0C68NPD6MnR//SHbnH376ckiuwl/98PXsqe//RDW8vUZePajyXbBOt/eFvNLtBDxAS9zyyY8L3pH449t29/uuz/7DL4b+hkLonrvjxkKq3KMKQT/8CH9heOr7P1YJb59Q/b5llK9a5bsgQjdAO1ktWL8iK99ZPvT4Hx8/O/D4eqG95M4//Ex2x97fHXiuDiF4Lz39v0b6iwONMNLqQeF7QkI3QLvd9plrst+7Zod3sUZFh+/goSdf3LL/e9+N12RH7/jf+gG8aUIVPLTP0Bph+PKGYVcPajsZkxPwAO0XrlgK3nEKLSQbhe8Qtu++bXelfd2jCpX4MKD5f/+Xl7ShtMPUKKsHfcY2ohC6O93ey1mWPSZ4A7TbzHVXewcj9dlP/6uBbywE2m8d/teNDt6rwl8ewtfaxMo8G7rv2MkzQ+VC4XtIQjdAXHZ//KNWC0Zs/fBkaDMJYTYE8LZY/cuCAN4ajw3zhQrfWwgn4Dvd3v1CN0BcwnDl5z/lyHDsVoP2H918bfbvv7SnlSE2fA/ha6cVvnDs5JltZwD1fG8ghO68d+dPnIAHiE84IW+1YPxC9TsE76ZsMxlX+D7CCkVDmK0QirU3bPWFqnyvsVrpzrLs5XyYUvAGiEwI3X+w82Pe1gQ0aY3gpML38dka9pAzsuljJ898Y6v/kfCdn4DvdHvfFroB4nfL73zcTu9ExNYrffTf3qj/ux3C8OWmWTL5333ySvfzeZvJpi8UAO33qY99xGpBWmvnv/pIdsfeT3kDm28qv3y5oWTDd17tfl6lGyAdt3xycP0ctMmdf/jp/jl8Gu/osZNn9m30RSYZvjvd3r682r3hiwJAfELF22pBYhACOK2wYfU7ufCdbzJ5RrUbIB0frBZ0UIc47LvhE3q/2yGsHjy0/itNsfL9pOANkJawWtCQJbEIwftAC6500jdQ/U5qz3en2wtDldsuPwcgHmG14C2/o9eb0Vx4673sldffyV55453snff+KfvxG+9c/t+HvdshAIf/rOti5r/d97vZ0y+8NvA4jRNWD96/OD9z/+oX9hupvEd5u8nLqt4Aablj987+KXmaa+E/fL4RX1sI2n/14uvZ2Zd/kV14872B5zcShh//6Pc/OORTdSvI//n//M/+10zjLYd578X5mXNZYpXvo4I3QFrCakHBm+289JM3s6e+/5Ps737y5jb/5KAQ0p/6/o+zp194tfKjPvtu/ITw3Q5T+Xa9uSyxnu8jA48AELXbPnONN5hNheD60JMvZv/Xky+OFbzXeue9lf7596Wn/2HgubLsu9Gv7xYJqwf7rc9JVL7DTm9rBQHSEireod8bNhIq3aFiXbTQtvJbH+5kf3zb7tJf99BvHlpdQvCnFUIh+HQqlW/BGyAxdnqzkTBIGXqlywjeq8Ig5Nl/+MXA42W4ftfHvM/t0V87mEr4PjjwCABR2/lbv+kN5gqht7uqIcX/9P+eH3isDGHjCq0xdezkmalUwrf1ggCQsL/64ev93u6qWjTCIGb4OctW16pDxpZM+NZ2ApCY91b+2VtOX2gBWfqL6gYhV4W+8rKFVYe0R1g3GH347nR7qt4ACfr5r973ttNX1zq+UP0u++dW+W6V/p7vFCrfwjdAgn7+7iVvO7V7acIVhkTlbJZI+DZsCZCgCyrfNEAVVffPGrpsixeyRMK3fm+ABF28ZPcx9Rv2TD1JiL/y3en29jkpD5Cu194WfKjXK2+87R1gVRI936reAAl7S/Wbmrk+yarF+Zkker71ewMk7OL7gg/QCKdXv4jYw7dNJwAJe+2ithOgEc6tfhHRhu9Otxd6vacHngAgGTaeAA1xfvXLiLnyreoNkLhLK7/u/wCoWRJtJ/q9AXDpEmiC+NtObDoBILjwrvAN1Gp5cX4mifCt7QQAlW+gbmfX/vxRhu9Otyd4A9Dn0iVQs/jDt5YTAFa96solUK/za3/2WMO3YUsALlP9BmqUROVb2wkAl9n3DdRlcX7m9NqfOrrw3en2wmGdqYEnAEiWoUugJufW/7QxVr5VvQG4ws/fveQFAeqQRPjeO/AIAEl7S883UI9n1/+sKt8ARE/bCVCTs+t/2qjCd6fbm7JmEICNvGblIFC96NtOBG8ANqT1BKja4vxM3JVvLScAbObi+8I3UKmB4J1FGL4d1wFgQ69d1HYCVCqJ8K3yDcCGHNoBKnZ+o58umvDd6fb0ewOwqUsrv+7/AKjI6Y1+mpgq36reAGzJykGgQgObTrLIwrfjOgBs6cK7wjdQieXF+Znow7fKNwBbUvkGKrLhsGUWS/judHvTWZZNDzwBAGtctOsbqEbc4dtxHQCG8aorl0A1Ntx0kkUUvu33BmAoqt9ABaKvfOv3BmAo9n0DZVucn9lwzWCm7QSA1Bi6BEq24ZaTVa0P351uT9UbgKH9/N1LXiygTHGHby0nAIziLT3fQLme3er/PYbw7bgOAEPTdgKUbNNhy0zlG4AUvWblIFCeeNtOOt1eGLScGngCALag9QQoy+L8TNSVb1tOABjZxfeFb6AUWwbvLILw7bgOACN77aK2E6AU0YdvlW8ARubQDlCSTc/Kr2pt+O50e1PCNwDjuLTy6/4PgIJtetlyVZsr37acADA2KweBEmy56SRrefhW9QZgbBfeFb6BQi0vzs9EHb4NWwIwNpVvoGDbDltm2k4ASNVFu76BYsUbvjvdnuANwERedeUSKNa2m06yFle+9XsDMDHVb6BAUbed6PcGYGL2fQNFWZyf2XbNYKbyDUDKDF0CBdl2y8mq1oXvTrc3nWXZ9MATADCin797yUsGFCHe8G3LCQBFeUvPN1CMZ4f9f2lj+N478AgAjEHbCVCQoYYtM5VvAFL3mpWDwOTibDvpdHtThi0BKJLWE2BSi/Mz0Va+BW8ACnXxfeEbmMjQwTtrYfjWcgJAoV67qO0EmEjU4dtxHQAK5dAOMKGhzsqv0nYCQNIurfy6/wNgTENdtlzVmvDd6fZC8J4aeAIAJmTlIDCBoTedZC2rfOv3BqAUF94VvoGxLC/Oz0Qbvh3XAaAUKt/AmEYatgw+NPBIc6l8A1CKi3Z91+qp7/+k1J/+pZ+8OfBYlcr+/t54y8aeGsUZvvPjOtMDTwBAAV515bJWT33/x74/2mqkTSdZi9pOVL0BKJXqNzCGkSvfbQnf9nsDUCr7voFRLc7PjLRmMGtR+LbfG4BSGboERjTSlpNV2k4AIITvdy95GYBRxBm+O92e4A1A6d7S8w2M5tlxXq82VL6FbwBKp+0EGNHIw5ZZS8K34zoAVOI1KweB4UXb863yDUAltJ4Aw1qcn4mv8t3p9sJhnamBJwCgBBffF76BoYwVvLMWVL5VvQGozGsXtZ0AQ4k2fDuuA0BlHNoBhjTyWflVTQ/fjusAUJlLK7/u/wDYxsiXLVc1Nnx3ur0p4RuAqlk5CAxhrE0nWcMr3/q9AajchXeFb2BLy4vzM1GGb1VvACqn8g1sY+xhy6zh4duwJQCVu2jXN7C1aMO3thMAKveqK5fA1sbedBJ8aOCRBuh0e1pOiNbBPddmT3/rtmi+vQ/97/954LFU3Xvnzdm9X745ye9++Z33s5v+j//a/88YhOr3b3+4E8X3AhQuysq3qjfQKnuvvzrZ4B3c8fB/iyZ4Z/Z9A1tYnJ8Ze81g1uDwrd8baI2pHb+Z/eevH0j2DfvmE3+TvfDKLwcebzNDl8Amxt5ysqqp4VvbCdAaoeK9e+eOJN+wP3vufPadp3808Hjb/fzdS9F9T0Ah4gvfnW5vOsuy6YEnABoo9PDfc8dNSb41ododqt4xesvGE2Bjz2746AiaWPlW9QZaIbSbPHp0f5JvVujv/urjfx1Vn/da2k6ATUw0bJk1NHzr9wZa4eG7P5dsu8nXHv9BdH3e671m5SAwKMqeb5tOgMa7a9912VcO7E7yjQo93t87+9OBx2Oj9QRYb3F+JsrKt7YToNFCu8kjR9JsN3n2pTei7fNe7+L7wjdwhYmDd9a08N3p9lS9gcYLwTsE8NSE/u7Z7z6XzHf92kVtJ8AV4gvfWk6ApgvtJuFHimI7pLMdh3aAdSY6K7+qaeHbsCXQWCm3m8R4SGc7l1Z+3f8BkJvosuWqpoVv/d5AY/W+fiDJdpNYD+kM49W3HdsBLour7aTT7YXgPTXwBEADhEM6B/fsSu6tiPmQzjD+vzffbf4XCVTh9OL8zHIRP0+TKt+q3kAjTe/c0T8hn5rYD+kM4+9/8U520cpBIMseKOo1aFL41u8NNNIjR29Nst0khUM6w/iL8xf0fkPaTizOzxTS7501LHzbdAI0TqrtJqkc0hlGODX/X/7hDQEc0hSC9/Eiv/NGhO9Otxd6vacHngCo0d7rr+6fkE9NSod0hhUC+Kkf/az/n0Ay5ooO3lmDKt+q3kDjPHrk1uTelNQO6Ywi9H6HCvhrbzu+A5ELg5W3LM7PLJXxbTYlfBu2BBrl3jtv7le+U5PaIZ1RhdaTEMDDICYQpbN58C5kreBGmhK+DVsCjRFCd4rbTVI8pDOu//7jX/R/AFE5lWXZ7YvzM+fK/KY+NPBIPbSdAI2RYrtJyod0xrW6hvCO3Z/IPtxp2s06YESFD1ZupvbfLTrdnuANNEYYsEyt3ST1QzqTePXt9/ptKAYxodVKGazcTBP+qq7fG2iEg3uu7a8WTIlDOpNbXUVoEBNaZzlvMyllsHIzTQjf+r2B2oUjOo8e3Z/cG+GQTjEMYkLrnM2Dd2HHc4bVhPCt7QSoXRiw3L1zR1JvhEM6xQtDmP/jVX+ZgYY7nQfv0jaabKXWgctOtxcO60wNPAFQoRTbTRzSKc/fvnExu3jpn7LbPnONQUxonqXF+Zm5Or+qun9XUPUGahXaTXpfn0nqTXBIp3zn3/xVvw0lbEMBGmOu7uCdNSB87x14BKBCjxzZ3w/gKXFIpxpO0kNj1DJYuRmVbyBZd+27rv8jJQ7pVCsMYp76+58ZxIT6nKtrsHIztYXvTrc3Zc0gUJdQ7Q5V75SE4UqHdOphEBNqUfqp+HHUOXApeAO1Sa3dJFS7w1pB6hMGMUMl/POfutogJpSv9sHKzdT5b7+WE6AWYbNJSu0mDuk0R2g/CYOYIYQDpTne1OCd1Ry+HdcBKje9c0d/p3dKvqXPu1HCAOYTf/ePBjGheGGw8vDi/MyJJr+2Kt9AUh45emtS7Sahx/vx584PPE69XMSEwq1uNDnV9Je2lvDd6fb0ewOVC+0mB/fsSuaFD9Vuh3SaKwTwMIj5/M/eSv2lgEmFgcobmjZYuZm6Kt+q3kClUms3Cf3dYZ83zff8P77ZD+HAWJbyivdyW16+uradOK4DVKr39QNJtZvMfveMAcsWCe0nF959P/vSjbtsQoHhPbA4P3N/214vlW8gevfeeXO29/qrk3mjQ6vJsy+9PvA4zeYiJgxtOT8V37rgndURvjvd3nT4BHjgCYAShNCdUruJQzrtdvHSSn8Q8/ybv0r9pYDNNOpU/DjqqHwbtgQq8+iRW5N5sR3SiUMYxHz6/IX+UR7gCq0arNxMHeHbfm+gEim1mzikE59wjt4gJlx2qm2DlZupY+BS5Rso3cE91ybVbuKQTpwMYkLficX5meOxvBR1/Jts2BIoVdhq8ujR/cm8yA7pxC0MYIY+cIOYJGoupuCdVR2+O92e4A2ULlS8d+/ckcQL7ZBOGlYD+Gtvv5f6S0E6QnvJLW0erNxM1ZVv4RsoVWg3CZcsU+CQTlqcpCchZ/Pg3erBys1UHb4d1wFKk1q7iUM6aQpDmAYxidjqYOW5WL/FqgcuVb6B0jx89+eSaTdxSCdtofoddoLfsfsTBjGJydLi/Mxc7O9oZf/Gdrq9sOVkauAJgALcte+67CsHdifxUjqkQ/Dq2+8ZxCQmcykE76zithMrBoFShHaTR46k0W7ikA5r2YRCBFp/sXJUVYZvx3WAUoTgHQJ47BzSYSNhEPPU3//MICZtdDYP3qdTevdUvoFWC+0m4UcKHNJhK2EIM1zFhJY4nQfvKDeabKWSgctOtzclfANFm965I5l2E4d0GMbfvnExu3jpn7LbPnONQUyaLInBys1U9W+mLSdA4R45emsS7SYO6TCK82/+qt8HHrahQAMdTzl4ZxWGb1VvoFDhkM7BPbuif1Ed0mEcYQDz1I9+ZhCTJgmDlYcX52dOpP6uVBW+DVsChQntJuGEfAoc0mFcLmLSIOfy/u5wQCd52k6A1kml3cQhHSYVAngYxHz+Z295LalL1Kfix1H6wGWn2xO8gcKk0m7ikA5Fev4f3+wPYn7+U1cbxKRKSQ9WbqaKfwP1ewOF2Hv91f0T8rFzSIcyhPaT0IYSquFQgeQHKzdTRfjW7w0U4tEjt0b/QjqkQ5nCAOYTf/ePBjEp03J+Kj75wcrNqHwDrXDvnTf3K9+xc0iHshnEpETJnYofR6nhu9PtTYfFBANPAIwghO4Utps4pENVVgcxw1EeKEgYqLzBYOX2yq58G7YEJhK2mqTQbuKQDnUI5+hDCIcJLeUV72Uv5PbK3nayd+ARgBGEinfs7SYO6VCn0H5y4d33sy/duMsmFMbxwOL8zP1eueGpfAONdXDPtf3VgrFzSIe6uYjJmOYE79GVHb4NWwJj6bebHN0f/Yv34J+/6JAOjXDx0kp/EPP8m7/yhrCd5fxwjsHKMZQWvh3XASYR2k1279wR9WsYDuk8+NSLA49DXcIg5tPnLxjEZCsuVk6ozMq38A2MJYV2k/MX3nFIh8YyiMkmTuWDlec2fpphlDlw6bgOMLLQbtL7+s1wDGIAABoDSURBVEzUL1zo7/53331OnzeNFgYxQyvKHbs/YRCT4MTi/Mxxr8Tkyvy3Sb83MLJHjuzvB/CYOaRDW7z69nv9PnCDmMmbE7yLU0r47nR7IXhPDTwBsIW79l3X/xGzP3vuvEM6tEoI3iGAv/b2e9649BisLEFZlW/93sBIQrU7VL1jFqrdX13S5037OEmfpLN5f7fByoKVFb4d1wFGEnu7Sejvnv3ucwOPQ5uEIUyDmEk4LXiXp6yBS5VvYGhhs0ns7SbhkM65C6qGtF+ofodK+G2fucYgZpyWFudn5lJ/EcpU+L81nW4v9HpPDzwBsIHpnTv6O71j5pAOsQmHeEIbStiGQlTmBO/ylfFXVlVvYGiPHL016nYTh3SIlZP0UVnO20wMVlagjPBtvzcwlCMHdmcH9+yK9sVySIfYhfaTU3//M4OY7bY6WHk69ReiKmX0fNvvDWwrVLsfuvtz0b5QDumQkjCEGSrgn//U1d73dlkN3supvxBVKiN8azsBthX7dhOHdEjN375xMbt46Z8MYraHwcqaFPpvR6fbE7yBbR3cc23U200c0iFVYRAz9IFrQ2m0UO0+LHjXp+jKt/ANbClUux89Gu8xHYd0SF3YgBLaUP7Hq7/Mdn40nk+3fn/nx+ZuuPq3zg080S7nFudn2v49tF7R4dtxHWBLYa3g7p07tvpHWsshHfgXYRjz1YhO0ofv5S8WZg0lMrGim7JUvoFN7b3+6v5BnVg5pANRs82NQhQWvjvdXjisMzXwBEDu0SO3RvtSOKQD0bPNjUIUWflW9QY2de+dN/cr3zFySAeSsC+/4g0TKTJ8+zgG2FA4IX/PF+NsN3FIB5Ki0MjEigzfPo4BNhTrCXmHdCA5sg4TKyR85x/D+AUJDIj5hLxDOpAcn/IzsaIq34I3MCDmE/IO6UCStJ0wsaLCt1+MwICH7/5clO0mDulAujrdnoIjEykqfPsYBrhCOCH/lQO7o3tRHNKB5Ck4MhGVb6AUsZ6Qd0gHkqfgyEQmDt8+fgHWCzu9Yzwh75AOYM6NSRVR+Vb1Bi4LO73v/fLN0b0gDukAuen8qjeMpYjw7eMX4LKw0zs2DukA6yg8MrYiwrePX4C+u/ZdF91Ob4d0gA3sHXwIhjNR+M4/dvHRC9BfKfhwhDu9HdIBNqDyzdgmrXyregN999xxU5RDlsvvqngDA+QfxjZp+NbvDUQ7ZJlFfCgImEyn21P9ZiyThm+/8IAohyxX7Y74LxbARGQgxqLtBJhIqAzHNmS5Xmip2Xv91QOPA0nz6T9jGTt8+7gFyPJgmoKH77bcALiCAiRjmaTyLXwDyQjV/SMHdnvDgVVTrnwzjknCt49bgKQ8ZPgSuJLwzcgmCd9+wQFJCcHb8CWwhkIkIxsrfOcfs0wNPAEQudDjfnDPtd5mINOCyzjGrXyregPJivGSJzCW6U63pxjJSMYN3z5mAZIV1g6msuUF2JbqNyMZN3z7hQYkLfR+G74EFCQZ1cjhO/94ZXrgCYCEhOCt/QTQisuoxql8q3oDZFn2lQO7DV8CchEjGSd8+xseQE71G3D1m1GME771NgHkwvDlvXfa/Q2JU5hkaNpOACZ0zxdvyqZ37vAyQroUJhnaSOHbxyoAg8Lw5UPaTyBl8hFDG7Xy7WMVgA3cte86w5eQrqlOt2cTHEMZNXz7WAVgE48e3b/xE0AKVL8Zyqjh2y8sgE3s3rnD8CWkS4GSoQwdvvOPU6YGngDgMsOXkCytuQxllMq3qjfANsLw5SNHb936HwJitC+/Ag5bGiV87x14BIABB/fs6g9gAslR/WZbKt8AJQiXL0MVHEiKrMS2hgrf+cco/jYHMKQwfHnPHTd5uSAthi7Z1rCVb8EbYET3fvlmw5eQFpVvtjVs+PaLCWAMhi8hLZ1uT8GSLQ0bvn2MAjAGw5eQHAVLtqTyDVCyR47sN3wJ6bAdji1tG759fAIwmRC8Q/83kAQFS7Y0TOXbLyKACYXNJ3uvv9rLCPGbzq+Cw4aGCd8+PgEqsfzO+1G/0A/f7bdTSISuATal8g00wp89dz674+H/FvWbEYYvjxzYPfA4EB2LKtjUluE7/9jERydAqV545ZfZN5/4m/5/hhAes4dcvoQUKFyyqS3Dt49NgLKFVpNQ8V5tOQkhPOb2E8OXkAT5iU1tF759bAKUam3wzvIw/p2//FHUL3oYvjy459qBx4F4dLo91W82pPIN1OZrSz/ot5qs9+BTL2bnL7wz8HhMHr77c37hQdyEbza0Xfj2CwcoRejtfnyL/u4QwGMW1g6GCjgQLeuN2NCm4dvHJUBZnn3pjeyrSz/Y8v89BPPwz8Us9H4bvoRoyVFsaNPw7RcNUIbQTjL73eeG+n+Ovfodgrf2E4jWlCvhbGSr8O3jEqBQYZjy3333uaG3mTz70uvRrx78yoHdhi8hXsI3A7YK3yrfQKG+9vjGA5ZbCdXv+C9fqn5DpGyNY8CG4Tv/mGRq4AmAMT345y9m3zv705H/x+cuvBP96sEwfHnvnXZ/Q4QUMhmwYfj2MQlQpNA6Mkn/9nee/lH0qwfv+eJN2fTOHQOPA6023en2FDO5wmbh28ckQCFWT8dPIrSdpDB8+ZD2E4iR6jdX2Cx8q3wDEwuheXaEAcuthNWDo/aLt81d+64zfAnxkam4wkD4zj8e8QsFmFg4HX+uwHaRSSvobfDo0f3Rf4+QGN0EXGEgfPt4BCjCZqfjJxFWD44ztNkmu3fuMHwJcZGruMJG4VvVG5jIdqfjJ/GtBKrfhi8hLq6Gs9ZG4dvHI8DYhjkdP4nQxhLWFsYsDF8+cvRWvwghHgqbXLZR+Pa3M2Aso5yOn0RYPRj74Z2De3b1BzCBKChsctkV4dvHIsC4Rj0dP4nwc6TQfhIuX4YqONB6Kt9ctr7y7RcHMJZxTsdPIvSUx354Jwxf3nPHTQOPA60Tju1Me9vINgjfPhYBRjbu6fhJldlb3hT3fvlmw5cQB90F9Kl8AxOZ9HT8JMLqwTDgGTvDlxCFvd5GsrXhO/84xEciwEjqPnzztaW/HngsNoYvIQoq3/StrXz7RQGMrO6tI2H1YNh+ErtHjuw3fAntti+/Ik7i1oZvH4cArRR6zmNfPRiCd+j/BlpNey8q30D7heAd++GdIGw+2Xv91QOPA60ha3FF+Pa3MaC1QutJ7KsHs/7ubx9SQovZKscH4dtxHSAGKaweDMOXRw7sHngcaAWFTi5XvoVvoPVSWT34kMuX0FZTnW5PAE/cavj2MQgQhW8+8UL0b6ThS2g1Bc/ErYZvfwsDohBO3IfDP7ELw5cH91zrFy20j8GNxF2Vf/xh7yQQjXD4J/bVg1l/+PJzA48Bjafynbir/CIAYhOC93f+Mv7DO2HtYKiAA60y7dhO2q5S9QZi9OBTLyaxejD0fhu+hNbR7puwqwxbArEK7SexC8Fb+wm0zrS3LF1Xpf4CAPH63tmfJrF68CsHdhu+hHYRvhMmfANRC+0nKVD9hlZZ9nalK4Tvc6m/CEC8wuGdFFYPhuHLe++0+xta4qw3Kl0hfMf/pxKQtFD9TmH14D1fvCmb3rlj4HGgcVS+ExbC9+nUXwQgbucuvJPE6sEwfPmQ9hNouuWVhVmV74RdtbIwe9rfwIDYfefpHyWxevCufdcZvoRmO+X9SdvqwKVfCEDUQttJKsOXjx7dP/AY0BiPeyvSthq+H0j9hQDi9/hz55NYPbh75w7Dl9BMZ/OOAxLWD98rC7Nh48kJvxCA2KVS/TZ8CY103NvC2j3fD1g7CMQurB4Mx3diF4YvHzl6q1/P0BwnVL3J1obvlYXZMHR52PAlELtvJXB2Pji4Z1d/ABOo3Vktvqy64sJlvvrGRyJA1MLqwQf/PJ3Ll6EKDtSmX9zMi5wweF5+ZWF2Sf83ELuwejCFwzth+PKeO24aeByozOF8tg76BsJ39kEAP+74DhCzELxTaT+598s3G76EehzX5816G4bv3GEDmEDMwurBF175ZRLvseFLqNzSysKsTgIGbBq+DWACKfim4UugeGbo2NSm4TszgAkkIJXVg8EjR/YbvoTyGbBkS1uG78wAJpCAVHq/Q/AO/d9AqQxYsqVtw3dmABOIXFg9GLafpCBsPtl7/dV+SUM5DFiyraHCd84AJhCtsPc7hdWDWX/3996Bx4CJGbBkKEOHbwOYQMxC8E7l8E4YvjxyYPfA48DYzMgxtFEq3wYwgaiF1pPzF95J4k1+yOVLKIoBS0YyUvjO/mUAc2ngCYAIfHXpB0m8jYYvoTAGLBnJyOE7+yCAz+UfsQBEJawefPalN5J4U8Pw5cE91w48DgzNgCUjGyt8527X/w3E6GtLf53M+/rw3Z8beAwYigFLxjJ2+M57m24feAKg5cLqwT977nwSb2NYOxgq4MBIzMAxtkkq36sDmHMDTwC0XDg7n8rqwdD7bfgShhaKj3MGLBnXROE7M4AJRCoE7+/8ZRqHd0Lw1n4CQ5vLi48wlonDd2YAE4jUg0+9mMzqwa8c2G34Erb3wMrC7CmvE5MoJHznDGAC0QntJ6lQ/YYtnVpZmL1/q38AhlFY+DaACcToe2d/mszqwTB8ee+ddn/DBsy4UZgiK98GMIEoffOJF5J5Y+/54k3Z9M4dA49DwgxYUqhCw3dmABOI0Auv/DKZ1YNh+PIh7SewlgFLClV4+M4MYAIRCsOXqawevGvfdYYv4QMGLClcKeE7ZwATiEY4vJPK6sHg0aP7Bx6DxBiwpBSlhW8DmEBsvvP0j5JZPbh75w7Dl6TMDBulKbPybQATiEpoOwntJ6kwfEmiDFhSqlLDd2YAE4jM48+dT2b1YBi+fOTorQOPQ+QMWFKq0sN3ZgATiExK1e+De3b1BzAhEQYsKV0l4TtnABOIwrMvvZ7M6sEsv3wZquAQOQOWVKKy8G0AE4hJSqsHw/DlPXfcNPA4RMSMGpWpsvK9OoB5fOAJgJZJbfXgvV++2fAlsTJgSaUqDd/ZBwH8hAFMIAZh9WAq1e/A8CWRMmBJpSoP37njBjCBtgvB+1tP/E0y76PhSyJkwJLK1RK+8492DhvABNourB584ZVfJvM+PnJkv+FLYmHAklrUVfkOAfxcHsABWu2bCVW/Q/AO/d/QcucMWFKX2sJ39kEAP20AE2i7sHrwe2d/msz7GDaf7L3+6oHHoSX6n74bsKQutYbvzAAmEImUer+z/u7vvQOPQUscN2BJnWoP3zkDmECrhdWDD/55WpcvjxzYPfA4NNyJlYVZBT9q1YjwbQATiEFqqwcfcvmSdjm9sjCr1ZXaNaXybQATaL0QvFOqfofgHU7PQwvIGDRGY8J3ZgATiECofp+/8E4yb+VXDuzODu65duBxaBADljRKo8J3ZgATiMBXl36Q1Nuo+k3DGbCkURoXvnMGMIHWCqsHn33pjWTewLB2MKwfhAYyYEnjNDJ8G8AE2u5rS3+d1HsYDu8YvqRhDFjSSE2tfBvABFotrB4M/d+pMHxJw8gQNFZjw3dmABNoubD5JKXVg4YvaQgDljRao8N3ZgATaLEQvL/zl+lUv4NHj+4feAwqZsCSRmt8+M4ZwARa6cGnXkxq9eDunTuye++8eeBxqIgBSxqvFeHbACbQZt984m+Sev/u+eJN2fTOHQOPQ8kMWNIKbal8G8AEWut7Z3+a1OrBMHz5kOFLqiUj0BofatMXGwYwO93eA1mW3TfwJLTE8ruXkgpifOCbT7yQPXz33mRejakdH+5Xv88l1HJDbQxY0iq/0ca3q9PtPZll2aGBJwCA1Mzp86ZNWtN2ss6cAUwASJ4BS1qnlZXv7IPq974sy54Jn24OPAkAxC4MWN7uXaZt2lr5zvIdnnMDTwAAsVs2YElbddr8zv3zD5744VX7/zhU778w8CQAEKsD+RY0aJ3WVr5XrSzM3p9l2amBJwCAGM25YEmbtT585wxgAkD8lgxY0natHbhczwAmAETt7MrC7C3eYtoulsq3AUwAiFcYsLTZhCi0euByPQOYABAlA5ZEI5rK9yoDmAAQFQOWRCW68J0zgAkA7WfAkuhEM3C5ngFMAGg1A5ZEKdbKtwFMAGgvA5ZEK6qBy/UMYAJAKxmwJFrRVr5XGcAEgFYxYEnUog/fOQOYANB8BiyJXrQDl+sZwASARjNgSRJSqXwbwASA5jJgSTKSCd/ZBwE89H6fGHgCAKjT7SsLs8veAVKQTNvJWp1u7xkbUACgEeb0eZOSpCrfaxzOsswKIwColwFLkpNk5TszgAkAdTNgSZJSrXyvDmAeH3gCACjbcv4pNCQn2fCdfRDAlwxgAkDlDrtgSaqSbTtZywAmAFTm+MrCrMIXyUq68r2GAUwAKN+S4E3qhO8P2k9We8/sGAWAcpi1InmZ8P0vDGACQGmW8z5vRS6SJ3yvYQATAEphwBJyBi43YAATAApjwBLWUPnemAFMAJicAUtYR/jegAFMAJiYWSrYgPC9CQOYADA2A5awCeF7CwYwAWAsBixhEwYuh2AAEwCGZsAStqDyPRwDmACwPQOWsA3hewgGMAFgW2alYAjC95AMYALApgxYwpCE7xHkA5hLrfmCAaAaBixhSAYux9Dp9p7Psmxf675wACieAUsYgcr3eG7X/w0ABixhVML3GPKetttb94UDQHHMQsEYhO8x5QOYc6384gFgMqEINWfAEkYnfE/AACYAiZrLi1DAiAxcFsAAJgAJeWBlYfZ+bziMR+W7GAYwAUjBKcEbJiN8F8AAJgAJMOsEBRC+C2IAE4CIGbCEggjfBTKACUCkDFhCQQxclsAAJgARMWAJBVL5LocBTABiYMASCiZ8l8AAJgARMMsEJRC+S2IAE4AWM2AJJRG+S2QAE4CWMmAJJTFwWQEDmAC0iAFLKJHKdzUMYALQBgYsoWTCdwUMYALQAmaVoALCd0Xy3rnjSXyzALSNAUuoiPBdoZWF2RMGMAFoIAOWUBHhu3rH84/2AKAJwoDlKe8EVMO2kxp0ur3pLMvCBpSp5L55AJokDFge9o5AdVS+a7CyMHsuyzK/2QFQp3MGLKF6wndNVhZmTxvABKAmYbDysAFLqJ7wXSMDmADU5LgBS6iH8F0/A5gAVOnEysKswg/UxMBlAxjABKAip1cWZh19gxqpfDeAAUwAKuDPGmgA4bshDGACUCIDltAQwneDGMAEoCQGLKEhhO/mMYAJQJEMWEKDGLhsIAOYABTEgCU0jMp3AxnABKAA/iyBBhK+G8oAJgATMGAJDSV8N5gBTADGZMASGkr4bj4DmACMwoAlNJiByxYwgAnAkAxYQsOpfLeAAUwAhuDPCmgB4bsl8gHMB1J/HQDYkAFLaAltJy3T6faezLLsUOqvAwBXmNPnDe2g8t0+cwYwAVjDgCW0iMp3C3W6vX1Zlj1jABMgeQYsoWVUvlso3906l/rrAJC4ZQOW0D4d71k7/fMPnvjhVfv/OHxy8YXUXwuARB3It2EBLaLy3WIrC7P3Z1l2KvXXASBBcy5YQjsJ3+1nABMgLUsGLKG9DFxGwAAmQDLOrizM3uLthvZS+Y6AAUyAJIQBS5tNoOUMXEbCACZA9AxYQgRUviNiABMgWgYsIRLCd3wMYALExYAlRMTAZYQMYAJEw4AlREblO0IGMAGiYMASImTgMlIGMAFaz4AlREjlO2IGMAFay4AlREr4jp8BTIB2MWAJETNwmQADmACtYcASIqfynQADmACtYMASEiB8J2JlYTb0fp9I/XUAaLDbVxZml71BEDdtJ4npdHvP2IAC0Dhz+rwhDSrf6TmcZZnVVQDNYcASEqLynSADmACNYcASEqPynaB8APN46q8DQM2W808jgYQI34nKP+I0gAlQn8MuWEJ6tJ0kzgAmQC2OryzMKoBAglS+MYAJUK0lwRvSJXwnLt8pezjvPQSgXGZuIHHCNwYwAaqxnPd5K3ZAwoRv+gxgApTOgCVg4JIrGcAEKIUBS6BP5Zv1DGACFMuAJXCZ8M0VDGACFMpMDXAF4ZsBBjABCmHAEhggfLMhA5gAEzNgCQwwcMmWDGACjMWAJbAhlW+2YwATYDQGLIFNCd9syQAmwEjMzABbEr7ZlgFMgKEYsAS2JXwzlHwAc8mrBbApA5bAtgxcMpJOt/d8lmX7vGoAVzBgCQxF5ZtR3a7/G+AKBiyBoQnfjCTvZbzdqwbQZyYGGInwzcjyAcw5rxyQuFCMmDNgCYxC+GYsBjAB+sH7rJcBGIWBSyZiABNI1AMrC7P3e/OBUal8MykDmEBqTgnewLiEbyZiABNIjJkXYCLCNxMzgAkkwoAlMDHhm0IYwAQSYMASmJiBSwplABOIlAFLoBAq3xTNACYQGwOWQGGEbwplABOIjJkWoFDCN4UzgAlEwoAlUDjhm1IYwAQiYMASKJyBS0plABNoKQOWQClUvimbAUygbQxYAqURvimVAUygZcysAKUSvild3jN53CsNNJwBS6B0wjeVWFmYPWEAE2g4A5ZA6YRvqnQ8/0gXoGnCgOUp7wpQNttOqFSn25vOsixsQJnyygMNEQYsD3szgCqofFOplYXZc1mW+UMOaIpzBiyBKgnfVG5lYfa0AUygAcJg5WEDlkCVhG9qYQATaIDjBiyBqgnf1MkAJlCXEysLswoAQOUMXFIrA5hADU6vLMw6/gXUQuWbWhnABCrm9xygVsI3tTOACVTEgCVQO+GbRjCACVTAgCVQO+GbJjGACZTFgCXQCAYuaZROtxcGL5/JsmyfdwYoSAjeWtuARhC+aaROt/ftLMu+4d0BJrCct5qoeAONIXzTWJ1u7wtZlj2WZdm0dwkYUQjcD+QblQAaQ/im8Trd3qEsy45kWXbIuwVsIQTt00I30GTCN62SV8OnVcOBNcKg9jmbTIDGy7Ls/wfW6zdEz68Z4wAAAABJRU5ErkJggg==;" vertex="1" parent="1">
                    <mxGeometry x="495.4" y="406" width="39.6" height="32" as="geometry"/>
                </mxCell>
                <mxCell id="43" value="" style="shape=image;verticalLabelPosition=bottom;verticalAlign=top;imageAspect=0;aspect=fixed;image=data:image/png,iVBORw0KGgoAAAANSUhEUgAAANQAAADuCAMAAAB24dnhAAAAilBMVEX/nQD/////lgD/lwD/mwD/mQD/7tj/7t7/ngD/lAD/+/T/8+T/+O7/79z//fn///3/wnr/tVn/z5f/4b7/rUL/2Kz/y4//3rj/0p//r0j/5cj/1qf/6tL/wHT/6M3/9en/t1//pCH/qTT/wHX/xob/vGr/pin/slD/tlz/yIn/rDz/0qL/pSX/u2W+KjuXAAAMi0lEQVR4nO2d2XrCOAxGiS0zCWvYSqGlJZSlLeX9X2+SsNMskiwHOt/8N71qkkNsR5Ilq+b9B1W79wO40P9Qf0WVQLXqo21/uexvR/VWFfdzDtUdfERGa5Mq/huFg67rezqGaoegDdQuBEZD2HR7V6dQ9c0N0Ymr13Z5X4dQrVWQQXTgClYOZ5c7qL4xeUiJjO47u7UrqEGki5AS6Wjg6OZuoJoTlTvyLsagGrpZMVxAdUKNQNpjhQ0HD+AA6gUKJ9O1DGzln0Ac6i3CvqbDy9LRm/QzCEO9zzGT6XYMfgpPLVGo7pMmjLyzjPoSNZ0kocZ+6TKei1UbCT6IHFR9SB95Z4H+fhV7FCmoRoFNhMQKdlKWkxBUiU2Ek5jlJAI1LbeJcNK+iOUkAIWziXAC9S3glFhDdZZySHusD2vLyRZqRLGJcDLm+a5Qb2uaTYRTbDlN7wb1vrNdxnOxVM/GcrKAYtpEOBm95FtObCgLmwiJBWzLiQnVtrKJcAK9YFpOLKjGzD1SiqXmLMuJA/UsYRPhZPQTY2rRoaZE19ZS2h87h2puqhl5ZzEsJxqUtE2ExAo+aFOLBDWqVTaZrkW0nAhQr05sIpxA+wTLCQ1VFO6vBCvYoC0nLJRTmwiJpUPk8o6DGri2iXDCWk4YqLaga2un2HLChHPLoaqyiXAC9fluD7WtzibCCWE5lUBNf+63jOeq1HIqhGr2HmnknRVbTnUmVOdLPdjIOwuCWYHllA818h8WKZEx+eHcPKjXxQNOpmvlh3OzoVqrx5xM1wK1yXZKMqFEwv1VKLacOjioB7GJcDLmBQElGe6vQqDXvyynW6i+kzjyWfIXj6fWrlME1foWHnlgjFbGjxbfw8lkOFxEoJTOTC2zkfFf86Hakp8mMDoww9l28E/j/EN2G636YBQOjRIlA/2SBzWVG3qg9c9yXOCqtkczXwsO9WCZDfUqtUKANvNxuYPgNUefRoxLfWVBNWXGA5hgMkLvBTbGm0BoHKrzCDxBdXyJa4OOnonh7/cvX+Z1Bael/QTVE1gjIBhydte7o4XEyIfacUE6Qo2U/UXVgr2rOf0WwDKra6iG9cCOv+xWG7VTAbcgmF5BfdgOPot9v6NerM1oWF9CNQPLq6lMa5moxs52DKrxBdTK7jfSa6Hc+bfI7kFgcYZqWFl8EIQySLG6K7sxo+onqBcbKAN2mRw3GlutFyY8QU0srqM3wknYTZshCP4RqmFxFcGhd1S3ZzFw0vGXQE35F1G2uVGZWvItAbM9QD1x3xRoR9UafPsmtSoSqDlzSoGWy+W90Zi7CKbf3wQq4kGBcVjZxXZY9QGKN/pAFwbpbTVgjsCgs4fivWolXqJxQ8V8rKYFlHJV0XUSb7VI1nQuVJARGJXWkvOpsYDS8t/cDHG8cT6UmTAesTGmzsIuY11mQ0GNYe+9aB1QUy2b9AHIhgoYi/k4yQKCgGhW0RcLLhSrzuRnP5IC4v/OqdOKCQXfDKZTwCCgxTLI4UgmlObkwZ89AeLYpVoWPCj9xGDyBicoiJpHIeLt5HWdBbX3Lcl6O69joI7SG0SIukV7VSwopnn0nnkToxEz7Im0rnOggPPZTZQz4dVk+k+OjlO3S1orOFCK62985jwZaJWnyWHOkYJdDCgzZzJ5I7pxAMfBSXlVDKiA7ey+c0zuw6ea8oPQoeCTy8QMLh48HMKrokMpi0jLgBWI2+/O9PH/S4Y6xN+ZYsV3ABKHgBBuJUNpeoHMWVNeeMj0kn/Gb8uQoYzFAQvs+GS6P/2GHn9UKPNhwcTeooFN8v/opYIKxf7wsuNdqXTyDUaHxolQTFM2Ud1mAyydyegNXCKUWZY9e54aNauNtPQLvEZeggjFD8kOrXZy91BL5DVoUADcDXia7/BL+w8JdhONCLVhMtXtkmlAp/G4DjKrkwbFPlDhhz+hAIw6FhcNXUBxd9gIdts1jtGBv9ue3ALkok6E4jG1yExgtNb+Inx+u4pgICcVCYoV7fOIyTRJ3i0Mw9FbRpzpHTc1SVCGt8/RRq8SyQv6Xg6aufalg+GneRtSSNcQtB72SyYt7lI0KFayzituFATfL+WBzRD1qkhQASqceqsN4tc1eoWKfPTloVi+FOK7C+oTmUmMiwdQoCBiMHm70h+XkDSDcxRJUEMGU7P0RVESTHALKQmKY/mVT21KZL6FmiYkKEbEr1M6XkgB366DOUX35cutNUPZEO/Kf6dAUb++3VJ/V5MMf9zuB9XzXZXe90qlEXDqioqKhlKjSXpNSp8ofQZqbNQJVDycCD7VuPRFrWlMuNgfY9eDMLHEX5STObX/H2yUVnxGuVj9jtJD3MQq/VnJuw0dcYvirNv602yVRiboxiTO9eWm8SCS0cvTvzT5nPRXl1DxP+7K/JDvssHHCI3Kux7XKhuC5Ymi5qvwAll6lncSrwVB0UONywdKQD9i0YE7fyv9k2vhIrw5syMzuQi8/BIEs+zFfYw4iY2Tj+EiQvtbBvoZC0aIWKQ4GU7lbrQIVA107elmbuDO8OFU8yDzMKyh0kr53uj98L4a0xBQdSesKM5XNcPv8IRaRZvPXW/ygz49gxXtLf307SUDVUuPOzGUo044MURs0osYFFGGk4WLTW26GxTnbGNsIfydoHibQtiUlztBsfLa37D7XPeB4mWs4gy/2r2geBmr6LX1LlDQ4zDh0zrvAsVLRcNs3p2vXzUU70URisPuAcVLLUYvE3eB4iU4UQ4BuQMUb+lDGuipqocyxI2Tw4uiJM3cAYrV0QKbv5iqcihekRytSqRqKGZmMa1+r2ooXpHclPZ4FUMZ1neXWiJSMZRmZTdRjzqoFoq+zZGInFVcKRSzTIl8PmSlUCx/l3HyW5VQinX8H6M+qUIozi6H57UZ2d/VQfGyBVkHrlYGBYYzoboLTt1LZVABy5TgHSJ7hLI/rbXkPqwqkRWvlke191BWJVvl0qxispBZn5RsJidQ2CIynjTLMeQy1QJvD2V5tmmxNKsynTn2Du6N1aGFCLGYunN2bRzsDlC8qnaUWGOvseb/ymnpWnoQqDMoxVkj6jbtF9K4YnpkK7Iyjip6LnGikc1BtOB3j1BbJ6/KACcaO7P6au4r4VMoeokdQnrCOIXt1bJfxT6qvT+wmnziV6mAeuhYKtsuoIdc4z1UXdj8A71m7NhMrZv0XB0tLtKB4CTQEeM0jmbPumXmMWRwgGKcDph3YR18M5BaoUDLzGN1/7GxgmV9+0l+D1Fd+EvvoUT7ODPzrqGErFoo6h+Xp/pKpLEp+LctMOIBKEJl9JxYZjqeCPVqDU6fxXNbmamQrwgaQvRX9y0U65ZzccTjRQMg/tkyNwKj/HBa+ultjT8iJdaw6fK7eAEVU8m1ajLaLL4GufGW9jiMRJtrBZdbX5dQsQ8iadmm1f2bWX88bbcanXgSdzuNRns67s+GWranVmw6XwXqr6C8tnTjvfRYCa3iBduPIt8HnTQ/k+5+Fv9814vTNVSSq+zIDXHVpi5ZmYY335FbqAdqs4xURpeeX1B/rPkjBOHvZTYD6i+16VSZfdszof5IQ9WajrKtl2yoP9H61uTWPudBPXyTYtCz3LKyfKjHbietJgWpWwVQj9v4u6yfeSHUg7ZoL2qPjYHyvO2jLe8QrMoc0VIorzF7pDEIurjlPBLqoSynkslEgHoYy8moJ1SREg4qiTbdfWrhT1jCQsWWk5xfzELSC/SZnWio2HJa33F5J7UBJUDFllPtTmPQ6CWl4o8E5XVstyVYgqBHy5ihQcWW06ZqLMhzMOSgYsspqnRqGaBndNKhkjMUKptaoDK8dSdQlVlOsYPByudkQcWW07ACLB0xm+ExoTxv7NpyMqw2V3ZQji0nUCt+S10LKO9958pyAjW0aZdpA+V5b24sJ5yD4QoqtpxAfAwaXkWSIJTXEd5SiCcTq3JMFCq2nAQdY9BrgR7BAlCp5STDZHxWocGtRKCEthSM/rJo8XIhISivYe0Yg+qxCqwyJAXleXUryyn21lnHfGdKDsrKcjIg2R9YEsrrMi2n2MHg9gzJlChUbDnN6WMwZzvQQsJQseVEdIwZ3nqpxKE874ViORl2D5QCOYCKLSfsywL1wXcw8uUCCms5xQ4Gu+1iodxAed6g3HJie+ulcgWVnERbOLVKtwMt5A6qcEsBsR1oIYdQseW0yd7fN6rnZjId5BTK817nWl8njyXpjSubAARCjqHi9X3cgyTHz+xT/7S/G8j4FwVyDpWoOdiG881mvtxOpbyLQlUCVbX+h/or+k9C/QtwXMc4k74PYQAAAABJRU5ErkJggg==" vertex="1" parent="1">
                    <mxGeometry x="547.77" y="273" width="26.72" height="30" as="geometry"/>
                </mxCell>
                <mxCell id="44" value="" style="shape=image;verticalLabelPosition=bottom;labelBackgroundColor=#ffffff;verticalAlign=top;aspect=fixed;imageAspect=0;image=data:image/png,iVBORw0KGgoAAAANSUhEUgAAAt8AAAJSCAYAAAAbJKnCAAAACXBIWXMAAC4jAAAuIwF4pT92AAAgAElEQVR4nO3db4zd9X0n+l85aZI63TDEpmlIkAcudcpWGxsZNeNKyCHsoygIe0eiz2JPIp+rrHZonDxaXYl/9+mFuLF0I80IGProLtJZHFGt9kEpZveqeKNGmK4qUpot9iUJNOBkAgaC6aRX38Nv3PGc+XP+/P5+v6+XZCU6h8Qz5xj77c/5/PmNDKBlOt3eVJZl+8JXvbIwe9r7B0BbCN9A43W6vRC0j2RZ9oXV0L3OcpZlZ7Ms+16WZadWFmbPDfwTACM6dvLMdJZl06v/q8X5GX/ZZ2LCN9BYnW7vaJZlf7JJ4N7KUpZlDwjhwKjywH0o/71net3/PPxF/1SWZY8L4oxL+AYaJw/d923wB9+oTuch3B+SwKaOnTwzlQfu1U/YhnEuD+J/ujg/4y/6DE34BhqjwNC9nhAODDh28kwI3HdlWXZ04MnRhLa3x8OnbovzM8teabYifAO1yocnj27yEW/RhHBI3LGTZ1ZnSMLvO1MlvBqhGv69xfmZpYFnSF4mfAN1yUP3N/LQXcYfgFsJ4fvxlYVZfzhCArbp4y6L/nA2JHwDlao5dK93Lq+EC+EQmTH7uMuiP5zLhG+gEp1ub3pNe0ndoXs9IRwiUWAfd1n0hydO+AZKlYfu+xr8B+Fa/RCe7wr3hyK0RAV93GXRH54g4RsoRctC93oheP9plmUnhHBoppr6uMuiPzwhwjdQqJaH7vWEcGiQhvVxl0V/eOSEb6AQnW7vC3kF6lCEr6gQDjVqQR93WfSHR0j4BiaSh+77Iq5Cred0PVSgxX3cZdEfHgnhGxhLgqF7PSEcChZZH3dZ9Ie3nPANjCQ/AR9zv+WohHCYQCJ93GXRH95CwjcwlDx036catan+H4BO18NwEu7jLov+8JYQvoEtCd0jO51XwoVwWEcfd2X0hzeY8A0MyE/AHxK6JyKEgz7uuukPbyDhG7gsD93faOgJ+LYKf+A97nQ9KdHH3Uj6wxtC+AaE7mqcyyvhQjjR0sfdGvrDayR8Q8KE7loI4URFH3fr6Q+vmPANCYrsBHxb9UN4+IPP1UzaRh93lPSHV0T4hoQI3Y3kdD2toI87KefWtKXoDy+Y8A0JELpbQQinkfRxJ+9s/nvTKf3hxRC+IWL5Cfg/yatVtIMQTu30cbOJ1baUUxs/zTCEb4hQHrrv89Fw6zldT2X0cTOC5TVrC8964UYjfENEhO5oCeGUYk0f910+IWNM+sNHJHxDBPIT8Iag4ieEU4g1fdyHtJVQIP3hQxC+ocXy0O0EfHr6H/c6Xc8o1vRxH/J7BhXQH74J4RtaSOgmdzqvhAvhbGhNH3cI3fs2+megZPrD1xG+oSXya5SHhG42IIRzmT5uGiz5/vBM+IbmcwKeEYTw/bjT9WnSx03LJNsfLnxDQwndTOBcXgkXwiOnj5tIJNUfLnxDwwjdFEgIj5A+biKWRH+48A0N4QQ8JeqH8PCHmquZ7XXs5BkXa0nJubwafn9s37PwDTUTuqmQ0/Utdezkmcf8HkGiQgV8LqZKuPANNRG6qZEQ3iKCN/R/z7ohlsFM4Rsqlp+A99ExTSCEN1y+weTJ1F8HCNucFudnbo/hhRC+oSJ56L7PCXgayun6hsn3dT9viwlcdvvi/Ezr7xlcNfAIUKgQujvd3jNZlj0jeNNgoa3h5U6391jeEkX9viF4wxUei+HlUPmGkuQn4I8I3LSUSniN8nWCz1s3CgOOL87PnBh4tEWEbyhYHrqdgCcW/Z27TtdXy5AlbKr1w5fCNxRE6CZyp/NKuBBesnyf9zNRf5MwmaXF+Zm5tr6GwjdMIL9GeUjoJiFCeMmOnTzzvMuVsK1b2rr7W/iGMTgBD/0Q/rjT9cU6dvLM0ViGyqBkrV09KHzDCIRuGHAur4QL4RPKVwu+7PcWGNrhxfmZU217uYRvGILQDdsSwid07OSZ+/MWNmA45/L2k1YNXwrfsAUn4GFk/RAetqS4mjm8fLXgy235eqFBHlicn7m/TW+I8A0bELphYk7Xj+DYyTNP5sPbwGiW8+p3a24SCN+whtANhRPCt2G1IEysVasHhW/IT8Dn/dwqT1AOIXwTx06eedmqUpjY7YvzM61YgSp8k7Q8dN/nBDxUZjm/mul0/QfBOwxyf3vgCWBUrVk9KHyTJKEbGmEp5RButSAUbm5xfqbxG5eEb5KSn4A/InRDoyQZwo+dPPPtfIUpUIzwydoNTV89KHyThDx0OwEPzbaUX82M/nT9sZNnwvn45weeACbV+NWDwjdRE7qhlU7nlfBoQ/ixk2ee8QkclOaGJq8eFL6JktANUYgyhB87eSZsVXpy4AmgKKcW52cON/XVFL6JhhPwEK0Qvv90ZWH2VAzfoNWCUInGrh4Uvmk9oRuScS6vhDd+m8Fmjp08c3/+qRxQrrOL8zO3NPE1Fr5pLaEbktXKEG61IFTu+OL8zImBR2smfNM6a07AH/KHGCStVSH82Mkzj2VZdnTgCaAsjVw9KHzTGmtCtz+8gLUaf7r+2MkzYbPJMwNPAGU7sTg/c7xJr7LwTeMJ3cCQGhvCrRaEWjVq9aDwTWPlJ+CPCN3AiBoVwo+dPBN+D3ts4AmgKqcX52dub8qrLXzTOHnovk+VCJhQCN6n6jxdnw9ZPm+1INSuMasHrxp4BGoSQnen23sm74sUvIFJTeWfnL3c6fYey1vYqvYNwRsaoTGfPql8U7tOt3coXxcocANlW6qqEn7s5JnpvOptKxM0wwOL8zP31/2VCN/Uxgl4oEYhhD9e5un6YyfPPJmvRAWaoRGrB4VvKid0Aw1yOq+EFxrCrRaExlpanJ+Zq/OLE76pjNANNFihIfzYyTOh3WTfwBNAE9yyOD9ztq6vQ/imVE7AAy0TwvefrizMnhr3y7ZaEBqv1tWDwjelELqBlhvrdH2+WvBlv+9B480tzs+M9O93UYRvCiV0A5EZKYQfO3nm2/nvgUCzncvbTyofvhS+KcSaE/CHhG4gQtuG8Hy14MsDTwBNVcvqQeGbiawJ3U7AAynY9HT9sZNnHAiDdlnOq9+VXsAVvhmL0A0k7ooQbrUgtFblqweFb0YSTsBnWXZE6Abo64fwr/6bTx+xRhVa6/bF+ZnSDm6t96GBR2ADeei+z0eqAFeY+oNdv32flwRaLQxK31LVN6DyzZaEboDNfbhzVXb3Zz/Z/0+g1SpbPSh8s6FOt3coXxcodANs4rbPXJP93jU7Nn4SaJPQQnZDFasHtZ1wBSfgAYbziY/+puAN8Vi9U1L66kGVb/qEboDRfOnGXdnvfuwjXjWIyw1lrx5U+U6c0A0wut0f/6jgDXEKw5eHy/zOVL4T5AQ8wGTu/uzvZr/94Y5XEeJU6upBle+ECN0Ak7vlkx8XvCFuj4X2k7K+Q5XvBAjdAMUIofvQTb9jtSDE7/ji/MyJMr5L4Ttia07AHxK6ASZntSAko7TVg9pOIrQmdDsBD1CQT33sI4I3pGMqz1LHi/6OVb4jInQDlMdqQUhS4asHVb4jkJ+APyJ0A5QjVLwFb0hSGL68vchvXOW7xfLQfZ8T8ADlCcOVYcjShhNI1uHF+ZlTRX3zKt8tJHQDVOcPdv224A1pC4d3CgvfKt8t0un2DuXrAoVugAqE0B0O6gDJe2Bxfub+Il4E4bsFnIAHqMcdu3f2T8kDySts9aC2kwYTugHqE1YLCt5AbipvP5mb9AVR+W4goRugfod+73eyT3z0N70TwFq3L87PnJ7kFVH5bggn4AGaIwxZCt7ABkJxdKLwrfJdM6EboFnCasG7P/vJ/n8CbGBucX5mafDh4QjfNRG6AZrp85+6ul/5BthEuHh5y7jDl9pOKrbmBPwhoRugWcJqQcGb7ez4SCe7ftfHLv9Tez798cv//cJb72UX3nyv/9/fWPPficp0XkAda/WgyndF1oRuJ+ABGupLN+5yRp4rhKAdwvVnP/3x7PpdO64I2sN65Y13slfeeDt76SdvZX/3kzcF8jgs59Xvc6N+NyrfJRO6AdohrBYUvOux8B8+P9HP+857K9nZl3+ePffiG/1wO6kQuPfd+Insj35/11hhe70Q2sOPP/r9a/vPhDD+Vy++nj33w9f7XzuttLp68PCoX7zKd0k63d6+vJ9b6AZogXDJ0hn5ekwavtf6T//9fPb0C68NPD6MnR//SHbnH376ckiuwl/98PXsqe//RDW8vUZePajyXbBOt/eFvNLtBDxAS9zyyY8L3pH449t29/uuz/7DL4b+hkLonrvjxkKq3KMKQT/8CH9heOr7P1YJb59Q/b5llK9a5bsgQjdAO1ktWL8iK99ZPvT4Hx8/O/D4eqG95M4//Ex2x97fHXiuDiF4Lz39v0b6iwONMNLqQeF7QkI3QLvd9plrst+7Zod3sUZFh+/goSdf3LL/e9+N12RH7/jf+gG8aUIVPLTP0Bph+PKGYVcPajsZkxPwAO0XrlgK3nEKLSQbhe8Qtu++bXelfd2jCpX4MKD5f/+Xl7ShtMPUKKsHfcY2ohC6O93ey1mWPSZ4A7TbzHVXewcj9dlP/6uBbywE2m8d/teNDt6rwl8ewtfaxMo8G7rv2MkzQ+VC4XtIQjdAXHZ//KNWC0Zs/fBkaDMJYTYE8LZY/cuCAN4ajw3zhQrfWwgn4Dvd3v1CN0BcwnDl5z/lyHDsVoP2H918bfbvv7SnlSE2fA/ha6cVvnDs5JltZwD1fG8ghO68d+dPnIAHiE84IW+1YPxC9TsE76ZsMxlX+D7CCkVDmK0QirU3bPWFqnyvsVrpzrLs5XyYUvAGiEwI3X+w82Pe1gQ0aY3gpML38dka9pAzsuljJ898Y6v/kfCdn4DvdHvfFroB4nfL73zcTu9ExNYrffTf3qj/ux3C8OWmWTL5333ySvfzeZvJpi8UAO33qY99xGpBWmvnv/pIdsfeT3kDm28qv3y5oWTDd17tfl6lGyAdt3xycP0ctMmdf/jp/jl8Gu/osZNn9m30RSYZvjvd3r682r3hiwJAfELF22pBYhACOK2wYfU7ufCdbzJ5RrUbIB0frBZ0UIc47LvhE3q/2yGsHjy0/itNsfL9pOANkJawWtCQJbEIwftAC6500jdQ/U5qz3en2wtDldsuPwcgHmG14C2/o9eb0Vx4673sldffyV55453snff+KfvxG+9c/t+HvdshAIf/rOti5r/d97vZ0y+8NvA4jRNWD96/OD9z/+oX9hupvEd5u8nLqt4Aablj987+KXmaa+E/fL4RX1sI2n/14uvZ2Zd/kV14872B5zcShh//6Pc/OORTdSvI//n//M/+10zjLYd578X5mXNZYpXvo4I3QFrCakHBm+289JM3s6e+/5Ps737y5jb/5KAQ0p/6/o+zp194tfKjPvtu/ITw3Q5T+Xa9uSyxnu8jA48AELXbPnONN5hNheD60JMvZv/Xky+OFbzXeue9lf7596Wn/2HgubLsu9Gv7xYJqwf7rc9JVL7DTm9rBQHSEireod8bNhIq3aFiXbTQtvJbH+5kf3zb7tJf99BvHlpdQvCnFUIh+HQqlW/BGyAxdnqzkTBIGXqlywjeq8Ig5Nl/+MXA42W4ftfHvM/t0V87mEr4PjjwCABR2/lbv+kN5gqht7uqIcX/9P+eH3isDGHjCq0xdezkmalUwrf1ggCQsL/64ev93u6qWjTCIGb4OctW16pDxpZM+NZ2ApCY91b+2VtOX2gBWfqL6gYhV4W+8rKFVYe0R1g3GH347nR7qt4ACfr5r973ttNX1zq+UP0u++dW+W6V/p7vFCrfwjdAgn7+7iVvO7V7acIVhkTlbJZI+DZsCZCgCyrfNEAVVffPGrpsixeyRMK3fm+ABF28ZPcx9Rv2TD1JiL/y3en29jkpD5Cu194WfKjXK2+87R1gVRI936reAAl7S/Wbmrk+yarF+Zkker71ewMk7OL7gg/QCKdXv4jYw7dNJwAJe+2ithOgEc6tfhHRhu9Otxd6vacHngAgGTaeAA1xfvXLiLnyreoNkLhLK7/u/wCoWRJtJ/q9AXDpEmiC+NtObDoBILjwrvAN1Gp5cX4mifCt7QQAlW+gbmfX/vxRhu9Otyd4A9Dn0iVQs/jDt5YTAFa96solUK/za3/2WMO3YUsALlP9BmqUROVb2wkAl9n3DdRlcX7m9NqfOrrw3en2wmGdqYEnAEiWoUugJufW/7QxVr5VvQG4ws/fveQFAeqQRPjeO/AIAEl7S883UI9n1/+sKt8ARE/bCVCTs+t/2qjCd6fbm7JmEICNvGblIFC96NtOBG8ANqT1BKja4vxM3JVvLScAbObi+8I3UKmB4J1FGL4d1wFgQ69d1HYCVCqJ8K3yDcCGHNoBKnZ+o58umvDd6fb0ewOwqUsrv+7/AKjI6Y1+mpgq36reAGzJykGgQgObTrLIwrfjOgBs6cK7wjdQieXF+Znow7fKNwBbUvkGKrLhsGUWS/judHvTWZZNDzwBAGtctOsbqEbc4dtxHQCG8aorl0A1Ntx0kkUUvu33BmAoqt9ABaKvfOv3BmAo9n0DZVucn9lwzWCm7QSA1Bi6BEq24ZaTVa0P351uT9UbgKH9/N1LXiygTHGHby0nAIziLT3fQLme3er/PYbw7bgOAEPTdgKUbNNhy0zlG4AUvWblIFCeeNtOOt1eGLScGngCALag9QQoy+L8TNSVb1tOABjZxfeFb6AUWwbvLILw7bgOACN77aK2E6AU0YdvlW8ARubQDlCSTc/Kr2pt+O50e1PCNwDjuLTy6/4PgIJtetlyVZsr37acADA2KweBEmy56SRrefhW9QZgbBfeFb6BQi0vzs9EHb4NWwIwNpVvoGDbDltm2k4ASNVFu76BYsUbvjvdnuANwERedeUSKNa2m06yFle+9XsDMDHVb6BAUbed6PcGYGL2fQNFWZyf2XbNYKbyDUDKDF0CBdl2y8mq1oXvTrc3nWXZ9MATADCin797yUsGFCHe8G3LCQBFeUvPN1CMZ4f9f2lj+N478AgAjEHbCVCQoYYtM5VvAFL3mpWDwOTibDvpdHtThi0BKJLWE2BSi/Mz0Va+BW8ACnXxfeEbmMjQwTtrYfjWcgJAoV67qO0EmEjU4dtxHQAK5dAOMKGhzsqv0nYCQNIurfy6/wNgTENdtlzVmvDd6fZC8J4aeAIAJmTlIDCBoTedZC2rfOv3BqAUF94VvoGxLC/Oz0Qbvh3XAaAUKt/AmEYatgw+NPBIc6l8A1CKi3Z91+qp7/+k1J/+pZ+8OfBYlcr+/t54y8aeGsUZvvPjOtMDTwBAAV515bJWT33/x74/2mqkTSdZi9pOVL0BKJXqNzCGkSvfbQnf9nsDUCr7voFRLc7PjLRmMGtR+LbfG4BSGboERjTSlpNV2k4AIITvdy95GYBRxBm+O92e4A1A6d7S8w2M5tlxXq82VL6FbwBKp+0EGNHIw5ZZS8K34zoAVOI1KweB4UXb863yDUAltJ4Aw1qcn4mv8t3p9sJhnamBJwCgBBffF76BoYwVvLMWVL5VvQGozGsXtZ0AQ4k2fDuuA0BlHNoBhjTyWflVTQ/fjusAUJlLK7/u/wDYxsiXLVc1Nnx3ur0p4RuAqlk5CAxhrE0nWcMr3/q9AajchXeFb2BLy4vzM1GGb1VvACqn8g1sY+xhy6zh4duwJQCVu2jXN7C1aMO3thMAKveqK5fA1sbedBJ8aOCRBuh0e1pOiNbBPddmT3/rtmi+vQ/97/954LFU3Xvnzdm9X745ye9++Z33s5v+j//a/88YhOr3b3+4E8X3AhQuysq3qjfQKnuvvzrZ4B3c8fB/iyZ4Z/Z9A1tYnJ8Ze81g1uDwrd8baI2pHb+Z/eevH0j2DfvmE3+TvfDKLwcebzNDl8Amxt5ysqqp4VvbCdAaoeK9e+eOJN+wP3vufPadp3808Hjb/fzdS9F9T0Ah4gvfnW5vOsuy6YEnABoo9PDfc8dNSb41ododqt4xesvGE2Bjz2746AiaWPlW9QZaIbSbPHp0f5JvVujv/urjfx1Vn/da2k6ATUw0bJk1NHzr9wZa4eG7P5dsu8nXHv9BdH3e671m5SAwKMqeb5tOgMa7a9912VcO7E7yjQo93t87+9OBx2Oj9QRYb3F+JsrKt7YToNFCu8kjR9JsN3n2pTei7fNe7+L7wjdwhYmDd9a08N3p9lS9gcYLwTsE8NSE/u7Z7z6XzHf92kVtJ8AV4gvfWk6ApgvtJuFHimI7pLMdh3aAdSY6K7+qaeHbsCXQWCm3m8R4SGc7l1Z+3f8BkJvosuWqpoVv/d5AY/W+fiDJdpNYD+kM49W3HdsBLour7aTT7YXgPTXwBEADhEM6B/fsSu6tiPmQzjD+vzffbf4XCVTh9OL8zHIRP0+TKt+q3kAjTe/c0T8hn5rYD+kM4+9/8U520cpBIMseKOo1aFL41u8NNNIjR29Nst0khUM6w/iL8xf0fkPaTizOzxTS7501LHzbdAI0TqrtJqkc0hlGODX/X/7hDQEc0hSC9/Eiv/NGhO9Otxd6vacHngCo0d7rr+6fkE9NSod0hhUC+Kkf/az/n0Ay5ooO3lmDKt+q3kDjPHrk1uTelNQO6Ywi9H6HCvhrbzu+A5ELg5W3LM7PLJXxbTYlfBu2BBrl3jtv7le+U5PaIZ1RhdaTEMDDICYQpbN58C5kreBGmhK+DVsCjRFCd4rbTVI8pDOu//7jX/R/AFE5lWXZ7YvzM+fK/KY+NPBIPbSdAI2RYrtJyod0xrW6hvCO3Z/IPtxp2s06YESFD1ZupvbfLTrdnuANNEYYsEyt3ST1QzqTePXt9/ptKAYxodVKGazcTBP+qq7fG2iEg3uu7a8WTIlDOpNbXUVoEBNaZzlvMyllsHIzTQjf+r2B2oUjOo8e3Z/cG+GQTjEMYkLrnM2Dd2HHc4bVhPCt7QSoXRiw3L1zR1JvhEM6xQtDmP/jVX+ZgYY7nQfv0jaabKXWgctOtxcO60wNPAFQoRTbTRzSKc/fvnExu3jpn7LbPnONQUxonqXF+Zm5Or+qun9XUPUGahXaTXpfn0nqTXBIp3zn3/xVvw0lbEMBGmOu7uCdNSB87x14BKBCjxzZ3w/gKXFIpxpO0kNj1DJYuRmVbyBZd+27rv8jJQ7pVCsMYp76+58ZxIT6nKtrsHIztYXvTrc3Zc0gUJdQ7Q5V75SE4UqHdOphEBNqUfqp+HHUOXApeAO1Sa3dJFS7w1pB6hMGMUMl/POfutogJpSv9sHKzdT5b7+WE6AWYbNJSu0mDuk0R2g/CYOYIYQDpTne1OCd1Ry+HdcBKje9c0d/p3dKvqXPu1HCAOYTf/ePBjGheGGw8vDi/MyJJr+2Kt9AUh45emtS7Sahx/vx584PPE69XMSEwq1uNDnV9Je2lvDd6fb0ewOVC+0mB/fsSuaFD9Vuh3SaKwTwMIj5/M/eSv2lgEmFgcobmjZYuZm6Kt+q3kClUms3Cf3dYZ83zff8P77ZD+HAWJbyivdyW16+uradOK4DVKr39QNJtZvMfveMAcsWCe0nF959P/vSjbtsQoHhPbA4P3N/214vlW8gevfeeXO29/qrk3mjQ6vJsy+9PvA4zeYiJgxtOT8V37rgndURvjvd3nT4BHjgCYAShNCdUruJQzrtdvHSSn8Q8/ybv0r9pYDNNOpU/DjqqHwbtgQq8+iRW5N5sR3SiUMYxHz6/IX+UR7gCq0arNxMHeHbfm+gEim1mzikE59wjt4gJlx2qm2DlZupY+BS5Rso3cE91ybVbuKQTpwMYkLficX5meOxvBR1/Jts2BIoVdhq8ujR/cm8yA7pxC0MYIY+cIOYJGoupuCdVR2+O92e4A2ULlS8d+/ckcQL7ZBOGlYD+Gtvv5f6S0E6QnvJLW0erNxM1ZVv4RsoVWg3CZcsU+CQTlqcpCchZ/Pg3erBys1UHb4d1wFKk1q7iUM6aQpDmAYxidjqYOW5WL/FqgcuVb6B0jx89+eSaTdxSCdtofoddoLfsfsTBjGJydLi/Mxc7O9oZf/Gdrq9sOVkauAJgALcte+67CsHdifxUjqkQ/Dq2+8ZxCQmcykE76zithMrBoFShHaTR46k0W7ikA5r2YRCBFp/sXJUVYZvx3WAUoTgHQJ47BzSYSNhEPPU3//MICZtdDYP3qdTevdUvoFWC+0m4UcKHNJhK2EIM1zFhJY4nQfvKDeabKWSgctOtzclfANFm965I5l2E4d0GMbfvnExu3jpn7LbPnONQUyaLInBys1U9W+mLSdA4R45emsS7SYO6TCK82/+qt8HHrahQAMdTzl4ZxWGb1VvoFDhkM7BPbuif1Ed0mEcYQDz1I9+ZhCTJgmDlYcX52dOpP6uVBW+DVsChQntJuGEfAoc0mFcLmLSIOfy/u5wQCd52k6A1kml3cQhHSYVAngYxHz+Z295LalL1Kfix1H6wGWn2xO8gcKk0m7ikA5Fev4f3+wPYn7+U1cbxKRKSQ9WbqaKfwP1ewOF2Hv91f0T8rFzSIcyhPaT0IYSquFQgeQHKzdTRfjW7w0U4tEjt0b/QjqkQ5nCAOYTf/ePBjEp03J+Kj75wcrNqHwDrXDvnTf3K9+xc0iHshnEpETJnYofR6nhu9PtTYfFBANPAIwghO4Utps4pENVVgcxw1EeKEgYqLzBYOX2yq58G7YEJhK2mqTQbuKQDnUI5+hDCIcJLeUV72Uv5PbK3nayd+ARgBGEinfs7SYO6VCn0H5y4d33sy/duMsmFMbxwOL8zP1eueGpfAONdXDPtf3VgrFzSIe6uYjJmOYE79GVHb4NWwJj6bebHN0f/Yv34J+/6JAOjXDx0kp/EPP8m7/yhrCd5fxwjsHKMZQWvh3XASYR2k1279wR9WsYDuk8+NSLA49DXcIg5tPnLxjEZCsuVk6ozMq38A2MJYV2k/MX3nFIh8YyiMkmTuWDlec2fpphlDlw6bgOMLLQbtL7+s1wDGIAABoDSURBVEzUL1zo7/53331OnzeNFgYxQyvKHbs/YRCT4MTi/Mxxr8Tkyvy3Sb83MLJHjuzvB/CYOaRDW7z69nv9PnCDmMmbE7yLU0r47nR7IXhPDTwBsIW79l3X/xGzP3vuvEM6tEoI3iGAv/b2e9649BisLEFZlW/93sBIQrU7VL1jFqrdX13S5037OEmfpLN5f7fByoKVFb4d1wFGEnu7Sejvnv3ucwOPQ5uEIUyDmEk4LXiXp6yBS5VvYGhhs0ns7SbhkM65C6qGtF+ofodK+G2fucYgZpyWFudn5lJ/EcpU+L81nW4v9HpPDzwBsIHpnTv6O71j5pAOsQmHeEIbStiGQlTmBO/ylfFXVlVvYGiPHL016nYTh3SIlZP0UVnO20wMVlagjPBtvzcwlCMHdmcH9+yK9sVySIfYhfaTU3//M4OY7bY6WHk69ReiKmX0fNvvDWwrVLsfuvtz0b5QDumQkjCEGSrgn//U1d73dlkN3supvxBVKiN8azsBthX7dhOHdEjN375xMbt46Z8MYraHwcqaFPpvR6fbE7yBbR3cc23U200c0iFVYRAz9IFrQ2m0UO0+LHjXp+jKt/ANbClUux89Gu8xHYd0SF3YgBLaUP7Hq7/Mdn40nk+3fn/nx+ZuuPq3zg080S7nFudn2v49tF7R4dtxHWBLYa3g7p07tvpHWsshHfgXYRjz1YhO0ofv5S8WZg0lMrGim7JUvoFN7b3+6v5BnVg5pANRs82NQhQWvjvdXjisMzXwBEDu0SO3RvtSOKQD0bPNjUIUWflW9QY2de+dN/cr3zFySAeSsC+/4g0TKTJ8+zgG2FA4IX/PF+NsN3FIB5Ki0MjEigzfPo4BNhTrCXmHdCA5sg4TKyR85x/D+AUJDIj5hLxDOpAcn/IzsaIq34I3MCDmE/IO6UCStJ0wsaLCt1+MwICH7/5clO0mDulAujrdnoIjEykqfPsYBrhCOCH/lQO7o3tRHNKB5Ck4MhGVb6AUsZ6Qd0gHkqfgyEQmDt8+fgHWCzu9Yzwh75AOYM6NSRVR+Vb1Bi4LO73v/fLN0b0gDukAuen8qjeMpYjw7eMX4LKw0zs2DukA6yg8MrYiwrePX4C+u/ZdF91Ob4d0gA3sHXwIhjNR+M4/dvHRC9BfKfhwhDu9HdIBNqDyzdgmrXyregN999xxU5RDlsvvqngDA+QfxjZp+NbvDUQ7ZJlFfCgImEyn21P9ZiyThm+/8IAohyxX7Y74LxbARGQgxqLtBJhIqAzHNmS5Xmip2Xv91QOPA0nz6T9jGTt8+7gFyPJgmoKH77bcALiCAiRjmaTyLXwDyQjV/SMHdnvDgVVTrnwzjknCt49bgKQ8ZPgSuJLwzcgmCd9+wQFJCcHb8CWwhkIkIxsrfOcfs0wNPAEQudDjfnDPtd5mINOCyzjGrXyregPJivGSJzCW6U63pxjJSMYN3z5mAZIV1g6msuUF2JbqNyMZN3z7hQYkLfR+G74EFCQZ1cjhO/94ZXrgCYCEhOCt/QTQisuoxql8q3oDZFn2lQO7DV8CchEjGSd8+xseQE71G3D1m1GME771NgHkwvDlvXfa/Q2JU5hkaNpOACZ0zxdvyqZ37vAyQroUJhnaSOHbxyoAg8Lw5UPaTyBl8hFDG7Xy7WMVgA3cte86w5eQrqlOt2cTHEMZNXz7WAVgE48e3b/xE0AKVL8Zyqjh2y8sgE3s3rnD8CWkS4GSoQwdvvOPU6YGngDgMsOXkCytuQxllMq3qjfANsLw5SNHb936HwJitC+/Ag5bGiV87x14BIABB/fs6g9gAslR/WZbKt8AJQiXL0MVHEiKrMS2hgrf+cco/jYHMKQwfHnPHTd5uSAthi7Z1rCVb8EbYET3fvlmw5eQFpVvtjVs+PaLCWAMhi8hLZ1uT8GSLQ0bvn2MAjAGw5eQHAVLtqTyDVCyR47sN3wJ6bAdji1tG759fAIwmRC8Q/83kAQFS7Y0TOXbLyKACYXNJ3uvv9rLCPGbzq+Cw4aGCd8+PgEqsfzO+1G/0A/f7bdTSISuATal8g00wp89dz674+H/FvWbEYYvjxzYPfA4EB2LKtjUluE7/9jERydAqV545ZfZN5/4m/5/hhAes4dcvoQUKFyyqS3Dt49NgLKFVpNQ8V5tOQkhPOb2E8OXkAT5iU1tF759bAKUam3wzvIw/p2//FHUL3oYvjy459qBx4F4dLo91W82pPIN1OZrSz/ot5qs9+BTL2bnL7wz8HhMHr77c37hQdyEbza0Xfj2CwcoRejtfnyL/u4QwGMW1g6GCjgQLeuN2NCm4dvHJUBZnn3pjeyrSz/Y8v89BPPwz8Us9H4bvoRoyVFsaNPw7RcNUIbQTjL73eeG+n+Ovfodgrf2E4jWlCvhbGSr8O3jEqBQYZjy3333uaG3mTz70uvRrx78yoHdhi8hXsI3A7YK3yrfQKG+9vjGA5ZbCdXv+C9fqn5DpGyNY8CG4Tv/mGRq4AmAMT345y9m3zv705H/x+cuvBP96sEwfHnvnXZ/Q4QUMhmwYfj2MQlQpNA6Mkn/9nee/lH0qwfv+eJN2fTOHQOPA6023en2FDO5wmbh28ckQCFWT8dPIrSdpDB8+ZD2E4iR6jdX2Cx8q3wDEwuheXaEAcuthNWDo/aLt81d+64zfAnxkam4wkD4zj8e8QsFmFg4HX+uwHaRSSvobfDo0f3Rf4+QGN0EXGEgfPt4BCjCZqfjJxFWD44ztNkmu3fuMHwJcZGruMJG4VvVG5jIdqfjJ/GtBKrfhi8hLq6Gs9ZG4dvHI8DYhjkdP4nQxhLWFsYsDF8+cvRWvwghHgqbXLZR+Pa3M2Aso5yOn0RYPRj74Z2De3b1BzCBKChsctkV4dvHIsC4Rj0dP4nwc6TQfhIuX4YqONB6Kt9ctr7y7RcHMJZxTsdPIvSUx354Jwxf3nPHTQOPA60Tju1Me9vINgjfPhYBRjbu6fhJldlb3hT3fvlmw5cQB90F9Kl8AxOZ9HT8JMLqwTDgGTvDlxCFvd5GsrXhO/84xEciwEjqPnzztaW/HngsNoYvIQoq3/StrXz7RQGMrO6tI2H1YNh+ErtHjuw3fAntti+/Ik7i1oZvH4cArRR6zmNfPRiCd+j/BlpNey8q30D7heAd++GdIGw+2Xv91QOPA60ha3FF+Pa3MaC1QutJ7KsHs/7ubx9SQovZKscH4dtxHSAGKaweDMOXRw7sHngcaAWFTi5XvoVvoPVSWT34kMuX0FZTnW5PAE/cavj2MQgQhW8+8UL0b6ThS2g1Bc/ErYZvfwsDohBO3IfDP7ELw5cH91zrFy20j8GNxF2Vf/xh7yQQjXD4J/bVg1l/+PJzA48Bjafynbir/CIAYhOC93f+Mv7DO2HtYKiAA60y7dhO2q5S9QZi9OBTLyaxejD0fhu+hNbR7puwqwxbArEK7SexC8Fb+wm0zrS3LF1Xpf4CAPH63tmfJrF68CsHdhu+hHYRvhMmfANRC+0nKVD9hlZZ9nalK4Tvc6m/CEC8wuGdFFYPhuHLe++0+xta4qw3Kl0hfMf/pxKQtFD9TmH14D1fvCmb3rlj4HGgcVS+ExbC9+nUXwQgbucuvJPE6sEwfPmQ9hNouuWVhVmV74RdtbIwe9rfwIDYfefpHyWxevCufdcZvoRmO+X9SdvqwKVfCEDUQttJKsOXjx7dP/AY0BiPeyvSthq+H0j9hQDi9/hz55NYPbh75w7Dl9BMZ/OOAxLWD98rC7Nh48kJvxCA2KVS/TZ8CY103NvC2j3fD1g7CMQurB4Mx3diF4YvHzl6q1/P0BwnVL3J1obvlYXZMHR52PAlELtvJXB2Pji4Z1d/ABOo3Vktvqy64sJlvvrGRyJA1MLqwQf/PJ3Ll6EKDtSmX9zMi5wweF5+ZWF2Sf83ELuwejCFwzth+PKeO24aeByozOF8tg76BsJ39kEAP+74DhCzELxTaT+598s3G76EehzX5816G4bv3GEDmEDMwurBF175ZRLvseFLqNzSysKsTgIGbBq+DWACKfim4UugeGbo2NSm4TszgAkkIJXVg8EjR/YbvoTyGbBkS1uG78wAJpCAVHq/Q/AO/d9AqQxYsqVtw3dmABOIXFg9GLafpCBsPtl7/dV+SUM5DFiyraHCd84AJhCtsPc7hdWDWX/3996Bx4CJGbBkKEOHbwOYQMxC8E7l8E4YvjxyYPfA48DYzMgxtFEq3wYwgaiF1pPzF95J4k1+yOVLKIoBS0YyUvjO/mUAc2ngCYAIfHXpB0m8jYYvoTAGLBnJyOE7+yCAz+UfsQBEJawefPalN5J4U8Pw5cE91w48DgzNgCUjGyt8527X/w3E6GtLf53M+/rw3Z8beAwYigFLxjJ2+M57m24feAKg5cLqwT977nwSb2NYOxgq4MBIzMAxtkkq36sDmHMDTwC0XDg7n8rqwdD7bfgShhaKj3MGLBnXROE7M4AJRCoE7+/8ZRqHd0Lw1n4CQ5vLi48wlonDd2YAE4jUg0+9mMzqwa8c2G34Erb3wMrC7CmvE5MoJHznDGAC0QntJ6lQ/YYtnVpZmL1/q38AhlFY+DaACcToe2d/mszqwTB8ee+ddn/DBsy4UZgiK98GMIEoffOJF5J5Y+/54k3Z9M4dA49DwgxYUqhCw3dmABOI0Auv/DKZ1YNh+PIh7SewlgFLClV4+M4MYAIRCsOXqawevGvfdYYv4QMGLClcKeE7ZwATiEY4vJPK6sHg0aP7Bx6DxBiwpBSlhW8DmEBsvvP0j5JZPbh75w7Dl6TMDBulKbPybQATiEpoOwntJ6kwfEmiDFhSqlLDd2YAE4jM48+dT2b1YBi+fOTorQOPQ+QMWFKq0sN3ZgATiExK1e+De3b1BzAhEQYsKV0l4TtnABOIwrMvvZ7M6sEsv3wZquAQOQOWVKKy8G0AE4hJSqsHw/DlPXfcNPA4RMSMGpWpsvK9OoB5fOAJgJZJbfXgvV++2fAlsTJgSaUqDd/ZBwH8hAFMIAZh9WAq1e/A8CWRMmBJpSoP37njBjCBtgvB+1tP/E0y76PhSyJkwJLK1RK+8492DhvABNourB584ZVfJvM+PnJkv+FLYmHAklrUVfkOAfxcHsABWu2bCVW/Q/AO/d/QcucMWFKX2sJ39kEAP20AE2i7sHrwe2d/msz7GDaf7L3+6oHHoSX6n74bsKQutYbvzAAmEImUer+z/u7vvQOPQUscN2BJnWoP3zkDmECrhdWDD/55WpcvjxzYPfA4NNyJlYVZBT9q1YjwbQATiEFqqwcfcvmSdjm9sjCr1ZXaNaXybQATaL0QvFOqfofgHU7PQwvIGDRGY8J3ZgATiECofp+/8E4yb+VXDuzODu65duBxaBADljRKo8J3ZgATiMBXl36Q1Nuo+k3DGbCkURoXvnMGMIHWCqsHn33pjWTewLB2MKwfhAYyYEnjNDJ8G8AE2u5rS3+d1HsYDu8YvqRhDFjSSE2tfBvABFotrB4M/d+pMHxJw8gQNFZjw3dmABNoubD5JKXVg4YvaQgDljRao8N3ZgATaLEQvL/zl+lUv4NHj+4feAwqZsCSRmt8+M4ZwARa6cGnXkxq9eDunTuye++8eeBxqIgBSxqvFeHbACbQZt984m+Sev/u+eJN2fTOHQOPQ8kMWNIKbal8G8AEWut7Z3+a1OrBMHz5kOFLqiUj0BofatMXGwYwO93eA1mW3TfwJLTE8ruXkgpifOCbT7yQPXz33mRejakdH+5Xv88l1HJDbQxY0iq/0ca3q9PtPZll2aGBJwCA1Mzp86ZNWtN2ss6cAUwASJ4BS1qnlZXv7IPq974sy54Jn24OPAkAxC4MWN7uXaZt2lr5zvIdnnMDTwAAsVs2YElbddr8zv3zD5744VX7/zhU778w8CQAEKsD+RY0aJ3WVr5XrSzM3p9l2amBJwCAGM25YEmbtT585wxgAkD8lgxY0natHbhczwAmAETt7MrC7C3eYtoulsq3AUwAiFcYsLTZhCi0euByPQOYABAlA5ZEI5rK9yoDmAAQFQOWRCW68J0zgAkA7WfAkuhEM3C5ngFMAGg1A5ZEKdbKtwFMAGgvA5ZEK6qBy/UMYAJAKxmwJFrRVr5XGcAEgFYxYEnUog/fOQOYANB8BiyJXrQDl+sZwASARjNgSRJSqXwbwASA5jJgSTKSCd/ZBwE89H6fGHgCAKjT7SsLs8veAVKQTNvJWp1u7xkbUACgEeb0eZOSpCrfaxzOsswKIwColwFLkpNk5TszgAkAdTNgSZJSrXyvDmAeH3gCACjbcv4pNCQn2fCdfRDAlwxgAkDlDrtgSaqSbTtZywAmAFTm+MrCrMIXyUq68r2GAUwAKN+S4E3qhO8P2k9We8/sGAWAcpi1InmZ8P0vDGACQGmW8z5vRS6SJ3yvYQATAEphwBJyBi43YAATAApjwBLWUPnemAFMAJicAUtYR/jegAFMAJiYWSrYgPC9CQOYADA2A5awCeF7CwYwAWAsBixhEwYuh2AAEwCGZsAStqDyPRwDmACwPQOWsA3hewgGMAFgW2alYAjC95AMYALApgxYwpCE7xHkA5hLrfmCAaAaBixhSAYux9Dp9p7Psmxf675wACieAUsYgcr3eG7X/w0ABixhVML3GPKetttb94UDQHHMQsEYhO8x5QOYc6384gFgMqEINWfAEkYnfE/AACYAiZrLi1DAiAxcFsAAJgAJeWBlYfZ+bziMR+W7GAYwAUjBKcEbJiN8F8AAJgAJMOsEBRC+C2IAE4CIGbCEggjfBTKACUCkDFhCQQxclsAAJgARMWAJBVL5LocBTABiYMASCiZ8l8AAJgARMMsEJRC+S2IAE4AWM2AJJRG+S2QAE4CWMmAJJTFwWQEDmAC0iAFLKJHKdzUMYALQBgYsoWTCdwUMYALQAmaVoALCd0Xy3rnjSXyzALSNAUuoiPBdoZWF2RMGMAFoIAOWUBHhu3rH84/2AKAJwoDlKe8EVMO2kxp0ur3pLMvCBpSp5L55AJokDFge9o5AdVS+a7CyMHsuyzK/2QFQp3MGLKF6wndNVhZmTxvABKAmYbDysAFLqJ7wXSMDmADU5LgBS6iH8F0/A5gAVOnEysKswg/UxMBlAxjABKAip1cWZh19gxqpfDeAAUwAKuDPGmgA4bshDGACUCIDltAQwneDGMAEoCQGLKEhhO/mMYAJQJEMWEKDGLhsIAOYABTEgCU0jMp3AxnABKAA/iyBBhK+G8oAJgATMGAJDSV8N5gBTADGZMASGkr4bj4DmACMwoAlNJiByxYwgAnAkAxYQsOpfLeAAUwAhuDPCmgB4bsl8gHMB1J/HQDYkAFLaAltJy3T6faezLLsUOqvAwBXmNPnDe2g8t0+cwYwAVjDgCW0iMp3C3W6vX1Zlj1jABMgeQYsoWVUvlso3906l/rrAJC4ZQOW0D4d71k7/fMPnvjhVfv/OHxy8YXUXwuARB3It2EBLaLy3WIrC7P3Z1l2KvXXASBBcy5YQjsJ3+1nABMgLUsGLKG9DFxGwAAmQDLOrizM3uLthvZS+Y6AAUyAJIQBS5tNoOUMXEbCACZA9AxYQgRUviNiABMgWgYsIRLCd3wMYALExYAlRMTAZYQMYAJEw4AlREblO0IGMAGiYMASImTgMlIGMAFaz4AlREjlO2IGMAFay4AlREr4jp8BTIB2MWAJETNwmQADmACtYcASIqfynQADmACtYMASEiB8J2JlYTb0fp9I/XUAaLDbVxZml71BEDdtJ4npdHvP2IAC0Dhz+rwhDSrf6TmcZZnVVQDNYcASEqLynSADmACNYcASEqPynaB8APN46q8DQM2W808jgYQI34nKP+I0gAlQn8MuWEJ6tJ0kzgAmQC2OryzMKoBAglS+MYAJUK0lwRvSJXwnLt8pezjvPQSgXGZuIHHCNwYwAaqxnPd5K3ZAwoRv+gxgApTOgCVg4JIrGcAEKIUBS6BP5Zv1DGACFMuAJXCZ8M0VDGACFMpMDXAF4ZsBBjABCmHAEhggfLMhA5gAEzNgCQwwcMmWDGACjMWAJbAhlW+2YwATYDQGLIFNCd9syQAmwEjMzABbEr7ZlgFMgKEYsAS2JXwzlHwAc8mrBbApA5bAtgxcMpJOt/d8lmX7vGoAVzBgCQxF5ZtR3a7/G+AKBiyBoQnfjCTvZbzdqwbQZyYGGInwzcjyAcw5rxyQuFCMmDNgCYxC+GYsBjAB+sH7rJcBGIWBSyZiABNI1AMrC7P3e/OBUal8MykDmEBqTgnewLiEbyZiABNIjJkXYCLCNxMzgAkkwoAlMDHhm0IYwAQSYMASmJiBSwplABOIlAFLoBAq3xTNACYQGwOWQGGEbwplABOIjJkWoFDCN4UzgAlEwoAlUDjhm1IYwAQiYMASKJyBS0plABNoKQOWQClUvimbAUygbQxYAqURvimVAUygZcysAKUSvild3jN53CsNNJwBS6B0wjeVWFmYPWEAE2g4A5ZA6YRvqnQ8/0gXoGnCgOUp7wpQNttOqFSn25vOsixsQJnyygMNEQYsD3szgCqofFOplYXZc1mW+UMOaIpzBiyBKgnfVG5lYfa0AUygAcJg5WEDlkCVhG9qYQATaIDjBiyBqgnf1MkAJlCXEysLswoAQOUMXFIrA5hADU6vLMw6/gXUQuWbWhnABCrm9xygVsI3tTOACVTEgCVQO+GbRjCACVTAgCVQO+GbJjGACZTFgCXQCAYuaZROtxcGL5/JsmyfdwYoSAjeWtuARhC+aaROt/ftLMu+4d0BJrCct5qoeAONIXzTWJ1u7wtZlj2WZdm0dwkYUQjcD+QblQAaQ/im8Trd3qEsy45kWXbIuwVsIQTt00I30GTCN62SV8OnVcOBNcKg9jmbTIDGy7Ls/wfW6zdEz68Z4wAAAABJRU5ErkJggg==;" vertex="1" parent="1">
                    <mxGeometry x="578.03" y="270" width="39.6" height="32" as="geometry"/>
                </mxCell>
                <mxCell id="45" value="" style="shape=image;verticalLabelPosition=bottom;verticalAlign=top;imageAspect=0;aspect=fixed;image=data:image/png,iVBORw0KGgoAAAANSUhEUgAAANQAAADuCAMAAAB24dnhAAAAilBMVEX/nQD/////lgD/lwD/mwD/mQD/7tj/7t7/ngD/lAD/+/T/8+T/+O7/79z//fn///3/wnr/tVn/z5f/4b7/rUL/2Kz/y4//3rj/0p//r0j/5cj/1qf/6tL/wHT/6M3/9en/t1//pCH/qTT/wHX/xob/vGr/pin/slD/tlz/yIn/rDz/0qL/pSX/u2W+KjuXAAAMi0lEQVR4nO2d2XrCOAxGiS0zCWvYSqGlJZSlLeX9X2+SsNMskiwHOt/8N71qkkNsR5Ilq+b9B1W79wO40P9Qf0WVQLXqo21/uexvR/VWFfdzDtUdfERGa5Mq/huFg67rezqGaoegDdQuBEZD2HR7V6dQ9c0N0Ymr13Z5X4dQrVWQQXTgClYOZ5c7qL4xeUiJjO47u7UrqEGki5AS6Wjg6OZuoJoTlTvyLsagGrpZMVxAdUKNQNpjhQ0HD+AA6gUKJ9O1DGzln0Ac6i3CvqbDy9LRm/QzCEO9zzGT6XYMfgpPLVGo7pMmjLyzjPoSNZ0kocZ+6TKei1UbCT6IHFR9SB95Z4H+fhV7FCmoRoFNhMQKdlKWkxBUiU2Ek5jlJAI1LbeJcNK+iOUkAIWziXAC9S3glFhDdZZySHusD2vLyRZqRLGJcDLm+a5Qb2uaTYRTbDlN7wb1vrNdxnOxVM/GcrKAYtpEOBm95FtObCgLmwiJBWzLiQnVtrKJcAK9YFpOLKjGzD1SiqXmLMuJA/UsYRPhZPQTY2rRoaZE19ZS2h87h2puqhl5ZzEsJxqUtE2ExAo+aFOLBDWqVTaZrkW0nAhQr05sIpxA+wTLCQ1VFO6vBCvYoC0nLJRTmwiJpUPk8o6DGri2iXDCWk4YqLaga2un2HLChHPLoaqyiXAC9fluD7WtzibCCWE5lUBNf+63jOeq1HIqhGr2HmnknRVbTnUmVOdLPdjIOwuCWYHllA818h8WKZEx+eHcPKjXxQNOpmvlh3OzoVqrx5xM1wK1yXZKMqFEwv1VKLacOjioB7GJcDLmBQElGe6vQqDXvyynW6i+kzjyWfIXj6fWrlME1foWHnlgjFbGjxbfw8lkOFxEoJTOTC2zkfFf86Hakp8mMDoww9l28E/j/EN2G636YBQOjRIlA/2SBzWVG3qg9c9yXOCqtkczXwsO9WCZDfUqtUKANvNxuYPgNUefRoxLfWVBNWXGA5hgMkLvBTbGm0BoHKrzCDxBdXyJa4OOnonh7/cvX+Z1Bael/QTVE1gjIBhydte7o4XEyIfacUE6Qo2U/UXVgr2rOf0WwDKra6iG9cCOv+xWG7VTAbcgmF5BfdgOPot9v6NerM1oWF9CNQPLq6lMa5moxs52DKrxBdTK7jfSa6Hc+bfI7kFgcYZqWFl8EIQySLG6K7sxo+onqBcbKAN2mRw3GlutFyY8QU0srqM3wknYTZshCP4RqmFxFcGhd1S3ZzFw0vGXQE35F1G2uVGZWvItAbM9QD1x3xRoR9UafPsmtSoSqDlzSoGWy+W90Zi7CKbf3wQq4kGBcVjZxXZY9QGKN/pAFwbpbTVgjsCgs4fivWolXqJxQ8V8rKYFlHJV0XUSb7VI1nQuVJARGJXWkvOpsYDS8t/cDHG8cT6UmTAesTGmzsIuY11mQ0GNYe+9aB1QUy2b9AHIhgoYi/k4yQKCgGhW0RcLLhSrzuRnP5IC4v/OqdOKCQXfDKZTwCCgxTLI4UgmlObkwZ89AeLYpVoWPCj9xGDyBicoiJpHIeLt5HWdBbX3Lcl6O69joI7SG0SIukV7VSwopnn0nnkToxEz7Im0rnOggPPZTZQz4dVk+k+OjlO3S1orOFCK62985jwZaJWnyWHOkYJdDCgzZzJ5I7pxAMfBSXlVDKiA7ey+c0zuw6ea8oPQoeCTy8QMLh48HMKrokMpi0jLgBWI2+/O9PH/S4Y6xN+ZYsV3ABKHgBBuJUNpeoHMWVNeeMj0kn/Gb8uQoYzFAQvs+GS6P/2GHn9UKPNhwcTeooFN8v/opYIKxf7wsuNdqXTyDUaHxolQTFM2Ud1mAyydyegNXCKUWZY9e54aNauNtPQLvEZeggjFD8kOrXZy91BL5DVoUADcDXia7/BL+w8JdhONCLVhMtXtkmlAp/G4DjKrkwbFPlDhhz+hAIw6FhcNXUBxd9gIdts1jtGBv9ue3ALkok6E4jG1yExgtNb+Inx+u4pgICcVCYoV7fOIyTRJ3i0Mw9FbRpzpHTc1SVCGt8/RRq8SyQv6Xg6aufalg+GneRtSSNcQtB72SyYt7lI0KFayzituFATfL+WBzRD1qkhQASqceqsN4tc1eoWKfPTloVi+FOK7C+oTmUmMiwdQoCBiMHm70h+XkDSDcxRJUEMGU7P0RVESTHALKQmKY/mVT21KZL6FmiYkKEbEr1M6XkgB366DOUX35cutNUPZEO/Kf6dAUb++3VJ/V5MMf9zuB9XzXZXe90qlEXDqioqKhlKjSXpNSp8ofQZqbNQJVDycCD7VuPRFrWlMuNgfY9eDMLHEX5STObX/H2yUVnxGuVj9jtJD3MQq/VnJuw0dcYvirNv602yVRiboxiTO9eWm8SCS0cvTvzT5nPRXl1DxP+7K/JDvssHHCI3Kux7XKhuC5Ymi5qvwAll6lncSrwVB0UONywdKQD9i0YE7fyv9k2vhIrw5syMzuQi8/BIEs+zFfYw4iY2Tj+EiQvtbBvoZC0aIWKQ4GU7lbrQIVA107elmbuDO8OFU8yDzMKyh0kr53uj98L4a0xBQdSesKM5XNcPv8IRaRZvPXW/ygz49gxXtLf307SUDVUuPOzGUo044MURs0osYFFGGk4WLTW26GxTnbGNsIfydoHibQtiUlztBsfLa37D7XPeB4mWs4gy/2r2geBmr6LX1LlDQ4zDh0zrvAsVLRcNs3p2vXzUU70URisPuAcVLLUYvE3eB4iU4UQ4BuQMUb+lDGuipqocyxI2Tw4uiJM3cAYrV0QKbv5iqcihekRytSqRqKGZmMa1+r2ooXpHclPZ4FUMZ1neXWiJSMZRmZTdRjzqoFoq+zZGInFVcKRSzTIl8PmSlUCx/l3HyW5VQinX8H6M+qUIozi6H57UZ2d/VQfGyBVkHrlYGBYYzoboLTt1LZVABy5TgHSJ7hLI/rbXkPqwqkRWvlke191BWJVvl0qxispBZn5RsJidQ2CIynjTLMeQy1QJvD2V5tmmxNKsynTn2Du6N1aGFCLGYunN2bRzsDlC8qnaUWGOvseb/ymnpWnoQqDMoxVkj6jbtF9K4YnpkK7Iyjip6LnGikc1BtOB3j1BbJ6/KACcaO7P6au4r4VMoeokdQnrCOIXt1bJfxT6qvT+wmnziV6mAeuhYKtsuoIdc4z1UXdj8A71m7NhMrZv0XB0tLtKB4CTQEeM0jmbPumXmMWRwgGKcDph3YR18M5BaoUDLzGN1/7GxgmV9+0l+D1Fd+EvvoUT7ODPzrqGErFoo6h+Xp/pKpLEp+LctMOIBKEJl9JxYZjqeCPVqDU6fxXNbmamQrwgaQvRX9y0U65ZzccTjRQMg/tkyNwKj/HBa+ultjT8iJdaw6fK7eAEVU8m1ajLaLL4GufGW9jiMRJtrBZdbX5dQsQ8iadmm1f2bWX88bbcanXgSdzuNRns67s+GWranVmw6XwXqr6C8tnTjvfRYCa3iBduPIt8HnTQ/k+5+Fv9814vTNVSSq+zIDXHVpi5ZmYY335FbqAdqs4xURpeeX1B/rPkjBOHvZTYD6i+16VSZfdszof5IQ9WajrKtl2yoP9H61uTWPudBPXyTYtCz3LKyfKjHbietJgWpWwVQj9v4u6yfeSHUg7ZoL2qPjYHyvO2jLe8QrMoc0VIorzF7pDEIurjlPBLqoSynkslEgHoYy8moJ1SREg4qiTbdfWrhT1jCQsWWk5xfzELSC/SZnWio2HJa33F5J7UBJUDFllPtTmPQ6CWl4o8E5XVstyVYgqBHy5ihQcWW06ZqLMhzMOSgYsspqnRqGaBndNKhkjMUKptaoDK8dSdQlVlOsYPByudkQcWW07ACLB0xm+ExoTxv7NpyMqw2V3ZQji0nUCt+S10LKO9958pyAjW0aZdpA+V5b24sJ5yD4QoqtpxAfAwaXkWSIJTXEd5SiCcTq3JMFCq2nAQdY9BrgR7BAlCp5STDZHxWocGtRKCEthSM/rJo8XIhISivYe0Yg+qxCqwyJAXleXUryyn21lnHfGdKDsrKcjIg2R9YEsrrMi2n2MHg9gzJlChUbDnN6WMwZzvQQsJQseVEdIwZ3nqpxKE874ViORl2D5QCOYCKLSfsywL1wXcw8uUCCms5xQ4Gu+1iodxAed6g3HJie+ulcgWVnERbOLVKtwMt5A6qcEsBsR1oIYdQseW0yd7fN6rnZjId5BTK817nWl8njyXpjSubAARCjqHi9X3cgyTHz+xT/7S/G8j4FwVyDpWoOdiG881mvtxOpbyLQlUCVbX+h/or+k9C/QtwXMc4k74PYQAAAABJRU5ErkJggg==" vertex="1" parent="1">
                    <mxGeometry x="549.14" y="619.5" width="26.72" height="30" as="geometry"/>
                </mxCell>
                <mxCell id="46" value="" style="shape=image;verticalLabelPosition=bottom;labelBackgroundColor=#ffffff;verticalAlign=top;aspect=fixed;imageAspect=0;image=data:image/png,iVBORw0KGgoAAAANSUhEUgAAAt8AAAJSCAYAAAAbJKnCAAAACXBIWXMAAC4jAAAuIwF4pT92AAAgAElEQVR4nO3db4zd9X0n+l85aZI63TDEpmlIkAcudcpWGxsZNeNKyCHsoygIe0eiz2JPIp+rrHZonDxaXYl/9+mFuLF0I80IGProLtJZHFGt9kEpZveqeKNGmK4qUpot9iUJNOBkAgaC6aRX38Nv3PGc+XP+/P5+v6+XZCU6h8Qz5xj77c/5/PmNDKBlOt3eVJZl+8JXvbIwe9r7B0BbCN9A43W6vRC0j2RZ9oXV0L3OcpZlZ7Ms+16WZadWFmbPDfwTACM6dvLMdJZl06v/q8X5GX/ZZ2LCN9BYnW7vaJZlf7JJ4N7KUpZlDwjhwKjywH0o/71net3/PPxF/1SWZY8L4oxL+AYaJw/d923wB9+oTuch3B+SwKaOnTwzlQfu1U/YhnEuD+J/ujg/4y/6DE34BhqjwNC9nhAODDh28kwI3HdlWXZ04MnRhLa3x8OnbovzM8teabYifAO1yocnj27yEW/RhHBI3LGTZ1ZnSMLvO1MlvBqhGv69xfmZpYFnSF4mfAN1yUP3N/LQXcYfgFsJ4fvxlYVZfzhCArbp4y6L/nA2JHwDlao5dK93Lq+EC+EQmTH7uMuiP5zLhG+gEp1ub3pNe0ndoXs9IRwiUWAfd1n0hydO+AZKlYfu+xr8B+Fa/RCe7wr3hyK0RAV93GXRH54g4RsoRctC93oheP9plmUnhHBoppr6uMuiPzwhwjdQqJaH7vWEcGiQhvVxl0V/eOSEb6AQnW7vC3kF6lCEr6gQDjVqQR93WfSHR0j4BiaSh+77Iq5Cred0PVSgxX3cZdEfHgnhGxhLgqF7PSEcChZZH3dZ9Ie3nPANjCQ/AR9zv+WohHCYQCJ93GXRH95CwjcwlDx036catan+H4BO18NwEu7jLov+8JYQvoEtCd0jO51XwoVwWEcfd2X0hzeY8A0MyE/AHxK6JyKEgz7uuukPbyDhG7gsD93faOgJ+LYKf+A97nQ9KdHH3Uj6wxtC+AaE7mqcyyvhQjjR0sfdGvrDayR8Q8KE7loI4URFH3fr6Q+vmPANCYrsBHxb9UN4+IPP1UzaRh93lPSHV0T4hoQI3Y3kdD2toI87KefWtKXoDy+Y8A0JELpbQQinkfRxJ+9s/nvTKf3hxRC+IWL5Cfg/yatVtIMQTu30cbOJ1baUUxs/zTCEb4hQHrrv89Fw6zldT2X0cTOC5TVrC8964UYjfENEhO5oCeGUYk0f910+IWNM+sNHJHxDBPIT8Iag4ieEU4g1fdyHtJVQIP3hQxC+ocXy0O0EfHr6H/c6Xc8o1vRxH/J7BhXQH74J4RtaSOgmdzqvhAvhbGhNH3cI3fs2+megZPrD1xG+oSXya5SHhG42IIRzmT5uGiz5/vBM+IbmcwKeEYTw/bjT9WnSx03LJNsfLnxDQwndTOBcXgkXwiOnj5tIJNUfLnxDwwjdFEgIj5A+biKWRH+48A0N4QQ8JeqH8PCHmquZ7XXs5BkXa0nJubwafn9s37PwDTUTuqmQ0/Utdezkmcf8HkGiQgV8LqZKuPANNRG6qZEQ3iKCN/R/z7ohlsFM4Rsqlp+A99ExTSCEN1y+weTJ1F8HCNucFudnbo/hhRC+oSJ56L7PCXgayun6hsn3dT9viwlcdvvi/Ezr7xlcNfAIUKgQujvd3jNZlj0jeNNgoa3h5U6391jeEkX9viF4wxUei+HlUPmGkuQn4I8I3LSUSniN8nWCz1s3CgOOL87PnBh4tEWEbyhYHrqdgCcW/Z27TtdXy5AlbKr1w5fCNxRE6CZyp/NKuBBesnyf9zNRf5MwmaXF+Zm5tr6GwjdMIL9GeUjoJiFCeMmOnTzzvMuVsK1b2rr7W/iGMTgBD/0Q/rjT9cU6dvLM0ViGyqBkrV09KHzDCIRuGHAur4QL4RPKVwu+7PcWGNrhxfmZU217uYRvGILQDdsSwid07OSZ+/MWNmA45/L2k1YNXwrfsAUn4GFk/RAetqS4mjm8fLXgy235eqFBHlicn7m/TW+I8A0bELphYk7Xj+DYyTNP5sPbwGiW8+p3a24SCN+whtANhRPCt2G1IEysVasHhW/IT8Dn/dwqT1AOIXwTx06eedmqUpjY7YvzM61YgSp8k7Q8dN/nBDxUZjm/mul0/QfBOwxyf3vgCWBUrVk9KHyTJKEbGmEp5RButSAUbm5xfqbxG5eEb5KSn4A/InRDoyQZwo+dPPPtfIUpUIzwydoNTV89KHyThDx0OwEPzbaUX82M/nT9sZNnwvn45weeACbV+NWDwjdRE7qhlU7nlfBoQ/ixk2ee8QkclOaGJq8eFL6JktANUYgyhB87eSZsVXpy4AmgKKcW52cON/XVFL6JhhPwEK0Qvv90ZWH2VAzfoNWCUInGrh4Uvmk9oRuScS6vhDd+m8Fmjp08c3/+qRxQrrOL8zO3NPE1Fr5pLaEbktXKEG61IFTu+OL8zImBR2smfNM6a07AH/KHGCStVSH82Mkzj2VZdnTgCaAsjVw9KHzTGmtCtz+8gLUaf7r+2MkzYbPJMwNPAGU7sTg/c7xJr7LwTeMJ3cCQGhvCrRaEWjVq9aDwTWPlJ+CPCN3AiBoVwo+dPBN+D3ts4AmgKqcX52dub8qrLXzTOHnovk+VCJhQCN6n6jxdnw9ZPm+1INSuMasHrxp4BGoSQnen23sm74sUvIFJTeWfnL3c6fYey1vYqvYNwRsaoTGfPql8U7tOt3coXxcocANlW6qqEn7s5JnpvOptKxM0wwOL8zP31/2VCN/Uxgl4oEYhhD9e5un6YyfPPJmvRAWaoRGrB4VvKid0Aw1yOq+EFxrCrRaExlpanJ+Zq/OLE76pjNANNFihIfzYyTOh3WTfwBNAE9yyOD9ztq6vQ/imVE7AAy0TwvefrizMnhr3y7ZaEBqv1tWDwjelELqBlhvrdH2+WvBlv+9B480tzs+M9O93UYRvCiV0A5EZKYQfO3nm2/nvgUCzncvbTyofvhS+KcSaE/CHhG4gQtuG8Hy14MsDTwBNVcvqQeGbiawJ3U7AAynY9HT9sZNnHAiDdlnOq9+VXsAVvhmL0A0k7ooQbrUgtFblqweFb0YSTsBnWXZE6Abo64fwr/6bTx+xRhVa6/bF+ZnSDm6t96GBR2ADeei+z0eqAFeY+oNdv32flwRaLQxK31LVN6DyzZaEboDNfbhzVXb3Zz/Z/0+g1SpbPSh8s6FOt3coXxcodANs4rbPXJP93jU7Nn4SaJPQQnZDFasHtZ1wBSfgAYbziY/+puAN8Vi9U1L66kGVb/qEboDRfOnGXdnvfuwjXjWIyw1lrx5U+U6c0A0wut0f/6jgDXEKw5eHy/zOVL4T5AQ8wGTu/uzvZr/94Y5XEeJU6upBle+ECN0Ak7vlkx8XvCFuj4X2k7K+Q5XvBAjdAMUIofvQTb9jtSDE7/ji/MyJMr5L4Ttia07AHxK6ASZntSAko7TVg9pOIrQmdDsBD1CQT33sI4I3pGMqz1LHi/6OVb4jInQDlMdqQUhS4asHVb4jkJ+APyJ0A5QjVLwFb0hSGL68vchvXOW7xfLQfZ8T8ADlCcOVYcjShhNI1uHF+ZlTRX3zKt8tJHQDVOcPdv224A1pC4d3CgvfKt8t0un2DuXrAoVugAqE0B0O6gDJe2Bxfub+Il4E4bsFnIAHqMcdu3f2T8kDySts9aC2kwYTugHqE1YLCt5AbipvP5mb9AVR+W4goRugfod+73eyT3z0N70TwFq3L87PnJ7kFVH5bggn4AGaIwxZCt7ABkJxdKLwrfJdM6EboFnCasG7P/vJ/n8CbGBucX5mafDh4QjfNRG6AZrp85+6ul/5BthEuHh5y7jDl9pOKrbmBPwhoRugWcJqQcGb7ez4SCe7ftfHLv9Tez798cv//cJb72UX3nyv/9/fWPPficp0XkAda/WgyndF1oRuJ+ABGupLN+5yRp4rhKAdwvVnP/3x7PpdO64I2sN65Y13slfeeDt76SdvZX/3kzcF8jgs59Xvc6N+NyrfJRO6AdohrBYUvOux8B8+P9HP+857K9nZl3+ePffiG/1wO6kQuPfd+Insj35/11hhe70Q2sOPP/r9a/vPhDD+Vy++nj33w9f7XzuttLp68PCoX7zKd0k63d6+vJ9b6AZogXDJ0hn5ekwavtf6T//9fPb0C68NPD6MnR//SHbnH376ckiuwl/98PXsqe//RDW8vUZePajyXbBOt/eFvNLtBDxAS9zyyY8L3pH449t29/uuz/7DL4b+hkLonrvjxkKq3KMKQT/8CH9heOr7P1YJb59Q/b5llK9a5bsgQjdAO1ktWL8iK99ZPvT4Hx8/O/D4eqG95M4//Ex2x97fHXiuDiF4Lz39v0b6iwONMNLqQeF7QkI3QLvd9plrst+7Zod3sUZFh+/goSdf3LL/e9+N12RH7/jf+gG8aUIVPLTP0Bph+PKGYVcPajsZkxPwAO0XrlgK3nEKLSQbhe8Qtu++bXelfd2jCpX4MKD5f/+Xl7ShtMPUKKsHfcY2ohC6O93ey1mWPSZ4A7TbzHVXewcj9dlP/6uBbywE2m8d/teNDt6rwl8ewtfaxMo8G7rv2MkzQ+VC4XtIQjdAXHZ//KNWC0Zs/fBkaDMJYTYE8LZY/cuCAN4ajw3zhQrfWwgn4Dvd3v1CN0BcwnDl5z/lyHDsVoP2H918bfbvv7SnlSE2fA/ha6cVvnDs5JltZwD1fG8ghO68d+dPnIAHiE84IW+1YPxC9TsE76ZsMxlX+D7CCkVDmK0QirU3bPWFqnyvsVrpzrLs5XyYUvAGiEwI3X+w82Pe1gQ0aY3gpML38dka9pAzsuljJ898Y6v/kfCdn4DvdHvfFroB4nfL73zcTu9ExNYrffTf3qj/ux3C8OWmWTL5333ySvfzeZvJpi8UAO33qY99xGpBWmvnv/pIdsfeT3kDm28qv3y5oWTDd17tfl6lGyAdt3xycP0ctMmdf/jp/jl8Gu/osZNn9m30RSYZvjvd3r682r3hiwJAfELF22pBYhACOK2wYfU7ufCdbzJ5RrUbIB0frBZ0UIc47LvhE3q/2yGsHjy0/itNsfL9pOANkJawWtCQJbEIwftAC6500jdQ/U5qz3en2wtDldsuPwcgHmG14C2/o9eb0Vx4673sldffyV55453snff+KfvxG+9c/t+HvdshAIf/rOti5r/d97vZ0y+8NvA4jRNWD96/OD9z/+oX9hupvEd5u8nLqt4Aablj987+KXmaa+E/fL4RX1sI2n/14uvZ2Zd/kV14872B5zcShh//6Pc/OORTdSvI//n//M/+10zjLYd578X5mXNZYpXvo4I3QFrCakHBm+289JM3s6e+/5Ps737y5jb/5KAQ0p/6/o+zp194tfKjPvtu/ITw3Q5T+Xa9uSyxnu8jA48AELXbPnONN5hNheD60JMvZv/Xky+OFbzXeue9lf7596Wn/2HgubLsu9Gv7xYJqwf7rc9JVL7DTm9rBQHSEireod8bNhIq3aFiXbTQtvJbH+5kf3zb7tJf99BvHlpdQvCnFUIh+HQqlW/BGyAxdnqzkTBIGXqlywjeq8Ig5Nl/+MXA42W4ftfHvM/t0V87mEr4PjjwCABR2/lbv+kN5gqht7uqIcX/9P+eH3isDGHjCq0xdezkmalUwrf1ggCQsL/64ev93u6qWjTCIGb4OctW16pDxpZM+NZ2ApCY91b+2VtOX2gBWfqL6gYhV4W+8rKFVYe0R1g3GH347nR7qt4ACfr5r973ttNX1zq+UP0u++dW+W6V/p7vFCrfwjdAgn7+7iVvO7V7acIVhkTlbJZI+DZsCZCgCyrfNEAVVffPGrpsixeyRMK3fm+ABF28ZPcx9Rv2TD1JiL/y3en29jkpD5Cu194WfKjXK2+87R1gVRI936reAAl7S/Wbmrk+yarF+Zkker71ewMk7OL7gg/QCKdXv4jYw7dNJwAJe+2ithOgEc6tfhHRhu9Otxd6vacHngAgGTaeAA1xfvXLiLnyreoNkLhLK7/u/wCoWRJtJ/q9AXDpEmiC+NtObDoBILjwrvAN1Gp5cX4mifCt7QQAlW+gbmfX/vxRhu9Otyd4A9Dn0iVQs/jDt5YTAFa96solUK/za3/2WMO3YUsALlP9BmqUROVb2wkAl9n3DdRlcX7m9NqfOrrw3en2wmGdqYEnAEiWoUugJufW/7QxVr5VvQG4ws/fveQFAeqQRPjeO/AIAEl7S883UI9n1/+sKt8ARE/bCVCTs+t/2qjCd6fbm7JmEICNvGblIFC96NtOBG8ANqT1BKja4vxM3JVvLScAbObi+8I3UKmB4J1FGL4d1wFgQ69d1HYCVCqJ8K3yDcCGHNoBKnZ+o58umvDd6fb0ewOwqUsrv+7/AKjI6Y1+mpgq36reAGzJykGgQgObTrLIwrfjOgBs6cK7wjdQieXF+Znow7fKNwBbUvkGKrLhsGUWS/judHvTWZZNDzwBAGtctOsbqEbc4dtxHQCG8aorl0A1Ntx0kkUUvu33BmAoqt9ABaKvfOv3BmAo9n0DZVucn9lwzWCm7QSA1Bi6BEq24ZaTVa0P351uT9UbgKH9/N1LXiygTHGHby0nAIziLT3fQLme3er/PYbw7bgOAEPTdgKUbNNhy0zlG4AUvWblIFCeeNtOOt1eGLScGngCALag9QQoy+L8TNSVb1tOABjZxfeFb6AUWwbvLILw7bgOACN77aK2E6AU0YdvlW8ARubQDlCSTc/Kr2pt+O50e1PCNwDjuLTy6/4PgIJtetlyVZsr37acADA2KweBEmy56SRrefhW9QZgbBfeFb6BQi0vzs9EHb4NWwIwNpVvoGDbDltm2k4ASNVFu76BYsUbvjvdnuANwERedeUSKNa2m06yFle+9XsDMDHVb6BAUbed6PcGYGL2fQNFWZyf2XbNYKbyDUDKDF0CBdl2y8mq1oXvTrc3nWXZ9MATADCin797yUsGFCHe8G3LCQBFeUvPN1CMZ4f9f2lj+N478AgAjEHbCVCQoYYtM5VvAFL3mpWDwOTibDvpdHtThi0BKJLWE2BSi/Mz0Va+BW8ACnXxfeEbmMjQwTtrYfjWcgJAoV67qO0EmEjU4dtxHQAK5dAOMKGhzsqv0nYCQNIurfy6/wNgTENdtlzVmvDd6fZC8J4aeAIAJmTlIDCBoTedZC2rfOv3BqAUF94VvoGxLC/Oz0Qbvh3XAaAUKt/AmEYatgw+NPBIc6l8A1CKi3Z91+qp7/+k1J/+pZ+8OfBYlcr+/t54y8aeGsUZvvPjOtMDTwBAAV515bJWT33/x74/2mqkTSdZi9pOVL0BKJXqNzCGkSvfbQnf9nsDUCr7voFRLc7PjLRmMGtR+LbfG4BSGboERjTSlpNV2k4AIITvdy95GYBRxBm+O92e4A1A6d7S8w2M5tlxXq82VL6FbwBKp+0EGNHIw5ZZS8K34zoAVOI1KweB4UXb863yDUAltJ4Aw1qcn4mv8t3p9sJhnamBJwCgBBffF76BoYwVvLMWVL5VvQGozGsXtZ0AQ4k2fDuuA0BlHNoBhjTyWflVTQ/fjusAUJlLK7/u/wDYxsiXLVc1Nnx3ur0p4RuAqlk5CAxhrE0nWcMr3/q9AajchXeFb2BLy4vzM1GGb1VvACqn8g1sY+xhy6zh4duwJQCVu2jXN7C1aMO3thMAKveqK5fA1sbedBJ8aOCRBuh0e1pOiNbBPddmT3/rtmi+vQ/97/954LFU3Xvnzdm9X745ye9++Z33s5v+j//a/88YhOr3b3+4E8X3AhQuysq3qjfQKnuvvzrZ4B3c8fB/iyZ4Z/Z9A1tYnJ8Ze81g1uDwrd8baI2pHb+Z/eevH0j2DfvmE3+TvfDKLwcebzNDl8Amxt5ysqqp4VvbCdAaoeK9e+eOJN+wP3vufPadp3808Hjb/fzdS9F9T0Ah4gvfnW5vOsuy6YEnABoo9PDfc8dNSb41ododqt4xesvGE2Bjz2746AiaWPlW9QZaIbSbPHp0f5JvVujv/urjfx1Vn/da2k6ATUw0bJk1NHzr9wZa4eG7P5dsu8nXHv9BdH3e671m5SAwKMqeb5tOgMa7a9912VcO7E7yjQo93t87+9OBx2Oj9QRYb3F+JsrKt7YToNFCu8kjR9JsN3n2pTei7fNe7+L7wjdwhYmDd9a08N3p9lS9gcYLwTsE8NSE/u7Z7z6XzHf92kVtJ8AV4gvfWk6ApgvtJuFHimI7pLMdh3aAdSY6K7+qaeHbsCXQWCm3m8R4SGc7l1Z+3f8BkJvosuWqpoVv/d5AY/W+fiDJdpNYD+kM49W3HdsBLour7aTT7YXgPTXwBEADhEM6B/fsSu6tiPmQzjD+vzffbf4XCVTh9OL8zHIRP0+TKt+q3kAjTe/c0T8hn5rYD+kM4+9/8U520cpBIMseKOo1aFL41u8NNNIjR29Nst0khUM6w/iL8xf0fkPaTizOzxTS7501LHzbdAI0TqrtJqkc0hlGODX/X/7hDQEc0hSC9/Eiv/NGhO9Otxd6vacHngCo0d7rr+6fkE9NSod0hhUC+Kkf/az/n0Ay5ooO3lmDKt+q3kDjPHrk1uTelNQO6Ywi9H6HCvhrbzu+A5ELg5W3LM7PLJXxbTYlfBu2BBrl3jtv7le+U5PaIZ1RhdaTEMDDICYQpbN58C5kreBGmhK+DVsCjRFCd4rbTVI8pDOu//7jX/R/AFE5lWXZ7YvzM+fK/KY+NPBIPbSdAI2RYrtJyod0xrW6hvCO3Z/IPtxp2s06YESFD1ZupvbfLTrdnuANNEYYsEyt3ST1QzqTePXt9/ptKAYxodVKGazcTBP+qq7fG2iEg3uu7a8WTIlDOpNbXUVoEBNaZzlvMyllsHIzTQjf+r2B2oUjOo8e3Z/cG+GQTjEMYkLrnM2Dd2HHc4bVhPCt7QSoXRiw3L1zR1JvhEM6xQtDmP/jVX+ZgYY7nQfv0jaabKXWgctOtxcO60wNPAFQoRTbTRzSKc/fvnExu3jpn7LbPnONQUxonqXF+Zm5Or+qun9XUPUGahXaTXpfn0nqTXBIp3zn3/xVvw0lbEMBGmOu7uCdNSB87x14BKBCjxzZ3w/gKXFIpxpO0kNj1DJYuRmVbyBZd+27rv8jJQ7pVCsMYp76+58ZxIT6nKtrsHIztYXvTrc3Zc0gUJdQ7Q5V75SE4UqHdOphEBNqUfqp+HHUOXApeAO1Sa3dJFS7w1pB6hMGMUMl/POfutogJpSv9sHKzdT5b7+WE6AWYbNJSu0mDuk0R2g/CYOYIYQDpTne1OCd1Ry+HdcBKje9c0d/p3dKvqXPu1HCAOYTf/ePBjGheGGw8vDi/MyJJr+2Kt9AUh45emtS7Sahx/vx584PPE69XMSEwq1uNDnV9Je2lvDd6fb0ewOVC+0mB/fsSuaFD9Vuh3SaKwTwMIj5/M/eSv2lgEmFgcobmjZYuZm6Kt+q3kClUms3Cf3dYZ83zff8P77ZD+HAWJbyivdyW16+uradOK4DVKr39QNJtZvMfveMAcsWCe0nF959P/vSjbtsQoHhPbA4P3N/214vlW8gevfeeXO29/qrk3mjQ6vJsy+9PvA4zeYiJgxtOT8V37rgndURvjvd3nT4BHjgCYAShNCdUruJQzrtdvHSSn8Q8/ybv0r9pYDNNOpU/DjqqHwbtgQq8+iRW5N5sR3SiUMYxHz6/IX+UR7gCq0arNxMHeHbfm+gEim1mzikE59wjt4gJlx2qm2DlZupY+BS5Rso3cE91ybVbuKQTpwMYkLficX5meOxvBR1/Jts2BIoVdhq8ujR/cm8yA7pxC0MYIY+cIOYJGoupuCdVR2+O92e4A2ULlS8d+/ckcQL7ZBOGlYD+Gtvv5f6S0E6QnvJLW0erNxM1ZVv4RsoVWg3CZcsU+CQTlqcpCchZ/Pg3erBys1UHb4d1wFKk1q7iUM6aQpDmAYxidjqYOW5WL/FqgcuVb6B0jx89+eSaTdxSCdtofoddoLfsfsTBjGJydLi/Mxc7O9oZf/Gdrq9sOVkauAJgALcte+67CsHdifxUjqkQ/Dq2+8ZxCQmcykE76zithMrBoFShHaTR46k0W7ikA5r2YRCBFp/sXJUVYZvx3WAUoTgHQJ47BzSYSNhEPPU3//MICZtdDYP3qdTevdUvoFWC+0m4UcKHNJhK2EIM1zFhJY4nQfvKDeabKWSgctOtzclfANFm965I5l2E4d0GMbfvnExu3jpn7LbPnONQUyaLInBys1U9W+mLSdA4R45emsS7SYO6TCK82/+qt8HHrahQAMdTzl4ZxWGb1VvoFDhkM7BPbuif1Ed0mEcYQDz1I9+ZhCTJgmDlYcX52dOpP6uVBW+DVsChQntJuGEfAoc0mFcLmLSIOfy/u5wQCd52k6A1kml3cQhHSYVAngYxHz+Z295LalL1Kfix1H6wGWn2xO8gcKk0m7ikA5Fev4f3+wPYn7+U1cbxKRKSQ9WbqaKfwP1ewOF2Hv91f0T8rFzSIcyhPaT0IYSquFQgeQHKzdTRfjW7w0U4tEjt0b/QjqkQ5nCAOYTf/ePBjEp03J+Kj75wcrNqHwDrXDvnTf3K9+xc0iHshnEpETJnYofR6nhu9PtTYfFBANPAIwghO4Utps4pENVVgcxw1EeKEgYqLzBYOX2yq58G7YEJhK2mqTQbuKQDnUI5+hDCIcJLeUV72Uv5PbK3nayd+ARgBGEinfs7SYO6VCn0H5y4d33sy/duMsmFMbxwOL8zP1eueGpfAONdXDPtf3VgrFzSIe6uYjJmOYE79GVHb4NWwJj6bebHN0f/Yv34J+/6JAOjXDx0kp/EPP8m7/yhrCd5fxwjsHKMZQWvh3XASYR2k1279wR9WsYDuk8+NSLA49DXcIg5tPnLxjEZCsuVk6ozMq38A2MJYV2k/MX3nFIh8YyiMkmTuWDlec2fpphlDlw6bgOMLLQbtL7+s1wDGIAABoDSURBVEzUL1zo7/53331OnzeNFgYxQyvKHbs/YRCT4MTi/Mxxr8Tkyvy3Sb83MLJHjuzvB/CYOaRDW7z69nv9PnCDmMmbE7yLU0r47nR7IXhPDTwBsIW79l3X/xGzP3vuvEM6tEoI3iGAv/b2e9649BisLEFZlW/93sBIQrU7VL1jFqrdX13S5037OEmfpLN5f7fByoKVFb4d1wFGEnu7Sejvnv3ucwOPQ5uEIUyDmEk4LXiXp6yBS5VvYGhhs0ns7SbhkM65C6qGtF+ofodK+G2fucYgZpyWFudn5lJ/EcpU+L81nW4v9HpPDzwBsIHpnTv6O71j5pAOsQmHeEIbStiGQlTmBO/ylfFXVlVvYGiPHL016nYTh3SIlZP0UVnO20wMVlagjPBtvzcwlCMHdmcH9+yK9sVySIfYhfaTU3//M4OY7bY6WHk69ReiKmX0fNvvDWwrVLsfuvtz0b5QDumQkjCEGSrgn//U1d73dlkN3supvxBVKiN8azsBthX7dhOHdEjN375xMbt46Z8MYraHwcqaFPpvR6fbE7yBbR3cc23U200c0iFVYRAz9IFrQ2m0UO0+LHjXp+jKt/ANbClUux89Gu8xHYd0SF3YgBLaUP7Hq7/Mdn40nk+3fn/nx+ZuuPq3zg080S7nFudn2v49tF7R4dtxHWBLYa3g7p07tvpHWsshHfgXYRjz1YhO0ofv5S8WZg0lMrGim7JUvoFN7b3+6v5BnVg5pANRs82NQhQWvjvdXjisMzXwBEDu0SO3RvtSOKQD0bPNjUIUWflW9QY2de+dN/cr3zFySAeSsC+/4g0TKTJ8+zgG2FA4IX/PF+NsN3FIB5Ki0MjEigzfPo4BNhTrCXmHdCA5sg4TKyR85x/D+AUJDIj5hLxDOpAcn/IzsaIq34I3MCDmE/IO6UCStJ0wsaLCt1+MwICH7/5clO0mDulAujrdnoIjEykqfPsYBrhCOCH/lQO7o3tRHNKB5Ck4MhGVb6AUsZ6Qd0gHkqfgyEQmDt8+fgHWCzu9Yzwh75AOYM6NSRVR+Vb1Bi4LO73v/fLN0b0gDukAuen8qjeMpYjw7eMX4LKw0zs2DukA6yg8MrYiwrePX4C+u/ZdF91Ob4d0gA3sHXwIhjNR+M4/dvHRC9BfKfhwhDu9HdIBNqDyzdgmrXyregN999xxU5RDlsvvqngDA+QfxjZp+NbvDUQ7ZJlFfCgImEyn21P9ZiyThm+/8IAohyxX7Y74LxbARGQgxqLtBJhIqAzHNmS5Xmip2Xv91QOPA0nz6T9jGTt8+7gFyPJgmoKH77bcALiCAiRjmaTyLXwDyQjV/SMHdnvDgVVTrnwzjknCt49bgKQ8ZPgSuJLwzcgmCd9+wQFJCcHb8CWwhkIkIxsrfOcfs0wNPAEQudDjfnDPtd5mINOCyzjGrXyregPJivGSJzCW6U63pxjJSMYN3z5mAZIV1g6msuUF2JbqNyMZN3z7hQYkLfR+G74EFCQZ1cjhO/94ZXrgCYCEhOCt/QTQisuoxql8q3oDZFn2lQO7DV8CchEjGSd8+xseQE71G3D1m1GME771NgHkwvDlvXfa/Q2JU5hkaNpOACZ0zxdvyqZ37vAyQroUJhnaSOHbxyoAg8Lw5UPaTyBl8hFDG7Xy7WMVgA3cte86w5eQrqlOt2cTHEMZNXz7WAVgE48e3b/xE0AKVL8Zyqjh2y8sgE3s3rnD8CWkS4GSoQwdvvOPU6YGngDgMsOXkCytuQxllMq3qjfANsLw5SNHb936HwJitC+/Ag5bGiV87x14BIABB/fs6g9gAslR/WZbKt8AJQiXL0MVHEiKrMS2hgrf+cco/jYHMKQwfHnPHTd5uSAthi7Z1rCVb8EbYET3fvlmw5eQFpVvtjVs+PaLCWAMhi8hLZ1uT8GSLQ0bvn2MAjAGw5eQHAVLtqTyDVCyR47sN3wJ6bAdji1tG759fAIwmRC8Q/83kAQFS7Y0TOXbLyKACYXNJ3uvv9rLCPGbzq+Cw4aGCd8+PgEqsfzO+1G/0A/f7bdTSISuATal8g00wp89dz674+H/FvWbEYYvjxzYPfA4EB2LKtjUluE7/9jERydAqV545ZfZN5/4m/5/hhAes4dcvoQUKFyyqS3Dt49NgLKFVpNQ8V5tOQkhPOb2E8OXkAT5iU1tF759bAKUam3wzvIw/p2//FHUL3oYvjy459qBx4F4dLo91W82pPIN1OZrSz/ot5qs9+BTL2bnL7wz8HhMHr77c37hQdyEbza0Xfj2CwcoRejtfnyL/u4QwGMW1g6GCjgQLeuN2NCm4dvHJUBZnn3pjeyrSz/Y8v89BPPwz8Us9H4bvoRoyVFsaNPw7RcNUIbQTjL73eeG+n+Ovfodgrf2E4jWlCvhbGSr8O3jEqBQYZjy3333uaG3mTz70uvRrx78yoHdhi8hXsI3A7YK3yrfQKG+9vjGA5ZbCdXv+C9fqn5DpGyNY8CG4Tv/mGRq4AmAMT345y9m3zv705H/x+cuvBP96sEwfHnvnXZ/Q4QUMhmwYfj2MQlQpNA6Mkn/9nee/lH0qwfv+eJN2fTOHQOPA6023en2FDO5wmbh28ckQCFWT8dPIrSdpDB8+ZD2E4iR6jdX2Cx8q3wDEwuheXaEAcuthNWDo/aLt81d+64zfAnxkam4wkD4zj8e8QsFmFg4HX+uwHaRSSvobfDo0f3Rf4+QGN0EXGEgfPt4BCjCZqfjJxFWD44ztNkmu3fuMHwJcZGruMJG4VvVG5jIdqfjJ/GtBKrfhi8hLq6Gs9ZG4dvHI8DYhjkdP4nQxhLWFsYsDF8+cvRWvwghHgqbXLZR+Pa3M2Aso5yOn0RYPRj74Z2De3b1BzCBKChsctkV4dvHIsC4Rj0dP4nwc6TQfhIuX4YqONB6Kt9ctr7y7RcHMJZxTsdPIvSUx354Jwxf3nPHTQOPA60Tju1Me9vINgjfPhYBRjbu6fhJldlb3hT3fvlmw5cQB90F9Kl8AxOZ9HT8JMLqwTDgGTvDlxCFvd5GsrXhO/84xEciwEjqPnzztaW/HngsNoYvIQoq3/StrXz7RQGMrO6tI2H1YNh+ErtHjuw3fAntti+/Ik7i1oZvH4cArRR6zmNfPRiCd+j/BlpNey8q30D7heAd++GdIGw+2Xv91QOPA60ha3FF+Pa3MaC1QutJ7KsHs/7ubx9SQovZKscH4dtxHSAGKaweDMOXRw7sHngcaAWFTi5XvoVvoPVSWT34kMuX0FZTnW5PAE/cavj2MQgQhW8+8UL0b6ThS2g1Bc/ErYZvfwsDohBO3IfDP7ELw5cH91zrFy20j8GNxF2Vf/xh7yQQjXD4J/bVg1l/+PJzA48Bjafynbir/CIAYhOC93f+Mv7DO2HtYKiAA60y7dhO2q5S9QZi9OBTLyaxejD0fhu+hNbR7puwqwxbArEK7SexC8Fb+wm0zrS3LF1Xpf4CAPH63tmfJrF68CsHdhu+hHYRvhMmfANRC+0nKVD9hlZZ9nalK4Tvc6m/CEC8wuGdFFYPhuHLe++0+xta4qw3Kl0hfMf/pxKQtFD9TmH14D1fvCmb3rlj4HGgcVS+ExbC9+nUXwQgbucuvJPE6sEwfPmQ9hNouuWVhVmV74RdtbIwe9rfwIDYfefpHyWxevCufdcZvoRmO+X9SdvqwKVfCEDUQttJKsOXjx7dP/AY0BiPeyvSthq+H0j9hQDi9/hz55NYPbh75w7Dl9BMZ/OOAxLWD98rC7Nh48kJvxCA2KVS/TZ8CY103NvC2j3fD1g7CMQurB4Mx3diF4YvHzl6q1/P0BwnVL3J1obvlYXZMHR52PAlELtvJXB2Pji4Z1d/ABOo3Vktvqy64sJlvvrGRyJA1MLqwQf/PJ3Ll6EKDtSmX9zMi5wweF5+ZWF2Sf83ELuwejCFwzth+PKeO24aeByozOF8tg76BsJ39kEAP+74DhCzELxTaT+598s3G76EehzX5816G4bv3GEDmEDMwurBF175ZRLvseFLqNzSysKsTgIGbBq+DWACKfim4UugeGbo2NSm4TszgAkkIJXVg8EjR/YbvoTyGbBkS1uG78wAJpCAVHq/Q/AO/d9AqQxYsqVtw3dmABOIXFg9GLafpCBsPtl7/dV+SUM5DFiyraHCd84AJhCtsPc7hdWDWX/3996Bx4CJGbBkKEOHbwOYQMxC8E7l8E4YvjxyYPfA48DYzMgxtFEq3wYwgaiF1pPzF95J4k1+yOVLKIoBS0YyUvjO/mUAc2ngCYAIfHXpB0m8jYYvoTAGLBnJyOE7+yCAz+UfsQBEJawefPalN5J4U8Pw5cE91w48DgzNgCUjGyt8527X/w3E6GtLf53M+/rw3Z8beAwYigFLxjJ2+M57m24feAKg5cLqwT977nwSb2NYOxgq4MBIzMAxtkkq36sDmHMDTwC0XDg7n8rqwdD7bfgShhaKj3MGLBnXROE7M4AJRCoE7+/8ZRqHd0Lw1n4CQ5vLi48wlonDd2YAE4jUg0+9mMzqwa8c2G34Erb3wMrC7CmvE5MoJHznDGAC0QntJ6lQ/YYtnVpZmL1/q38AhlFY+DaACcToe2d/mszqwTB8ee+ddn/DBsy4UZgiK98GMIEoffOJF5J5Y+/54k3Z9M4dA49DwgxYUqhCw3dmABOI0Auv/DKZ1YNh+PIh7SewlgFLClV4+M4MYAIRCsOXqawevGvfdYYv4QMGLClcKeE7ZwATiEY4vJPK6sHg0aP7Bx6DxBiwpBSlhW8DmEBsvvP0j5JZPbh75w7Dl6TMDBulKbPybQATiEpoOwntJ6kwfEmiDFhSqlLDd2YAE4jM48+dT2b1YBi+fOTorQOPQ+QMWFKq0sN3ZgATiExK1e+De3b1BzAhEQYsKV0l4TtnABOIwrMvvZ7M6sEsv3wZquAQOQOWVKKy8G0AE4hJSqsHw/DlPXfcNPA4RMSMGpWpsvK9OoB5fOAJgJZJbfXgvV++2fAlsTJgSaUqDd/ZBwH8hAFMIAZh9WAq1e/A8CWRMmBJpSoP37njBjCBtgvB+1tP/E0y76PhSyJkwJLK1RK+8492DhvABNourB584ZVfJvM+PnJkv+FLYmHAklrUVfkOAfxcHsABWu2bCVW/Q/AO/d/QcucMWFKX2sJ39kEAP20AE2i7sHrwe2d/msz7GDaf7L3+6oHHoSX6n74bsKQutYbvzAAmEImUer+z/u7vvQOPQUscN2BJnWoP3zkDmECrhdWDD/55WpcvjxzYPfA4NNyJlYVZBT9q1YjwbQATiEFqqwcfcvmSdjm9sjCr1ZXaNaXybQATaL0QvFOqfofgHU7PQwvIGDRGY8J3ZgATiECofp+/8E4yb+VXDuzODu65duBxaBADljRKo8J3ZgATiMBXl36Q1Nuo+k3DGbCkURoXvnMGMIHWCqsHn33pjWTewLB2MKwfhAYyYEnjNDJ8G8AE2u5rS3+d1HsYDu8YvqRhDFjSSE2tfBvABFotrB4M/d+pMHxJw8gQNFZjw3dmABNoubD5JKXVg4YvaQgDljRao8N3ZgATaLEQvL/zl+lUv4NHj+4feAwqZsCSRmt8+M4ZwARa6cGnXkxq9eDunTuye++8eeBxqIgBSxqvFeHbACbQZt984m+Sev/u+eJN2fTOHQOPQ8kMWNIKbal8G8AEWut7Z3+a1OrBMHz5kOFLqiUj0BofatMXGwYwO93eA1mW3TfwJLTE8ruXkgpifOCbT7yQPXz33mRejakdH+5Xv88l1HJDbQxY0iq/0ca3q9PtPZll2aGBJwCA1Mzp86ZNWtN2ss6cAUwASJ4BS1qnlZXv7IPq974sy54Jn24OPAkAxC4MWN7uXaZt2lr5zvIdnnMDTwAAsVs2YElbddr8zv3zD5744VX7/zhU778w8CQAEKsD+RY0aJ3WVr5XrSzM3p9l2amBJwCAGM25YEmbtT585wxgAkD8lgxY0natHbhczwAmAETt7MrC7C3eYtoulsq3AUwAiFcYsLTZhCi0euByPQOYABAlA5ZEI5rK9yoDmAAQFQOWRCW68J0zgAkA7WfAkuhEM3C5ngFMAGg1A5ZEKdbKtwFMAGgvA5ZEK6qBy/UMYAJAKxmwJFrRVr5XGcAEgFYxYEnUog/fOQOYANB8BiyJXrQDl+sZwASARjNgSRJSqXwbwASA5jJgSTKSCd/ZBwE89H6fGHgCAKjT7SsLs8veAVKQTNvJWp1u7xkbUACgEeb0eZOSpCrfaxzOsswKIwColwFLkpNk5TszgAkAdTNgSZJSrXyvDmAeH3gCACjbcv4pNCQn2fCdfRDAlwxgAkDlDrtgSaqSbTtZywAmAFTm+MrCrMIXyUq68r2GAUwAKN+S4E3qhO8P2k9We8/sGAWAcpi1InmZ8P0vDGACQGmW8z5vRS6SJ3yvYQATAEphwBJyBi43YAATAApjwBLWUPnemAFMAJicAUtYR/jegAFMAJiYWSrYgPC9CQOYADA2A5awCeF7CwYwAWAsBixhEwYuh2AAEwCGZsAStqDyPRwDmACwPQOWsA3hewgGMAFgW2alYAjC95AMYALApgxYwpCE7xHkA5hLrfmCAaAaBixhSAYux9Dp9p7Psmxf675wACieAUsYgcr3eG7X/w0ABixhVML3GPKetttb94UDQHHMQsEYhO8x5QOYc6384gFgMqEINWfAEkYnfE/AACYAiZrLi1DAiAxcFsAAJgAJeWBlYfZ+bziMR+W7GAYwAUjBKcEbJiN8F8AAJgAJMOsEBRC+C2IAE4CIGbCEggjfBTKACUCkDFhCQQxclsAAJgARMWAJBVL5LocBTABiYMASCiZ8l8AAJgARMMsEJRC+S2IAE4AWM2AJJRG+S2QAE4CWMmAJJTFwWQEDmAC0iAFLKJHKdzUMYALQBgYsoWTCdwUMYALQAmaVoALCd0Xy3rnjSXyzALSNAUuoiPBdoZWF2RMGMAFoIAOWUBHhu3rH84/2AKAJwoDlKe8EVMO2kxp0ur3pLMvCBpSp5L55AJokDFge9o5AdVS+a7CyMHsuyzK/2QFQp3MGLKF6wndNVhZmTxvABKAmYbDysAFLqJ7wXSMDmADU5LgBS6iH8F0/A5gAVOnEysKswg/UxMBlAxjABKAip1cWZh19gxqpfDeAAUwAKuDPGmgA4bshDGACUCIDltAQwneDGMAEoCQGLKEhhO/mMYAJQJEMWEKDGLhsIAOYABTEgCU0jMp3AxnABKAA/iyBBhK+G8oAJgATMGAJDSV8N5gBTADGZMASGkr4bj4DmACMwoAlNJiByxYwgAnAkAxYQsOpfLeAAUwAhuDPCmgB4bsl8gHMB1J/HQDYkAFLaAltJy3T6faezLLsUOqvAwBXmNPnDe2g8t0+cwYwAVjDgCW0iMp3C3W6vX1Zlj1jABMgeQYsoWVUvlso3906l/rrAJC4ZQOW0D4d71k7/fMPnvjhVfv/OHxy8YXUXwuARB3It2EBLaLy3WIrC7P3Z1l2KvXXASBBcy5YQjsJ3+1nABMgLUsGLKG9DFxGwAAmQDLOrizM3uLthvZS+Y6AAUyAJIQBS5tNoOUMXEbCACZA9AxYQgRUviNiABMgWgYsIRLCd3wMYALExYAlRMTAZYQMYAJEw4AlREblO0IGMAGiYMASImTgMlIGMAFaz4AlREjlO2IGMAFay4AlREr4jp8BTIB2MWAJETNwmQADmACtYcASIqfynQADmACtYMASEiB8J2JlYTb0fp9I/XUAaLDbVxZml71BEDdtJ4npdHvP2IAC0Dhz+rwhDSrf6TmcZZnVVQDNYcASEqLynSADmACNYcASEqPynaB8APN46q8DQM2W808jgYQI34nKP+I0gAlQn8MuWEJ6tJ0kzgAmQC2OryzMKoBAglS+MYAJUK0lwRvSJXwnLt8pezjvPQSgXGZuIHHCNwYwAaqxnPd5K3ZAwoRv+gxgApTOgCVg4JIrGcAEKIUBS6BP5Zv1DGACFMuAJXCZ8M0VDGACFMpMDXAF4ZsBBjABCmHAEhggfLMhA5gAEzNgCQwwcMmWDGACjMWAJbAhlW+2YwATYDQGLIFNCd9syQAmwEjMzABbEr7ZlgFMgKEYsAS2JXwzlHwAc8mrBbApA5bAtgxcMpJOt/d8lmX7vGoAVzBgCQxF5ZtR3a7/G+AKBiyBoQnfjCTvZbzdqwbQZyYGGInwzcjyAcw5rxyQuFCMmDNgCYxC+GYsBjAB+sH7rJcBGIWBSyZiABNI1AMrC7P3e/OBUal8MykDmEBqTgnewLiEbyZiABNIjJkXYCLCNxMzgAkkwoAlMDHhm0IYwAQSYMASmJiBSwplABOIlAFLoBAq3xTNACYQGwOWQGGEbwplABOIjJkWoFDCN4UzgAlEwoAlUDjhm1IYwAQiYMASKJyBS0plABNoKQOWQClUvimbAUygbQxYAqURvimVAUygZcysAKUSvild3jN53CsNNJwBS6B0wjeVWFmYPWEAE2g4A5ZA6YRvqnQ8/0gXoGnCgOUp7wpQNttOqFSn25vOsixsQJnyygMNEQYsD3szgCqofFOplYXZc1mW+UMOaIpzBiyBKgnfVG5lYfa0AUygAcJg5WEDlkCVhG9qYQATaIDjBiyBqgnf1MkAJlCXEysLswoAQOUMXFIrA5hADU6vLMw6/gXUQuWbWhnABCrm9xygVsI3tTOACVTEgCVQO+GbRjCACVTAgCVQO+GbJjGACZTFgCXQCAYuaZROtxcGL5/JsmyfdwYoSAjeWtuARhC+aaROt/ftLMu+4d0BJrCct5qoeAONIXzTWJ1u7wtZlj2WZdm0dwkYUQjcD+QblQAaQ/im8Trd3qEsy45kWXbIuwVsIQTt00I30GTCN62SV8OnVcOBNcKg9jmbTIDGy7Ls/wfW6zdEz68Z4wAAAABJRU5ErkJggg==;" vertex="1" parent="1">
                    <mxGeometry x="579.4" y="616.5" width="39.6" height="32" as="geometry"/>
                </mxCell>
                <mxCell id="47" value="" style="shape=image;verticalLabelPosition=bottom;verticalAlign=top;imageAspect=0;aspect=fixed;image=data:image/png,iVBORw0KGgoAAAANSUhEUgAAANQAAADuCAMAAAB24dnhAAAAilBMVEX/nQD/////lgD/lwD/mwD/mQD/7tj/7t7/ngD/lAD/+/T/8+T/+O7/79z//fn///3/wnr/tVn/z5f/4b7/rUL/2Kz/y4//3rj/0p//r0j/5cj/1qf/6tL/wHT/6M3/9en/t1//pCH/qTT/wHX/xob/vGr/pin/slD/tlz/yIn/rDz/0qL/pSX/u2W+KjuXAAAMi0lEQVR4nO2d2XrCOAxGiS0zCWvYSqGlJZSlLeX9X2+SsNMskiwHOt/8N71qkkNsR5Ilq+b9B1W79wO40P9Qf0WVQLXqo21/uexvR/VWFfdzDtUdfERGa5Mq/huFg67rezqGaoegDdQuBEZD2HR7V6dQ9c0N0Ymr13Z5X4dQrVWQQXTgClYOZ5c7qL4xeUiJjO47u7UrqEGki5AS6Wjg6OZuoJoTlTvyLsagGrpZMVxAdUKNQNpjhQ0HD+AA6gUKJ9O1DGzln0Ac6i3CvqbDy9LRm/QzCEO9zzGT6XYMfgpPLVGo7pMmjLyzjPoSNZ0kocZ+6TKei1UbCT6IHFR9SB95Z4H+fhV7FCmoRoFNhMQKdlKWkxBUiU2Ek5jlJAI1LbeJcNK+iOUkAIWziXAC9S3glFhDdZZySHusD2vLyRZqRLGJcDLm+a5Qb2uaTYRTbDlN7wb1vrNdxnOxVM/GcrKAYtpEOBm95FtObCgLmwiJBWzLiQnVtrKJcAK9YFpOLKjGzD1SiqXmLMuJA/UsYRPhZPQTY2rRoaZE19ZS2h87h2puqhl5ZzEsJxqUtE2ExAo+aFOLBDWqVTaZrkW0nAhQr05sIpxA+wTLCQ1VFO6vBCvYoC0nLJRTmwiJpUPk8o6DGri2iXDCWk4YqLaga2un2HLChHPLoaqyiXAC9fluD7WtzibCCWE5lUBNf+63jOeq1HIqhGr2HmnknRVbTnUmVOdLPdjIOwuCWYHllA818h8WKZEx+eHcPKjXxQNOpmvlh3OzoVqrx5xM1wK1yXZKMqFEwv1VKLacOjioB7GJcDLmBQElGe6vQqDXvyynW6i+kzjyWfIXj6fWrlME1foWHnlgjFbGjxbfw8lkOFxEoJTOTC2zkfFf86Hakp8mMDoww9l28E/j/EN2G636YBQOjRIlA/2SBzWVG3qg9c9yXOCqtkczXwsO9WCZDfUqtUKANvNxuYPgNUefRoxLfWVBNWXGA5hgMkLvBTbGm0BoHKrzCDxBdXyJa4OOnonh7/cvX+Z1Bael/QTVE1gjIBhydte7o4XEyIfacUE6Qo2U/UXVgr2rOf0WwDKra6iG9cCOv+xWG7VTAbcgmF5BfdgOPot9v6NerM1oWF9CNQPLq6lMa5moxs52DKrxBdTK7jfSa6Hc+bfI7kFgcYZqWFl8EIQySLG6K7sxo+onqBcbKAN2mRw3GlutFyY8QU0srqM3wknYTZshCP4RqmFxFcGhd1S3ZzFw0vGXQE35F1G2uVGZWvItAbM9QD1x3xRoR9UafPsmtSoSqDlzSoGWy+W90Zi7CKbf3wQq4kGBcVjZxXZY9QGKN/pAFwbpbTVgjsCgs4fivWolXqJxQ8V8rKYFlHJV0XUSb7VI1nQuVJARGJXWkvOpsYDS8t/cDHG8cT6UmTAesTGmzsIuY11mQ0GNYe+9aB1QUy2b9AHIhgoYi/k4yQKCgGhW0RcLLhSrzuRnP5IC4v/OqdOKCQXfDKZTwCCgxTLI4UgmlObkwZ89AeLYpVoWPCj9xGDyBicoiJpHIeLt5HWdBbX3Lcl6O69joI7SG0SIukV7VSwopnn0nnkToxEz7Im0rnOggPPZTZQz4dVk+k+OjlO3S1orOFCK62985jwZaJWnyWHOkYJdDCgzZzJ5I7pxAMfBSXlVDKiA7ey+c0zuw6ea8oPQoeCTy8QMLh48HMKrokMpi0jLgBWI2+/O9PH/S4Y6xN+ZYsV3ABKHgBBuJUNpeoHMWVNeeMj0kn/Gb8uQoYzFAQvs+GS6P/2GHn9UKPNhwcTeooFN8v/opYIKxf7wsuNdqXTyDUaHxolQTFM2Ud1mAyydyegNXCKUWZY9e54aNauNtPQLvEZeggjFD8kOrXZy91BL5DVoUADcDXia7/BL+w8JdhONCLVhMtXtkmlAp/G4DjKrkwbFPlDhhz+hAIw6FhcNXUBxd9gIdts1jtGBv9ue3ALkok6E4jG1yExgtNb+Inx+u4pgICcVCYoV7fOIyTRJ3i0Mw9FbRpzpHTc1SVCGt8/RRq8SyQv6Xg6aufalg+GneRtSSNcQtB72SyYt7lI0KFayzituFATfL+WBzRD1qkhQASqceqsN4tc1eoWKfPTloVi+FOK7C+oTmUmMiwdQoCBiMHm70h+XkDSDcxRJUEMGU7P0RVESTHALKQmKY/mVT21KZL6FmiYkKEbEr1M6XkgB366DOUX35cutNUPZEO/Kf6dAUb++3VJ/V5MMf9zuB9XzXZXe90qlEXDqioqKhlKjSXpNSp8ofQZqbNQJVDycCD7VuPRFrWlMuNgfY9eDMLHEX5STObX/H2yUVnxGuVj9jtJD3MQq/VnJuw0dcYvirNv602yVRiboxiTO9eWm8SCS0cvTvzT5nPRXl1DxP+7K/JDvssHHCI3Kux7XKhuC5Ymi5qvwAll6lncSrwVB0UONywdKQD9i0YE7fyv9k2vhIrw5syMzuQi8/BIEs+zFfYw4iY2Tj+EiQvtbBvoZC0aIWKQ4GU7lbrQIVA107elmbuDO8OFU8yDzMKyh0kr53uj98L4a0xBQdSesKM5XNcPv8IRaRZvPXW/ygz49gxXtLf307SUDVUuPOzGUo044MURs0osYFFGGk4WLTW26GxTnbGNsIfydoHibQtiUlztBsfLa37D7XPeB4mWs4gy/2r2geBmr6LX1LlDQ4zDh0zrvAsVLRcNs3p2vXzUU70URisPuAcVLLUYvE3eB4iU4UQ4BuQMUb+lDGuipqocyxI2Tw4uiJM3cAYrV0QKbv5iqcihekRytSqRqKGZmMa1+r2ooXpHclPZ4FUMZ1neXWiJSMZRmZTdRjzqoFoq+zZGInFVcKRSzTIl8PmSlUCx/l3HyW5VQinX8H6M+qUIozi6H57UZ2d/VQfGyBVkHrlYGBYYzoboLTt1LZVABy5TgHSJ7hLI/rbXkPqwqkRWvlke191BWJVvl0qxispBZn5RsJidQ2CIynjTLMeQy1QJvD2V5tmmxNKsynTn2Du6N1aGFCLGYunN2bRzsDlC8qnaUWGOvseb/ymnpWnoQqDMoxVkj6jbtF9K4YnpkK7Iyjip6LnGikc1BtOB3j1BbJ6/KACcaO7P6au4r4VMoeokdQnrCOIXt1bJfxT6qvT+wmnziV6mAeuhYKtsuoIdc4z1UXdj8A71m7NhMrZv0XB0tLtKB4CTQEeM0jmbPumXmMWRwgGKcDph3YR18M5BaoUDLzGN1/7GxgmV9+0l+D1Fd+EvvoUT7ODPzrqGErFoo6h+Xp/pKpLEp+LctMOIBKEJl9JxYZjqeCPVqDU6fxXNbmamQrwgaQvRX9y0U65ZzccTjRQMg/tkyNwKj/HBa+ultjT8iJdaw6fK7eAEVU8m1ajLaLL4GufGW9jiMRJtrBZdbX5dQsQ8iadmm1f2bWX88bbcanXgSdzuNRns67s+GWranVmw6XwXqr6C8tnTjvfRYCa3iBduPIt8HnTQ/k+5+Fv9814vTNVSSq+zIDXHVpi5ZmYY335FbqAdqs4xURpeeX1B/rPkjBOHvZTYD6i+16VSZfdszof5IQ9WajrKtl2yoP9H61uTWPudBPXyTYtCz3LKyfKjHbietJgWpWwVQj9v4u6yfeSHUg7ZoL2qPjYHyvO2jLe8QrMoc0VIorzF7pDEIurjlPBLqoSynkslEgHoYy8moJ1SREg4qiTbdfWrhT1jCQsWWk5xfzELSC/SZnWio2HJa33F5J7UBJUDFllPtTmPQ6CWl4o8E5XVstyVYgqBHy5ihQcWW06ZqLMhzMOSgYsspqnRqGaBndNKhkjMUKptaoDK8dSdQlVlOsYPByudkQcWW07ACLB0xm+ExoTxv7NpyMqw2V3ZQji0nUCt+S10LKO9958pyAjW0aZdpA+V5b24sJ5yD4QoqtpxAfAwaXkWSIJTXEd5SiCcTq3JMFCq2nAQdY9BrgR7BAlCp5STDZHxWocGtRKCEthSM/rJo8XIhISivYe0Yg+qxCqwyJAXleXUryyn21lnHfGdKDsrKcjIg2R9YEsrrMi2n2MHg9gzJlChUbDnN6WMwZzvQQsJQseVEdIwZ3nqpxKE874ViORl2D5QCOYCKLSfsywL1wXcw8uUCCms5xQ4Gu+1iodxAed6g3HJie+ulcgWVnERbOLVKtwMt5A6qcEsBsR1oIYdQseW0yd7fN6rnZjId5BTK817nWl8njyXpjSubAARCjqHi9X3cgyTHz+xT/7S/G8j4FwVyDpWoOdiG881mvtxOpbyLQlUCVbX+h/or+k9C/QtwXMc4k74PYQAAAABJRU5ErkJggg==" vertex="1" parent="1">
                    <mxGeometry x="643.54" y="409" width="26.72" height="30" as="geometry"/>
                </mxCell>
                <mxCell id="48" value="" style="shape=image;verticalLabelPosition=bottom;labelBackgroundColor=#ffffff;verticalAlign=top;aspect=fixed;imageAspect=0;image=data:image/png,iVBORw0KGgoAAAANSUhEUgAAAt8AAAJSCAYAAAAbJKnCAAAACXBIWXMAAC4jAAAuIwF4pT92AAAgAElEQVR4nO3db4zd9X0n+l85aZI63TDEpmlIkAcudcpWGxsZNeNKyCHsoygIe0eiz2JPIp+rrHZonDxaXYl/9+mFuLF0I80IGProLtJZHFGt9kEpZveqeKNGmK4qUpot9iUJNOBkAgaC6aRX38Nv3PGc+XP+/P5+v6+XZCU6h8Qz5xj77c/5/PmNDKBlOt3eVJZl+8JXvbIwe9r7B0BbCN9A43W6vRC0j2RZ9oXV0L3OcpZlZ7Ms+16WZadWFmbPDfwTACM6dvLMdJZl06v/q8X5GX/ZZ2LCN9BYnW7vaJZlf7JJ4N7KUpZlDwjhwKjywH0o/71net3/PPxF/1SWZY8L4oxL+AYaJw/d923wB9+oTuch3B+SwKaOnTwzlQfu1U/YhnEuD+J/ujg/4y/6DE34BhqjwNC9nhAODDh28kwI3HdlWXZ04MnRhLa3x8OnbovzM8teabYifAO1yocnj27yEW/RhHBI3LGTZ1ZnSMLvO1MlvBqhGv69xfmZpYFnSF4mfAN1yUP3N/LQXcYfgFsJ4fvxlYVZfzhCArbp4y6L/nA2JHwDlao5dK93Lq+EC+EQmTH7uMuiP5zLhG+gEp1ub3pNe0ndoXs9IRwiUWAfd1n0hydO+AZKlYfu+xr8B+Fa/RCe7wr3hyK0RAV93GXRH54g4RsoRctC93oheP9plmUnhHBoppr6uMuiPzwhwjdQqJaH7vWEcGiQhvVxl0V/eOSEb6AQnW7vC3kF6lCEr6gQDjVqQR93WfSHR0j4BiaSh+77Iq5Cred0PVSgxX3cZdEfHgnhGxhLgqF7PSEcChZZH3dZ9Ie3nPANjCQ/AR9zv+WohHCYQCJ93GXRH95CwjcwlDx036catan+H4BO18NwEu7jLov+8JYQvoEtCd0jO51XwoVwWEcfd2X0hzeY8A0MyE/AHxK6JyKEgz7uuukPbyDhG7gsD93faOgJ+LYKf+A97nQ9KdHH3Uj6wxtC+AaE7mqcyyvhQjjR0sfdGvrDayR8Q8KE7loI4URFH3fr6Q+vmPANCYrsBHxb9UN4+IPP1UzaRh93lPSHV0T4hoQI3Y3kdD2toI87KefWtKXoDy+Y8A0JELpbQQinkfRxJ+9s/nvTKf3hxRC+IWL5Cfg/yatVtIMQTu30cbOJ1baUUxs/zTCEb4hQHrrv89Fw6zldT2X0cTOC5TVrC8964UYjfENEhO5oCeGUYk0f910+IWNM+sNHJHxDBPIT8Iag4ieEU4g1fdyHtJVQIP3hQxC+ocXy0O0EfHr6H/c6Xc8o1vRxH/J7BhXQH74J4RtaSOgmdzqvhAvhbGhNH3cI3fs2+megZPrD1xG+oSXya5SHhG42IIRzmT5uGiz5/vBM+IbmcwKeEYTw/bjT9WnSx03LJNsfLnxDQwndTOBcXgkXwiOnj5tIJNUfLnxDwwjdFEgIj5A+biKWRH+48A0N4QQ8JeqH8PCHmquZ7XXs5BkXa0nJubwafn9s37PwDTUTuqmQ0/Utdezkmcf8HkGiQgV8LqZKuPANNRG6qZEQ3iKCN/R/z7ohlsFM4Rsqlp+A99ExTSCEN1y+weTJ1F8HCNucFudnbo/hhRC+oSJ56L7PCXgayun6hsn3dT9viwlcdvvi/Ezr7xlcNfAIUKgQujvd3jNZlj0jeNNgoa3h5U6391jeEkX9viF4wxUei+HlUPmGkuQn4I8I3LSUSniN8nWCz1s3CgOOL87PnBh4tEWEbyhYHrqdgCcW/Z27TtdXy5AlbKr1w5fCNxRE6CZyp/NKuBBesnyf9zNRf5MwmaXF+Zm5tr6GwjdMIL9GeUjoJiFCeMmOnTzzvMuVsK1b2rr7W/iGMTgBD/0Q/rjT9cU6dvLM0ViGyqBkrV09KHzDCIRuGHAur4QL4RPKVwu+7PcWGNrhxfmZU217uYRvGILQDdsSwid07OSZ+/MWNmA45/L2k1YNXwrfsAUn4GFk/RAetqS4mjm8fLXgy235eqFBHlicn7m/TW+I8A0bELphYk7Xj+DYyTNP5sPbwGiW8+p3a24SCN+whtANhRPCt2G1IEysVasHhW/IT8Dn/dwqT1AOIXwTx06eedmqUpjY7YvzM61YgSp8k7Q8dN/nBDxUZjm/mul0/QfBOwxyf3vgCWBUrVk9KHyTJKEbGmEp5RButSAUbm5xfqbxG5eEb5KSn4A/InRDoyQZwo+dPPPtfIUpUIzwydoNTV89KHyThDx0OwEPzbaUX82M/nT9sZNnwvn45weeACbV+NWDwjdRE7qhlU7nlfBoQ/ixk2ee8QkclOaGJq8eFL6JktANUYgyhB87eSZsVXpy4AmgKKcW52cON/XVFL6JhhPwEK0Qvv90ZWH2VAzfoNWCUInGrh4Uvmk9oRuScS6vhDd+m8Fmjp08c3/+qRxQrrOL8zO3NPE1Fr5pLaEbktXKEG61IFTu+OL8zImBR2smfNM6a07AH/KHGCStVSH82Mkzj2VZdnTgCaAsjVw9KHzTGmtCtz+8gLUaf7r+2MkzYbPJMwNPAGU7sTg/c7xJr7LwTeMJ3cCQGhvCrRaEWjVq9aDwTWPlJ+CPCN3AiBoVwo+dPBN+D3ts4AmgKqcX52dub8qrLXzTOHnovk+VCJhQCN6n6jxdnw9ZPm+1INSuMasHrxp4BGoSQnen23sm74sUvIFJTeWfnL3c6fYey1vYqvYNwRsaoTGfPql8U7tOt3coXxcocANlW6qqEn7s5JnpvOptKxM0wwOL8zP31/2VCN/Uxgl4oEYhhD9e5un6YyfPPJmvRAWaoRGrB4VvKid0Aw1yOq+EFxrCrRaExlpanJ+Zq/OLE76pjNANNFihIfzYyTOh3WTfwBNAE9yyOD9ztq6vQ/imVE7AAy0TwvefrizMnhr3y7ZaEBqv1tWDwjelELqBlhvrdH2+WvBlv+9B480tzs+M9O93UYRvCiV0A5EZKYQfO3nm2/nvgUCzncvbTyofvhS+KcSaE/CHhG4gQtuG8Hy14MsDTwBNVcvqQeGbiawJ3U7AAynY9HT9sZNnHAiDdlnOq9+VXsAVvhmL0A0k7ooQbrUgtFblqweFb0YSTsBnWXZE6Abo64fwr/6bTx+xRhVa6/bF+ZnSDm6t96GBR2ADeei+z0eqAFeY+oNdv32flwRaLQxK31LVN6DyzZaEboDNfbhzVXb3Zz/Z/0+g1SpbPSh8s6FOt3coXxcodANs4rbPXJP93jU7Nn4SaJPQQnZDFasHtZ1wBSfgAYbziY/+puAN8Vi9U1L66kGVb/qEboDRfOnGXdnvfuwjXjWIyw1lrx5U+U6c0A0wut0f/6jgDXEKw5eHy/zOVL4T5AQ8wGTu/uzvZr/94Y5XEeJU6upBle+ECN0Ak7vlkx8XvCFuj4X2k7K+Q5XvBAjdAMUIofvQTb9jtSDE7/ji/MyJMr5L4Ttia07AHxK6ASZntSAko7TVg9pOIrQmdDsBD1CQT33sI4I3pGMqz1LHi/6OVb4jInQDlMdqQUhS4asHVb4jkJ+APyJ0A5QjVLwFb0hSGL68vchvXOW7xfLQfZ8T8ADlCcOVYcjShhNI1uHF+ZlTRX3zKt8tJHQDVOcPdv224A1pC4d3CgvfKt8t0un2DuXrAoVugAqE0B0O6gDJe2Bxfub+Il4E4bsFnIAHqMcdu3f2T8kDySts9aC2kwYTugHqE1YLCt5AbipvP5mb9AVR+W4goRugfod+73eyT3z0N70TwFq3L87PnJ7kFVH5bggn4AGaIwxZCt7ABkJxdKLwrfJdM6EboFnCasG7P/vJ/n8CbGBucX5mafDh4QjfNRG6AZrp85+6ul/5BthEuHh5y7jDl9pOKrbmBPwhoRugWcJqQcGb7ez4SCe7ftfHLv9Tez798cv//cJb72UX3nyv/9/fWPPficp0XkAda/WgyndF1oRuJ+ABGupLN+5yRp4rhKAdwvVnP/3x7PpdO64I2sN65Y13slfeeDt76SdvZX/3kzcF8jgs59Xvc6N+NyrfJRO6AdohrBYUvOux8B8+P9HP+857K9nZl3+ePffiG/1wO6kQuPfd+Insj35/11hhe70Q2sOPP/r9a/vPhDD+Vy++nj33w9f7XzuttLp68PCoX7zKd0k63d6+vJ9b6AZogXDJ0hn5ekwavtf6T//9fPb0C68NPD6MnR//SHbnH376ckiuwl/98PXsqe//RDW8vUZePajyXbBOt/eFvNLtBDxAS9zyyY8L3pH449t29/uuz/7DL4b+hkLonrvjxkKq3KMKQT/8CH9heOr7P1YJb59Q/b5llK9a5bsgQjdAO1ktWL8iK99ZPvT4Hx8/O/D4eqG95M4//Ex2x97fHXiuDiF4Lz39v0b6iwONMNLqQeF7QkI3QLvd9plrst+7Zod3sUZFh+/goSdf3LL/e9+N12RH7/jf+gG8aUIVPLTP0Bph+PKGYVcPajsZkxPwAO0XrlgK3nEKLSQbhe8Qtu++bXelfd2jCpX4MKD5f/+Xl7ShtMPUKKsHfcY2ohC6O93ey1mWPSZ4A7TbzHVXewcj9dlP/6uBbywE2m8d/teNDt6rwl8ewtfaxMo8G7rv2MkzQ+VC4XtIQjdAXHZ//KNWC0Zs/fBkaDMJYTYE8LZY/cuCAN4ajw3zhQrfWwgn4Dvd3v1CN0BcwnDl5z/lyHDsVoP2H918bfbvv7SnlSE2fA/ha6cVvnDs5JltZwD1fG8ghO68d+dPnIAHiE84IW+1YPxC9TsE76ZsMxlX+D7CCkVDmK0QirU3bPWFqnyvsVrpzrLs5XyYUvAGiEwI3X+w82Pe1gQ0aY3gpML38dka9pAzsuljJ898Y6v/kfCdn4DvdHvfFroB4nfL73zcTu9ExNYrffTf3qj/ux3C8OWmWTL5333ySvfzeZvJpi8UAO33qY99xGpBWmvnv/pIdsfeT3kDm28qv3y5oWTDd17tfl6lGyAdt3xycP0ctMmdf/jp/jl8Gu/osZNn9m30RSYZvjvd3r682r3hiwJAfELF22pBYhACOK2wYfU7ufCdbzJ5RrUbIB0frBZ0UIc47LvhE3q/2yGsHjy0/itNsfL9pOANkJawWtCQJbEIwftAC6500jdQ/U5qz3en2wtDldsuPwcgHmG14C2/o9eb0Vx4673sldffyV55453snff+KfvxG+9c/t+HvdshAIf/rOti5r/d97vZ0y+8NvA4jRNWD96/OD9z/+oX9hupvEd5u8nLqt4Aablj987+KXmaa+E/fL4RX1sI2n/14uvZ2Zd/kV14872B5zcShh//6Pc/OORTdSvI//n//M/+10zjLYd578X5mXNZYpXvo4I3QFrCakHBm+289JM3s6e+/5Ps737y5jb/5KAQ0p/6/o+zp194tfKjPvtu/ITw3Q5T+Xa9uSyxnu8jA48AELXbPnONN5hNheD60JMvZv/Xky+OFbzXeue9lf7596Wn/2HgubLsu9Gv7xYJqwf7rc9JVL7DTm9rBQHSEireod8bNhIq3aFiXbTQtvJbH+5kf3zb7tJf99BvHlpdQvCnFUIh+HQqlW/BGyAxdnqzkTBIGXqlywjeq8Ig5Nl/+MXA42W4ftfHvM/t0V87mEr4PjjwCABR2/lbv+kN5gqht7uqIcX/9P+eH3isDGHjCq0xdezkmalUwrf1ggCQsL/64ev93u6qWjTCIGb4OctW16pDxpZM+NZ2ApCY91b+2VtOX2gBWfqL6gYhV4W+8rKFVYe0R1g3GH347nR7qt4ACfr5r973ttNX1zq+UP0u++dW+W6V/p7vFCrfwjdAgn7+7iVvO7V7acIVhkTlbJZI+DZsCZCgCyrfNEAVVffPGrpsixeyRMK3fm+ABF28ZPcx9Rv2TD1JiL/y3en29jkpD5Cu194WfKjXK2+87R1gVRI936reAAl7S/Wbmrk+yarF+Zkker71ewMk7OL7gg/QCKdXv4jYw7dNJwAJe+2ithOgEc6tfhHRhu9Otxd6vacHngAgGTaeAA1xfvXLiLnyreoNkLhLK7/u/wCoWRJtJ/q9AXDpEmiC+NtObDoBILjwrvAN1Gp5cX4mifCt7QQAlW+gbmfX/vxRhu9Otyd4A9Dn0iVQs/jDt5YTAFa96solUK/za3/2WMO3YUsALlP9BmqUROVb2wkAl9n3DdRlcX7m9NqfOrrw3en2wmGdqYEnAEiWoUugJufW/7QxVr5VvQG4ws/fveQFAeqQRPjeO/AIAEl7S883UI9n1/+sKt8ARE/bCVCTs+t/2qjCd6fbm7JmEICNvGblIFC96NtOBG8ANqT1BKja4vxM3JVvLScAbObi+8I3UKmB4J1FGL4d1wFgQ69d1HYCVCqJ8K3yDcCGHNoBKnZ+o58umvDd6fb0ewOwqUsrv+7/AKjI6Y1+mpgq36reAGzJykGgQgObTrLIwrfjOgBs6cK7wjdQieXF+Znow7fKNwBbUvkGKrLhsGUWS/judHvTWZZNDzwBAGtctOsbqEbc4dtxHQCG8aorl0A1Ntx0kkUUvu33BmAoqt9ABaKvfOv3BmAo9n0DZVucn9lwzWCm7QSA1Bi6BEq24ZaTVa0P351uT9UbgKH9/N1LXiygTHGHby0nAIziLT3fQLme3er/PYbw7bgOAEPTdgKUbNNhy0zlG4AUvWblIFCeeNtOOt1eGLScGngCALag9QQoy+L8TNSVb1tOABjZxfeFb6AUWwbvLILw7bgOACN77aK2E6AU0YdvlW8ARubQDlCSTc/Kr2pt+O50e1PCNwDjuLTy6/4PgIJtetlyVZsr37acADA2KweBEmy56SRrefhW9QZgbBfeFb6BQi0vzs9EHb4NWwIwNpVvoGDbDltm2k4ASNVFu76BYsUbvjvdnuANwERedeUSKNa2m06yFle+9XsDMDHVb6BAUbed6PcGYGL2fQNFWZyf2XbNYKbyDUDKDF0CBdl2y8mq1oXvTrc3nWXZ9MATADCin797yUsGFCHe8G3LCQBFeUvPN1CMZ4f9f2lj+N478AgAjEHbCVCQoYYtM5VvAFL3mpWDwOTibDvpdHtThi0BKJLWE2BSi/Mz0Va+BW8ACnXxfeEbmMjQwTtrYfjWcgJAoV67qO0EmEjU4dtxHQAK5dAOMKGhzsqv0nYCQNIurfy6/wNgTENdtlzVmvDd6fZC8J4aeAIAJmTlIDCBoTedZC2rfOv3BqAUF94VvoGxLC/Oz0Qbvh3XAaAUKt/AmEYatgw+NPBIc6l8A1CKi3Z91+qp7/+k1J/+pZ+8OfBYlcr+/t54y8aeGsUZvvPjOtMDTwBAAV515bJWT33/x74/2mqkTSdZi9pOVL0BKJXqNzCGkSvfbQnf9nsDUCr7voFRLc7PjLRmMGtR+LbfG4BSGboERjTSlpNV2k4AIITvdy95GYBRxBm+O92e4A1A6d7S8w2M5tlxXq82VL6FbwBKp+0EGNHIw5ZZS8K34zoAVOI1KweB4UXb863yDUAltJ4Aw1qcn4mv8t3p9sJhnamBJwCgBBffF76BoYwVvLMWVL5VvQGozGsXtZ0AQ4k2fDuuA0BlHNoBhjTyWflVTQ/fjusAUJlLK7/u/wDYxsiXLVc1Nnx3ur0p4RuAqlk5CAxhrE0nWcMr3/q9AajchXeFb2BLy4vzM1GGb1VvACqn8g1sY+xhy6zh4duwJQCVu2jXN7C1aMO3thMAKveqK5fA1sbedBJ8aOCRBuh0e1pOiNbBPddmT3/rtmi+vQ/97/954LFU3Xvnzdm9X745ye9++Z33s5v+j//a/88YhOr3b3+4E8X3AhQuysq3qjfQKnuvvzrZ4B3c8fB/iyZ4Z/Z9A1tYnJ8Ze81g1uDwrd8baI2pHb+Z/eevH0j2DfvmE3+TvfDKLwcebzNDl8Amxt5ysqqp4VvbCdAaoeK9e+eOJN+wP3vufPadp3808Hjb/fzdS9F9T0Ah4gvfnW5vOsuy6YEnABoo9PDfc8dNSb41ododqt4xesvGE2Bjz2746AiaWPlW9QZaIbSbPHp0f5JvVujv/urjfx1Vn/da2k6ATUw0bJk1NHzr9wZa4eG7P5dsu8nXHv9BdH3e671m5SAwKMqeb5tOgMa7a9912VcO7E7yjQo93t87+9OBx2Oj9QRYb3F+JsrKt7YToNFCu8kjR9JsN3n2pTei7fNe7+L7wjdwhYmDd9a08N3p9lS9gcYLwTsE8NSE/u7Z7z6XzHf92kVtJ8AV4gvfWk6ApgvtJuFHimI7pLMdh3aAdSY6K7+qaeHbsCXQWCm3m8R4SGc7l1Z+3f8BkJvosuWqpoVv/d5AY/W+fiDJdpNYD+kM49W3HdsBLour7aTT7YXgPTXwBEADhEM6B/fsSu6tiPmQzjD+vzffbf4XCVTh9OL8zHIRP0+TKt+q3kAjTe/c0T8hn5rYD+kM4+9/8U520cpBIMseKOo1aFL41u8NNNIjR29Nst0khUM6w/iL8xf0fkPaTizOzxTS7501LHzbdAI0TqrtJqkc0hlGODX/X/7hDQEc0hSC9/Eiv/NGhO9Otxd6vacHngCo0d7rr+6fkE9NSod0hhUC+Kkf/az/n0Ay5ooO3lmDKt+q3kDjPHrk1uTelNQO6Ywi9H6HCvhrbzu+A5ELg5W3LM7PLJXxbTYlfBu2BBrl3jtv7le+U5PaIZ1RhdaTEMDDICYQpbN58C5kreBGmhK+DVsCjRFCd4rbTVI8pDOu//7jX/R/AFE5lWXZ7YvzM+fK/KY+NPBIPbSdAI2RYrtJyod0xrW6hvCO3Z/IPtxp2s06YESFD1ZupvbfLTrdnuANNEYYsEyt3ST1QzqTePXt9/ptKAYxodVKGazcTBP+qq7fG2iEg3uu7a8WTIlDOpNbXUVoEBNaZzlvMyllsHIzTQjf+r2B2oUjOo8e3Z/cG+GQTjEMYkLrnM2Dd2HHc4bVhPCt7QSoXRiw3L1zR1JvhEM6xQtDmP/jVX+ZgYY7nQfv0jaabKXWgctOtxcO60wNPAFQoRTbTRzSKc/fvnExu3jpn7LbPnONQUxonqXF+Zm5Or+qun9XUPUGahXaTXpfn0nqTXBIp3zn3/xVvw0lbEMBGmOu7uCdNSB87x14BKBCjxzZ3w/gKXFIpxpO0kNj1DJYuRmVbyBZd+27rv8jJQ7pVCsMYp76+58ZxIT6nKtrsHIztYXvTrc3Zc0gUJdQ7Q5V75SE4UqHdOphEBNqUfqp+HHUOXApeAO1Sa3dJFS7w1pB6hMGMUMl/POfutogJpSv9sHKzdT5b7+WE6AWYbNJSu0mDuk0R2g/CYOYIYQDpTne1OCd1Ry+HdcBKje9c0d/p3dKvqXPu1HCAOYTf/ePBjGheGGw8vDi/MyJJr+2Kt9AUh45emtS7Sahx/vx584PPE69XMSEwq1uNDnV9Je2lvDd6fb0ewOVC+0mB/fsSuaFD9Vuh3SaKwTwMIj5/M/eSv2lgEmFgcobmjZYuZm6Kt+q3kClUms3Cf3dYZ83zff8P77ZD+HAWJbyivdyW16+uradOK4DVKr39QNJtZvMfveMAcsWCe0nF959P/vSjbtsQoHhPbA4P3N/214vlW8gevfeeXO29/qrk3mjQ6vJsy+9PvA4zeYiJgxtOT8V37rgndURvjvd3nT4BHjgCYAShNCdUruJQzrtdvHSSn8Q8/ybv0r9pYDNNOpU/DjqqHwbtgQq8+iRW5N5sR3SiUMYxHz6/IX+UR7gCq0arNxMHeHbfm+gEim1mzikE59wjt4gJlx2qm2DlZupY+BS5Rso3cE91ybVbuKQTpwMYkLficX5meOxvBR1/Jts2BIoVdhq8ujR/cm8yA7pxC0MYIY+cIOYJGoupuCdVR2+O92e4A2ULlS8d+/ckcQL7ZBOGlYD+Gtvv5f6S0E6QnvJLW0erNxM1ZVv4RsoVWg3CZcsU+CQTlqcpCchZ/Pg3erBys1UHb4d1wFKk1q7iUM6aQpDmAYxidjqYOW5WL/FqgcuVb6B0jx89+eSaTdxSCdtofoddoLfsfsTBjGJydLi/Mxc7O9oZf/Gdrq9sOVkauAJgALcte+67CsHdifxUjqkQ/Dq2+8ZxCQmcykE76zithMrBoFShHaTR46k0W7ikA5r2YRCBFp/sXJUVYZvx3WAUoTgHQJ47BzSYSNhEPPU3//MICZtdDYP3qdTevdUvoFWC+0m4UcKHNJhK2EIM1zFhJY4nQfvKDeabKWSgctOtzclfANFm965I5l2E4d0GMbfvnExu3jpn7LbPnONQUyaLInBys1U9W+mLSdA4R45emsS7SYO6TCK82/+qt8HHrahQAMdTzl4ZxWGb1VvoFDhkM7BPbuif1Ed0mEcYQDz1I9+ZhCTJgmDlYcX52dOpP6uVBW+DVsChQntJuGEfAoc0mFcLmLSIOfy/u5wQCd52k6A1kml3cQhHSYVAngYxHz+Z295LalL1Kfix1H6wGWn2xO8gcKk0m7ikA5Fev4f3+wPYn7+U1cbxKRKSQ9WbqaKfwP1ewOF2Hv91f0T8rFzSIcyhPaT0IYSquFQgeQHKzdTRfjW7w0U4tEjt0b/QjqkQ5nCAOYTf/ePBjEp03J+Kj75wcrNqHwDrXDvnTf3K9+xc0iHshnEpETJnYofR6nhu9PtTYfFBANPAIwghO4Utps4pENVVgcxw1EeKEgYqLzBYOX2yq58G7YEJhK2mqTQbuKQDnUI5+hDCIcJLeUV72Uv5PbK3nayd+ARgBGEinfs7SYO6VCn0H5y4d33sy/duMsmFMbxwOL8zP1eueGpfAONdXDPtf3VgrFzSIe6uYjJmOYE79GVHb4NWwJj6bebHN0f/Yv34J+/6JAOjXDx0kp/EPP8m7/yhrCd5fxwjsHKMZQWvh3XASYR2k1279wR9WsYDuk8+NSLA49DXcIg5tPnLxjEZCsuVk6ozMq38A2MJYV2k/MX3nFIh8YyiMkmTuWDlec2fpphlDlw6bgOMLLQbtL7+s1wDGIAABoDSURBVEzUL1zo7/53331OnzeNFgYxQyvKHbs/YRCT4MTi/Mxxr8Tkyvy3Sb83MLJHjuzvB/CYOaRDW7z69nv9PnCDmMmbE7yLU0r47nR7IXhPDTwBsIW79l3X/xGzP3vuvEM6tEoI3iGAv/b2e9649BisLEFZlW/93sBIQrU7VL1jFqrdX13S5037OEmfpLN5f7fByoKVFb4d1wFGEnu7Sejvnv3ucwOPQ5uEIUyDmEk4LXiXp6yBS5VvYGhhs0ns7SbhkM65C6qGtF+ofodK+G2fucYgZpyWFudn5lJ/EcpU+L81nW4v9HpPDzwBsIHpnTv6O71j5pAOsQmHeEIbStiGQlTmBO/ylfFXVlVvYGiPHL016nYTh3SIlZP0UVnO20wMVlagjPBtvzcwlCMHdmcH9+yK9sVySIfYhfaTU3//M4OY7bY6WHk69ReiKmX0fNvvDWwrVLsfuvtz0b5QDumQkjCEGSrgn//U1d73dlkN3supvxBVKiN8azsBthX7dhOHdEjN375xMbt46Z8MYraHwcqaFPpvR6fbE7yBbR3cc23U200c0iFVYRAz9IFrQ2m0UO0+LHjXp+jKt/ANbClUux89Gu8xHYd0SF3YgBLaUP7Hq7/Mdn40nk+3fn/nx+ZuuPq3zg080S7nFudn2v49tF7R4dtxHWBLYa3g7p07tvpHWsshHfgXYRjz1YhO0ofv5S8WZg0lMrGim7JUvoFN7b3+6v5BnVg5pANRs82NQhQWvjvdXjisMzXwBEDu0SO3RvtSOKQD0bPNjUIUWflW9QY2de+dN/cr3zFySAeSsC+/4g0TKTJ8+zgG2FA4IX/PF+NsN3FIB5Ki0MjEigzfPo4BNhTrCXmHdCA5sg4TKyR85x/D+AUJDIj5hLxDOpAcn/IzsaIq34I3MCDmE/IO6UCStJ0wsaLCt1+MwICH7/5clO0mDulAujrdnoIjEykqfPsYBrhCOCH/lQO7o3tRHNKB5Ck4MhGVb6AUsZ6Qd0gHkqfgyEQmDt8+fgHWCzu9Yzwh75AOYM6NSRVR+Vb1Bi4LO73v/fLN0b0gDukAuen8qjeMpYjw7eMX4LKw0zs2DukA6yg8MrYiwrePX4C+u/ZdF91Ob4d0gA3sHXwIhjNR+M4/dvHRC9BfKfhwhDu9HdIBNqDyzdgmrXyregN999xxU5RDlsvvqngDA+QfxjZp+NbvDUQ7ZJlFfCgImEyn21P9ZiyThm+/8IAohyxX7Y74LxbARGQgxqLtBJhIqAzHNmS5Xmip2Xv91QOPA0nz6T9jGTt8+7gFyPJgmoKH77bcALiCAiRjmaTyLXwDyQjV/SMHdnvDgVVTrnwzjknCt49bgKQ8ZPgSuJLwzcgmCd9+wQFJCcHb8CWwhkIkIxsrfOcfs0wNPAEQudDjfnDPtd5mINOCyzjGrXyregPJivGSJzCW6U63pxjJSMYN3z5mAZIV1g6msuUF2JbqNyMZN3z7hQYkLfR+G74EFCQZ1cjhO/94ZXrgCYCEhOCt/QTQisuoxql8q3oDZFn2lQO7DV8CchEjGSd8+xseQE71G3D1m1GME771NgHkwvDlvXfa/Q2JU5hkaNpOACZ0zxdvyqZ37vAyQroUJhnaSOHbxyoAg8Lw5UPaTyBl8hFDG7Xy7WMVgA3cte86w5eQrqlOt2cTHEMZNXz7WAVgE48e3b/xE0AKVL8Zyqjh2y8sgE3s3rnD8CWkS4GSoQwdvvOPU6YGngDgMsOXkCytuQxllMq3qjfANsLw5SNHb936HwJitC+/Ag5bGiV87x14BIABB/fs6g9gAslR/WZbKt8AJQiXL0MVHEiKrMS2hgrf+cco/jYHMKQwfHnPHTd5uSAthi7Z1rCVb8EbYET3fvlmw5eQFpVvtjVs+PaLCWAMhi8hLZ1uT8GSLQ0bvn2MAjAGw5eQHAVLtqTyDVCyR47sN3wJ6bAdji1tG759fAIwmRC8Q/83kAQFS7Y0TOXbLyKACYXNJ3uvv9rLCPGbzq+Cw4aGCd8+PgEqsfzO+1G/0A/f7bdTSISuATal8g00wp89dz674+H/FvWbEYYvjxzYPfA4EB2LKtjUluE7/9jERydAqV545ZfZN5/4m/5/hhAes4dcvoQUKFyyqS3Dt49NgLKFVpNQ8V5tOQkhPOb2E8OXkAT5iU1tF759bAKUam3wzvIw/p2//FHUL3oYvjy459qBx4F4dLo91W82pPIN1OZrSz/ot5qs9+BTL2bnL7wz8HhMHr77c37hQdyEbza0Xfj2CwcoRejtfnyL/u4QwGMW1g6GCjgQLeuN2NCm4dvHJUBZnn3pjeyrSz/Y8v89BPPwz8Us9H4bvoRoyVFsaNPw7RcNUIbQTjL73eeG+n+Ovfodgrf2E4jWlCvhbGSr8O3jEqBQYZjy3333uaG3mTz70uvRrx78yoHdhi8hXsI3A7YK3yrfQKG+9vjGA5ZbCdXv+C9fqn5DpGyNY8CG4Tv/mGRq4AmAMT345y9m3zv705H/x+cuvBP96sEwfHnvnXZ/Q4QUMhmwYfj2MQlQpNA6Mkn/9nee/lH0qwfv+eJN2fTOHQOPA6023en2FDO5wmbh28ckQCFWT8dPIrSdpDB8+ZD2E4iR6jdX2Cx8q3wDEwuheXaEAcuthNWDo/aLt81d+64zfAnxkam4wkD4zj8e8QsFmFg4HX+uwHaRSSvobfDo0f3Rf4+QGN0EXGEgfPt4BCjCZqfjJxFWD44ztNkmu3fuMHwJcZGruMJG4VvVG5jIdqfjJ/GtBKrfhi8hLq6Gs9ZG4dvHI8DYhjkdP4nQxhLWFsYsDF8+cvRWvwghHgqbXLZR+Pa3M2Aso5yOn0RYPRj74Z2De3b1BzCBKChsctkV4dvHIsC4Rj0dP4nwc6TQfhIuX4YqONB6Kt9ctr7y7RcHMJZxTsdPIvSUx354Jwxf3nPHTQOPA60Tju1Me9vINgjfPhYBRjbu6fhJldlb3hT3fvlmw5cQB90F9Kl8AxOZ9HT8JMLqwTDgGTvDlxCFvd5GsrXhO/84xEciwEjqPnzztaW/HngsNoYvIQoq3/StrXz7RQGMrO6tI2H1YNh+ErtHjuw3fAntti+/Ik7i1oZvH4cArRR6zmNfPRiCd+j/BlpNey8q30D7heAd++GdIGw+2Xv91QOPA60ha3FF+Pa3MaC1QutJ7KsHs/7ubx9SQovZKscH4dtxHSAGKaweDMOXRw7sHngcaAWFTi5XvoVvoPVSWT34kMuX0FZTnW5PAE/cavj2MQgQhW8+8UL0b6ThS2g1Bc/ErYZvfwsDohBO3IfDP7ELw5cH91zrFy20j8GNxF2Vf/xh7yQQjXD4J/bVg1l/+PJzA48Bjafynbir/CIAYhOC93f+Mv7DO2HtYKiAA60y7dhO2q5S9QZi9OBTLyaxejD0fhu+hNbR7puwqwxbArEK7SexC8Fb+wm0zrS3LF1Xpf4CAPH63tmfJrF68CsHdhu+hHYRvhMmfANRC+0nKVD9hlZZ9nalK4Tvc6m/CEC8wuGdFFYPhuHLe++0+xta4qw3Kl0hfMf/pxKQtFD9TmH14D1fvCmb3rlj4HGgcVS+ExbC9+nUXwQgbucuvJPE6sEwfPmQ9hNouuWVhVmV74RdtbIwe9rfwIDYfefpHyWxevCufdcZvoRmO+X9SdvqwKVfCEDUQttJKsOXjx7dP/AY0BiPeyvSthq+H0j9hQDi9/hz55NYPbh75w7Dl9BMZ/OOAxLWD98rC7Nh48kJvxCA2KVS/TZ8CY103NvC2j3fD1g7CMQurB4Mx3diF4YvHzl6q1/P0BwnVL3J1obvlYXZMHR52PAlELtvJXB2Pji4Z1d/ABOo3Vktvqy64sJlvvrGRyJA1MLqwQf/PJ3Ll6EKDtSmX9zMi5wweF5+ZWF2Sf83ELuwejCFwzth+PKeO24aeByozOF8tg76BsJ39kEAP+74DhCzELxTaT+598s3G76EehzX5816G4bv3GEDmEDMwurBF175ZRLvseFLqNzSysKsTgIGbBq+DWACKfim4UugeGbo2NSm4TszgAkkIJXVg8EjR/YbvoTyGbBkS1uG78wAJpCAVHq/Q/AO/d9AqQxYsqVtw3dmABOIXFg9GLafpCBsPtl7/dV+SUM5DFiyraHCd84AJhCtsPc7hdWDWX/3996Bx4CJGbBkKEOHbwOYQMxC8E7l8E4YvjxyYPfA48DYzMgxtFEq3wYwgaiF1pPzF95J4k1+yOVLKIoBS0YyUvjO/mUAc2ngCYAIfHXpB0m8jYYvoTAGLBnJyOE7+yCAz+UfsQBEJawefPalN5J4U8Pw5cE91w48DgzNgCUjGyt8527X/w3E6GtLf53M+/rw3Z8beAwYigFLxjJ2+M57m24feAKg5cLqwT977nwSb2NYOxgq4MBIzMAxtkkq36sDmHMDTwC0XDg7n8rqwdD7bfgShhaKj3MGLBnXROE7M4AJRCoE7+/8ZRqHd0Lw1n4CQ5vLi48wlonDd2YAE4jUg0+9mMzqwa8c2G34Erb3wMrC7CmvE5MoJHznDGAC0QntJ6lQ/YYtnVpZmL1/q38AhlFY+DaACcToe2d/mszqwTB8ee+ddn/DBsy4UZgiK98GMIEoffOJF5J5Y+/54k3Z9M4dA49DwgxYUqhCw3dmABOI0Auv/DKZ1YNh+PIh7SewlgFLClV4+M4MYAIRCsOXqawevGvfdYYv4QMGLClcKeE7ZwATiEY4vJPK6sHg0aP7Bx6DxBiwpBSlhW8DmEBsvvP0j5JZPbh75w7Dl6TMDBulKbPybQATiEpoOwntJ6kwfEmiDFhSqlLDd2YAE4jM48+dT2b1YBi+fOTorQOPQ+QMWFKq0sN3ZgATiExK1e+De3b1BzAhEQYsKV0l4TtnABOIwrMvvZ7M6sEsv3wZquAQOQOWVKKy8G0AE4hJSqsHw/DlPXfcNPA4RMSMGpWpsvK9OoB5fOAJgJZJbfXgvV++2fAlsTJgSaUqDd/ZBwH8hAFMIAZh9WAq1e/A8CWRMmBJpSoP37njBjCBtgvB+1tP/E0y76PhSyJkwJLK1RK+8492DhvABNourB584ZVfJvM+PnJkv+FLYmHAklrUVfkOAfxcHsABWu2bCVW/Q/AO/d/QcucMWFKX2sJ39kEAP20AE2i7sHrwe2d/msz7GDaf7L3+6oHHoSX6n74bsKQutYbvzAAmEImUer+z/u7vvQOPQUscN2BJnWoP3zkDmECrhdWDD/55WpcvjxzYPfA4NNyJlYVZBT9q1YjwbQATiEFqqwcfcvmSdjm9sjCr1ZXaNaXybQATaL0QvFOqfofgHU7PQwvIGDRGY8J3ZgATiECofp+/8E4yb+VXDuzODu65duBxaBADljRKo8J3ZgATiMBXl36Q1Nuo+k3DGbCkURoXvnMGMIHWCqsHn33pjWTewLB2MKwfhAYyYEnjNDJ8G8AE2u5rS3+d1HsYDu8YvqRhDFjSSE2tfBvABFotrB4M/d+pMHxJw8gQNFZjw3dmABNoubD5JKXVg4YvaQgDljRao8N3ZgATaLEQvL/zl+lUv4NHj+4feAwqZsCSRmt8+M4ZwARa6cGnXkxq9eDunTuye++8eeBxqIgBSxqvFeHbACbQZt984m+Sev/u+eJN2fTOHQOPQ8kMWNIKbal8G8AEWut7Z3+a1OrBMHz5kOFLqiUj0BofatMXGwYwO93eA1mW3TfwJLTE8ruXkgpifOCbT7yQPXz33mRejakdH+5Xv88l1HJDbQxY0iq/0ca3q9PtPZll2aGBJwCA1Mzp86ZNWtN2ss6cAUwASJ4BS1qnlZXv7IPq974sy54Jn24OPAkAxC4MWN7uXaZt2lr5zvIdnnMDTwAAsVs2YElbddr8zv3zD5744VX7/zhU778w8CQAEKsD+RY0aJ3WVr5XrSzM3p9l2amBJwCAGM25YEmbtT585wxgAkD8lgxY0natHbhczwAmAETt7MrC7C3eYtoulsq3AUwAiFcYsLTZhCi0euByPQOYABAlA5ZEI5rK9yoDmAAQFQOWRCW68J0zgAkA7WfAkuhEM3C5ngFMAGg1A5ZEKdbKtwFMAGgvA5ZEK6qBy/UMYAJAKxmwJFrRVr5XGcAEgFYxYEnUog/fOQOYANB8BiyJXrQDl+sZwASARjNgSRJSqXwbwASA5jJgSTKSCd/ZBwE89H6fGHgCAKjT7SsLs8veAVKQTNvJWp1u7xkbUACgEeb0eZOSpCrfaxzOsswKIwColwFLkpNk5TszgAkAdTNgSZJSrXyvDmAeH3gCACjbcv4pNCQn2fCdfRDAlwxgAkDlDrtgSaqSbTtZywAmAFTm+MrCrMIXyUq68r2GAUwAKN+S4E3qhO8P2k9We8/sGAWAcpi1InmZ8P0vDGACQGmW8z5vRS6SJ3yvYQATAEphwBJyBi43YAATAApjwBLWUPnemAFMAJicAUtYR/jegAFMAJiYWSrYgPC9CQOYADA2A5awCeF7CwYwAWAsBixhEwYuh2AAEwCGZsAStqDyPRwDmACwPQOWsA3hewgGMAFgW2alYAjC95AMYALApgxYwpCE7xHkA5hLrfmCAaAaBixhSAYux9Dp9p7Psmxf675wACieAUsYgcr3eG7X/w0ABixhVML3GPKetttb94UDQHHMQsEYhO8x5QOYc6384gFgMqEINWfAEkYnfE/AACYAiZrLi1DAiAxcFsAAJgAJeWBlYfZ+bziMR+W7GAYwAUjBKcEbJiN8F8AAJgAJMOsEBRC+C2IAE4CIGbCEggjfBTKACUCkDFhCQQxclsAAJgARMWAJBVL5LocBTABiYMASCiZ8l8AAJgARMMsEJRC+S2IAE4AWM2AJJRG+S2QAE4CWMmAJJTFwWQEDmAC0iAFLKJHKdzUMYALQBgYsoWTCdwUMYALQAmaVoALCd0Xy3rnjSXyzALSNAUuoiPBdoZWF2RMGMAFoIAOWUBHhu3rH84/2AKAJwoDlKe8EVMO2kxp0ur3pLMvCBpSp5L55AJokDFge9o5AdVS+a7CyMHsuyzK/2QFQp3MGLKF6wndNVhZmTxvABKAmYbDysAFLqJ7wXSMDmADU5LgBS6iH8F0/A5gAVOnEysKswg/UxMBlAxjABKAip1cWZh19gxqpfDeAAUwAKuDPGmgA4bshDGACUCIDltAQwneDGMAEoCQGLKEhhO/mMYAJQJEMWEKDGLhsIAOYABTEgCU0jMp3AxnABKAA/iyBBhK+G8oAJgATMGAJDSV8N5gBTADGZMASGkr4bj4DmACMwoAlNJiByxYwgAnAkAxYQsOpfLeAAUwAhuDPCmgB4bsl8gHMB1J/HQDYkAFLaAltJy3T6faezLLsUOqvAwBXmNPnDe2g8t0+cwYwAVjDgCW0iMp3C3W6vX1Zlj1jABMgeQYsoWVUvlso3906l/rrAJC4ZQOW0D4d71k7/fMPnvjhVfv/OHxy8YXUXwuARB3It2EBLaLy3WIrC7P3Z1l2KvXXASBBcy5YQjsJ3+1nABMgLUsGLKG9DFxGwAAmQDLOrizM3uLthvZS+Y6AAUyAJIQBS5tNoOUMXEbCACZA9AxYQgRUviNiABMgWgYsIRLCd3wMYALExYAlRMTAZYQMYAJEw4AlREblO0IGMAGiYMASImTgMlIGMAFaz4AlREjlO2IGMAFay4AlREr4jp8BTIB2MWAJETNwmQADmACtYcASIqfynQADmACtYMASEiB8J2JlYTb0fp9I/XUAaLDbVxZml71BEDdtJ4npdHvP2IAC0Dhz+rwhDSrf6TmcZZnVVQDNYcASEqLynSADmACNYcASEqPynaB8APN46q8DQM2W808jgYQI34nKP+I0gAlQn8MuWEJ6tJ0kzgAmQC2OryzMKoBAglS+MYAJUK0lwRvSJXwnLt8pezjvPQSgXGZuIHHCNwYwAaqxnPd5K3ZAwoRv+gxgApTOgCVg4JIrGcAEKIUBS6BP5Zv1DGACFMuAJXCZ8M0VDGACFMpMDXAF4ZsBBjABCmHAEhggfLMhA5gAEzNgCQwwcMmWDGACjMWAJbAhlW+2YwATYDQGLIFNCd9syQAmwEjMzABbEr7ZlgFMgKEYsAS2JXwzlHwAc8mrBbApA5bAtgxcMpJOt/d8lmX7vGoAVzBgCQxF5ZtR3a7/G+AKBiyBoQnfjCTvZbzdqwbQZyYGGInwzcjyAcw5rxyQuFCMmDNgCYxC+GYsBjAB+sH7rJcBGIWBSyZiABNI1AMrC7P3e/OBUal8MykDmEBqTgnewLiEbyZiABNIjJkXYCLCNxMzgAkkwoAlMDHhm0IYwAQSYMASmJiBSwplABOIlAFLoBAq3xTNACYQGwOWQGGEbwplABOIjJkWoFDCN4UzgAlEwoAlUDjhm1IYwAQiYMASKJyBS0plABNoKQOWQClUvimbAUygbQxYAqURvimVAUygZcysAKUSvild3jN53CsNNJwBS6B0wjeVWFmYPWEAE2g4A5ZA6YRvqnQ8/0gXoGnCgOUp7wpQNttOqFSn25vOsixsQJnyygMNEQYsD3szgCqofFOplYXZc1mW+UMOaIpzBiyBKgnfVG5lYfa0AUygAcJg5WEDlkCVhG9qYQATaIDjBiyBqgnf1MkAJlCXEysLswoAQOUMXFIrA5hADU6vLMw6/gXUQuWbWhnABCrm9xygVsI3tTOACVTEgCVQO+GbRjCACVTAgCVQO+GbJjGACZTFgCXQCAYuaZROtxcGL5/JsmyfdwYoSAjeWtuARhC+aaROt/ftLMu+4d0BJrCct5qoeAONIXzTWJ1u7wtZlj2WZdm0dwkYUQjcD+QblQAaQ/im8Trd3qEsy45kWXbIuwVsIQTt00I30GTCN62SV8OnVcOBNcKg9jmbTIDGy7Ls/wfW6zdEz68Z4wAAAABJRU5ErkJggg==;" vertex="1" parent="1">
                    <mxGeometry x="673.8" y="406" width="39.6" height="32" as="geometry"/>
                </mxCell>
                <mxCell id="49" value="" style="shape=image;verticalLabelPosition=bottom;verticalAlign=top;imageAspect=0;aspect=fixed;image=data:image/png,iVBORw0KGgoAAAANSUhEUgAAAQsAAAELCAIAAABBNzQFAAAAAXNSR0IArs4c6QAAAARnQU1BAACxjwv8YQUAAAAJcEhZcwAADsMAAA7DAcdvqGQAAChPSURBVHhe7d13WBXH3gfwlyIgohgMigpIscYIFqRZgiKWx4jRoIEUBZRoLBijRiVBLNeWq2hUYuxgzGOL2GkaTEQTsSWAijGxIMagNEFBKXLfQb6vj+81Gna2nJllP3/d4v5mODvfc3bO2Z35n//UeaWlpRcuXNi9e/fcuXP9/f3d3NxsbGwaNGhg8ISpqam1tbWrq+s777wTERGxc+fO9PT0kpISHKxRu7qbkJs3b27ZsoVEonXr1vr6+v8jhIODg5+f39q1a69fv45yGpWqcwl5/PhxQkLCqFGjLC0tMd5FsLCwCAgIOHjwYHl5ORrQqEsdSkhFRcX27dt79uyJ0S0pcm0WExNTVlaGxjRqUVcSEhcX5+npieEsGxcXl3379qFJjSqoPyHZ2dmBgYF6enoYxfIj113a/EQ1VJ6Q2NhYMqvGyFWQtbU1uaJDJzQ8U21CqqqqwsLCMGB1ZPr06ZWVleiQhk/qTEhxcbGfnx/GqU4NHTq0oKAA3dJwSIUJyc3N7dOnD0YoAzw8PG7fvo3OaXijtoSQeMj0fa4Y3bt3/+uvv9BFDVdUlZCSkhJvb2+MSsaQ3BYWFqKjGn6oKiHvvfcexiOT3n77bW3izh31JGThwoUYiQwLDw9HdzWcUElCkpOTDQ0NMQwZpq+vf/jwYXRawwM1JKSgoKBdu3YYg8yzt7e/c+cOuq5hnhoSMnXqVIw+TowbNw5d1zCP+4ScPn3a2NgYQ08iJiYmVlZWDk+Q/1C/fn38HxIhF4QpKSn4AzRs4z4hgwcPxrgTzdnZmXwcxcbGpqWl5eTk3HuCXBGlp6fv3bt3+vTpXbp0wT8VzcfHp6qqCn+DhmF8J+TYsWMYceK89dZbZAL9j093VFRUJCUljRw5EoeJExcXh7oahvGdkGHDhmG40ercuXNCQgLK1VpycnL37t1RgtaAAQNQTsMwjhOSkZFhZGSE4UZl7Nix+fn5KCdQcXHxxIkTUYiKgYHBmTNnUE7DKo4TMmvWLIw1Kp9//jkKibBkyRKUozJ58mQU0rCK14SUlJS0b98eA004ki4UEk3Mb/l2dnZFRUUopGESrwkhMwHqB2sDAgJQRSKBgYEoLRzFLEijJF4T8tlnn2GICeTg4HD37l1UkUhBQQH1B9q0adNQRcMkLhNSVVXl5eWFISbQt99+iyqS2rNnDxoQyMPD4/Hjx6iiYQ+XCcnJyaFbD87Nza2iogJVJEUd2saNG2dlZaGKhj1cJuT48eN0k5DNmzejhAx27tyJZgRKSkpCCQ17uEzIxo0bMbiEaNq0qeQzkGeR2Yi1tTUaE2L16tUooWEPlwkJDw/H4BJi+PDhOF42AQEBaEyITz75BMdr2MNlQoKDgzG4hFi8eDGOl83KlSvRmBCSf/uskRCXCfH19cXgEiI2NhbHy+bQoUNoTIiBAwfieA17uEwIxXJYZGZ/8uRJHC+b06dPUzwM3KtXLxyvYQ+XCSFDCoOr1oyMjM6dO4fjZZORkUHxuJW7u7v2kwizuExI7969Mbhqjby1K3AjbVpaGsUDj56entrTVMziMiH9+/fH4BIiOTkZx8smJSWF4ocactGI4zXs4TIhI0aMwOASIjo6GsfLZseOHWhMCF9fXxyvYQ+XCaF7dGn69Ok4Xjaff/45GhMiKCgIx2vYw2VC6J5b8vDwkPtyn27NeW0hRpZxmZBdu3ZhcAlB5tDp6ekoIYMrV66YmpqiMSFiYmJQQsMeLhOSlpZWr149jC8hPv30U5SQwbx589CMEPr6+qmpqSihYQ+XCXnw4EHr1q0xxISwsrKSabOb3NxcutsWbWxstE2qWMZlQgjqRatCQ0NRQlIzZ85EAwINGTIEJTRM4jUhUVFRGGICGRkZHT16FFUkkpKSQr1yaWRkJKpomMRrQjIzM+mmxYSDg4OE+52Tyzbqh9Tl/vJAIx6vCSH69euHgSacu7u7JE9TFRYWvvHGGygqnKenp3ZHFuM4TsimTZsw0Ki4uLhcvXoVtahkZWX16NED5aisWrUKtTSs4jgh+fn5LVu2xFijYmNjs3fvXpQT6PDhw/b29ihExdLSMicnB+V0rays7MaNG6dOnTp06FB0dDSZ5q1cuZIEeMOGDbt37z527NilS5fq5k6lHCeEoLvL478EBQWR04+KtfDbb7+NHTtWX18fx9OaOnUqKurI/fv3f/rpp2XLlo0cObJz585NmjR5yR9lZmbm6Ojo7e09Y8aM2NjY7OxsVFE7vhNCzhM5rziHIjRs2DA4ODghIeHevXso/Zzi4uKkpKSQkJBGjRrhMBHMzc3/+OMPlFYWmfmQz4QpU6a0b9+eet1K8gE4bNiwzZs3q36feL4TQkREROCkScHBwWH48OFz5sxZt27d9ifWr19PmvDz8yPvoPhHUiDvxPgDFFRUVESumjw9PdEJKVhbW4eGhqalpaEN1eE+IQUFBXS/r+sQGVUKz0BKSkrWrFnTtm1b9EBqpqamY8aMuXDhAtpTEe4TQnz33Xc4UZzYunUruq6Iffv2de3aFW3LqXHjxmFhYdRbsrBJDQkhxKy+rjBywYZOy498Uo0dOxYNK8XJySkxMRE94J9KEpKXl8fFlup2dnYy3Tr5PDIdl++y6uUMDAzCw8MrKyvRFZ6pJCFEamqqmZkZThGTjI2NyahFd2UWFRUl+SbXQvn6+ubm5qJD3FJPQohvv/1W/M8U8lm/fj06KjPqG40lR+Y/uvpSWyqqSghBty6oAhYuXIguymzSpElokg1t2rQR9IMsa9SWEOKLL77AyWHGnDlz0DmZhYaGokmWkJD8/vvv6CJvVJgQYs2aNWSyiPOja0uWLEG3ZDZ37lw0yR5nZ2dZt6aQjzoTQuzevZtunyoJmZubK7ZKw9atW9EqqwYPHlxeXo7u8kO1CSHOnz/v6uqK86O4Tp06nThxAl2RGflLGzZsiIYZFhYWhh7zQ80JIe7fv08uzZX/gmvs2LGK/bRcUlLi4uKChtmmp6cXHx+PfnNC5QmpcfToUQ8PD5wlmXXu3PngwYNoWBHUG2frRNu2bfla26VOJIQoKytbu3Zthw4dcKJkYGdnFxkZST610KQiyPWVzn8ZFEqB5WElVFcSUqOwsDAqKkrya5LXX3/93//+t04eGHzzzTfRCSlYWlq6u7sHBATMmDEjIiKCfDqNGzeuf//+0t49bWpqytH6FXUrITUqKioSExPJuW/VqhVOGpUWLVqMGjVq3759Dx8+RGllkWt6dEUc8ink5+e3ffv2Fz05WFRUlJKSQubZUkXF398fpZlXFxPy1L17944cOTJ79mwrKyuculogH0HTpk0jkw3d3nRUVVXl7e2NPokQGBhY++efyCu2evVqke8sRL169RTYEkwSdTohTw0YMACn7p/o6emdPn0ah+kUeVMX+R0dmZUdPnwY5YS4efMm+fBEFVohISEoxzYtIdV8fHxw3v4JSQgjC1EHBQWhT1TI7OLPP/9ELSorVqyg2Nb0KQsLi1u3bqEWw7SEVKv94nQkIT///DMO052cnJxXX30VfRJu6NChDx48QC0RYmJixIRkzZo1KMQwLSHVuEsIGZrokHA9e/YsLi5GIdFWrVqFusKRl539LU61hFTjLiH+/v7okEDNmzcXudLk84KDg1FdIDMzM/afHtESUo2vhBQUFFB/m7RlyxZUkU5ubi718pMKL2pBQUtINb4ScuLECdINdEiI3r17y7SQ9saNG9GGQOPGjUMJVmkJqcZXQsgEF70RaN++fSghtdLSUrqVNFxdXRmfimgJqcZXQsj7LnojRIcOHWT97X/BggVoSYhmzZoptvgLHS0h1fhKCN1P6XLfL/jLL78YGRmhsVozMDBgfKNTLSHVOEoI+Rx4/fXX0RshDh06hBLyePTokZOTExoTQr5rP0loCanGUULu3LlDsWtKw4YNFVhL4Z133kF7QmzYsAHHM0lLSDWOEnLt2rXGjRujN7XWunXrl2z8IJVZs2ahPSG++OILHM8kLSHVOEpIZmYmxSPpXbt2VWAVheXLl6M9IebNm4fjmaQlpBpHCbl48WKDBg3Qm1pzc3NTYEtRujtQFFtMjI6WkGocJeTy5csUnyGdO3cmM2mUkM3SpUvRnhALFizA8UzSElKNo4RkZWVZWFigN7XWqlWrvLw8lJDN1KlT0Z4QkZGROJ5JWkKqcZSQ/Px8ipuyTExMMjIyUEI2dA/NR0dH43gmaQmpNmjQIJyuf0ISotu9yCoqKrp06YLeCPHtt9+ihDyKioocHBzQmBBxcXEowaS6npDbt2//8MMPHTt2xOmqhbCwsB9//FGH90rQvVUHBQXheHkcO3aMvH2gsVozNjb+9ddfUYJJdTEhBQUF8fHxM2fO7Nu3b9OmTXGuBCIHent7kyLkLVDhJdKmT5+OTghhZWUl69ITdLsy2NjYML7AXB1KSGlpKRnNH374IfXDDC9CCo4dO/bQoUPKLCf3zTffoGGB5HvqNScnh24dcS8vL5RgVZ1ISFZW1qJFi+juGhKEXK3Nnz//2rVraFge6enp5OIETQrRtm1bMltAFUlRr4yqk33lBVF5Qi5fvvzxxx+LWfSAwiuvvDJx4sSLFy+iEzJwd3dHYwLNnj0bJaRDEku98vz+/ftRhVWqTQj53J81a5bC2XgWyQmZMIhccedvpaamUq99SD58jhw5gkJSINeuPXr0QHWBmjVrppOlXAVRYUKqqqo2btxoZ2eH86BTZCa6du1aqfZNfvz4cWRkpMgtf0mXMjMzUVE0Mfu1v/POO6jCMLUlhJz7wYMH4wwww8fHR/wPdr///rtUf1q7du3I9SfqikCuYFGRyq5du1CIYapKyJYtW3S+M9uLWFhYfP311+iocNu2bWvevDlqScHW1jY5ORnVhcvPz3/vvfdQi4q9vb2Ey3bJRyUJKSkpGT9+PF57hgUHBwsdFnfv3hW5AOmL1K9ff+7cuRTPjcTFxTk7O6MKLdI0yrFNDQnJzs7u06cPXnjm9ezZ8/r16+j6P0lMTHzttddwpDycnJzItK2wsBBNvtTJkyffffddit/O/wv5RM3KykJRtnGfEHJ93759e7zwnHB0dDx//jz+gBd4+PBhWFiYYntet27devLkyQcOHCDpJR/I6MR//lNeXk4+xH7++edly5Z5eXmJz0aNmTNnogHm8Z2Q1NRUioe2WdCsWbOUlBT8Gc85e/Ys9VeoIpmbm5NPrd69ew8YMMDb27tbt26Sv8KkIPtf8j7FcUJOnz4t7eRVYZaWln8bki+//LJRo0b4R2q0bt06/Kk84DUhFy5csLGxwUvOLSsrq19++QV/0pNVGoYNG4b/T6V8fHyk+nVIGVwm5NatW3LPXxVDJgA1uwfu2LHD2toa/6tKNWnSRJLfYZTEX0IePXrUt29fvOSq0KdPnwkTJuC/qJrcT3HJgb+ETJw4Ea+3hiscfX/1LM4Ssm3bNrzemv/P1NQ0MDCQYrE5ZQQEBCiwHJEceEoImchSPxKobs7OzseOHSMv0e7du8VsLCiTIUOGlJaW1pxE7vCUEPJC4yXXPIPMYZ79RZzM+E1MTPD/MWD48OGS7CqqK9wkhPrR09pr3rw5mTSPHz9+0aJF69atIy0S5D+Q//rRRx95e3u3aNEC/5QNdnZ2f3t77MGDBxn5sB0zZowCK9nJio+E5OfnS/5w+VNknJHZf3x8/F9//YX2XiAnJycxMTE0NJT6ASYJDRs27MaNG+jZc86ePdu5c2f8U10wMDBYuHAhesMzPhISERGBF15Srq6umzZtquVNe88qLi7eunWrDm8MWb16NbryYuRtZfTo0ThGWeTtjHyOoR+c4yAh2dnZTZo0wWsvEfIhEB0dXVZWhjaoVFRUbNu2TeH7Jnv37v3sz/D/iFwoKvy4ZWBg4K1bt9A8/zhIyOzZs/HaS2Ts2LESrgd3584dZX7vMzQ0DA8Pp/hSKCsra9KkSQpM393d3Q8cOIBW1YL1hJDxZ2VlhTMgWoMGDTZu3IjSkoqJiaFe76M2XnvtNTIFQmNUzp8/Ty66RD7j/iLOzs4bNmzg9yvdl2A9IStXrsRJEI1cqh09ehR1ZXD8+PFmzZqhMUmFhIRItXJ7enr6jBkzpPraw9jYeNCgQdu3b5d1l13dYjoh5eXl3bp1w9kQx9LS8sSJE6grm9OnT0v4iUdYW1vLcS/TvXv3vvvuO/KRQuZjFA9FWVhY9O/ff+nSpQqsJ69zTCeEvCtL8lBb/fr1k5KSUFRmP/zwg1SXWwMGDLh69SrqyqOoqOjkyZNr1qwhH1NeXl5t27YlbyXk5SJzHoMnjIyMzM3NbW1tyVuVn59fRETE/v37a/8UsQownRCRi8089dVXX6GiIjZt2oSGxSHzclRUyoMHD27evHnp0qVz586dOnUqNTU1LS3tjz/+INd4VVVV+Ed1DLsJIdM+Sb5I9ff3R0UFBQYGonkROnbsqOLre16wm5CffvpJ/CUWmRXo5Lv5O3fuiH8EUl9fn7wIqKjREXYTsnjxYowUEb788kuUU9z69evRCREWLVqEchodYTchdDstPYtcpOnwrtJHjx6J349h8ODBKKfREUYTUlRURLGf5X9ZuXIlyunI119/ja7QIi8C41s0qR6jCTl79my9evUwTKi8+uqrcuxMIAiZjYhcr8jQ0PDMmTMop9EFRhOyfft2jBFaAQEBqKVT4u+u5XH1AzVhNCH/+te/MEBoxcTEoJZO7dixAx2iFRERgVoaXWA0ISEhIRggVExMTCTcREaMq1evirxZUO5dnjUvx2hCRH6R1a5dO5HPfkilvLy8S5cu6BaVgQMHopZGF1hMSFVVlcjH90jAUIsBfn5+6BaV7t2787WMp8qwmJBHjx6J3MBl/PjxqMUAkXeXtW/f/tntCjQKYzEhDx48IJdJGCBUwsLCUIsBCxYsQLeotGrVimKbKI1UWExIcXGxg4MDBgiVefPmoRYDli1bhm5RadGihfajoQ4xmhBHR0cMECpqSkjLli21hOgQiwkhl90i73v/9NNPUYsBIpcysre3LyoqQi2N4lhMSFlZmchvSIODg1GLAR999BG6RaVjx46qXCGBFywmpKqq6o033sAAodKvXz/UYoDI33Y8PDw4XTVdHVhMCDF8+HAMECq2trb3799HLZ0Sf8Xo6+uLWhpdYDQhkyZNwgChYmhoePbsWdTSqfT0dCMjI3SLyrhx41BLowuMJmT58uUYILR0/nBIjbVr16JDtBYvXoxaGl1gNCH79+/HAKHVv39/1NIp8U9K7t27F7U0usBoQi5dumRqaooxQqV+/foXL15EOR25cuWKyBt7TUxMLly4gHIaXWA0IY8ePRK/FNCMGTNQTkfCw8PRFVodOnTQbsrSLUYTQrz77rsYJrQsLS11uEz/3bt3RT6CSzDypGRdxm5CvvrqKwwTEaZMmYJyips5cyY6IYLCq0VqnsduQsgswtjYGCOFFrmOT01NRUUF/fLLLyLnUQTpvM6nUhp2E1JZWenu7o7BIoKrq6vCd22UlZX16tULzYvQo0cP7dd0nWM3IYTIJyuemjBhAioq4pNPPkHD4tRms0JpkWzn5uZev379t99+u3TpUmZm5h9//HH79m1GblDQCaYTkpGRIdXeYsuWLUNRma1atQpNijZy5MicnBzUlQeJRHp6+tatW0mq33zzzS5durRq1crCwqJBgwbkla9fv36jRo2aN2/eoUMHLy+vwMBA8jJ+//33d+7cwfF1ANMJIQYMGIDxIo6ent7atWtRVDabN2/W19dHk1Jo3759XFwcqkuHXHYeOXJk6tSpTk5OJAZorNasra2HDx++bt068gmDiurFekJ27tyJ0yKFL774AnVlsHLlSkn2A/ovJHJhYWFSTaWuXr06f/588QsK13jllVf8/f1JhlU8X2I9IWRkdOzYESdECiEhIcXFxagukZKSkokTJ6IBefTs2fPcuXNoj8rly5cnTZpExjQqSsrT03PXrl2q3IWH9YQQUVFROA8S6datm4Rbfh4/flyS79z+UePGjdesWYNWhcjLyyOfQmR2gUKy8fb2Tk5ORqtqwUFC7t+/L3Lpk+cZGhqSDxORvzaQd2Xy0SFyBW6h/Pz8bty4gR7Uwp49e1577TUcLD8DA4PQ0NDc3Fw0zz8OEkJER0fjDEjK3Nyc5OTkyZMVFRVoqRYqKytPnTo1YcIEBd6V/5adnV1tbvgl7yyTJ0/GMcoiF8Y//vgj+sE5PhJCRrDIVRhfztXVNTw8PDExMTs7G00+59atW+TabN68eR4eHnLMyIUib9Uv+ZkiMzNT1lfsH5mYmOhwAzAJ8ZEQ4sSJEwpcz1haWjo5OQ0cOHDUqFEfPTF69OhBgwY5Ozs3bdoU/4gZLi4uf7tJPJkMWFtb4x/pFIkx70uqcpMQYtq0aXjhNf+nQYMGS5YswQv0xMGDB8mcHv83Az744INHjx6hcxziKSHFxcUi1/NVK19f399//528RIcPHyaZwf/KjICAAEEzPabwlBAiNTWV4jfgusDW1pZMpV599VX8d8aEhITgFPKGs4QQ4tdG0OjE/PnzcQq5wl9CCF19iSkTcqUufrtD9hkYGMTGxuIU8oPLhJCL2rfeegsvPOcGDBhQ823PmjVrzM3N8b+qVLNmza5fv15zEnnBZUKIwsLCPn364IXnlpub27M/P587d06SR69YNmTIEL5u3+I1IQQZW1yPJxcXl+cXmigtLQ0LC5P2FnrWbN26FX8tDzhOCJGXl9e3b1+88Fzx9PS8ffs2/oznxMXFSX4rWi2ZmJjY2to6Ozu7urp27dq1bdu2kt8ObGdnR04c/lTm8Z0Qori4eMSIEXjtOTF48OB/HCI5OTlkBo8D5Ne8efNRo0bFxMSkp6eTvj193uPBgwfXrl1LSEj47LPPSGDwr0WbO3duTX32cZ8QglzXfvrpp3jtmTd58uTa72S9efNmue92cXR0XLFixUs+0J4qLy8nUSHxxpEikD/qzz//RF22qSEhNbZs2aKrm21ryczMLCoqCt2ttczMTB8fH5SQlJ6e3rRp0ygeOt+9e3ebNm1QhRYvK3arJyHE+fPne/fujTPAGDc3t59++gkdFYh85syfP1+qRS1qWFpailkz+9atW76+vqhFhcxwyCUcyjFMVQkhyGBasGBBw4YNcR4YQEb27NmzxS+/e+zYsU6dOqGoOGQuLn5/lcrKyuDgYFSkwsWy9mpLSI1ff/11yJAhOA86NXDgQAkXfczPzx8/fjxK0yKfHlJtP0Qm9P7+/qgr3Pvvv49CDFNnQmrs379fhz+YkMuqnTt3oiuS2rFjh5WVFZoRSF9fn7wsKCSF4uJiFxcXVBeoRYsWd+/eRSFWqTkhRHl5ORmmXl5eOCeK6NGjxzfffCPrQxHUa0d8/PHHKCGdM2fOUC9SfPjwYVRhlcoT8tTRo0cDAwPJBQbOjAwsLCzee++9hIQENCmbzMxMuhFpZ2dHrtNQRVLUC7GSGRpKsKquJKTGn3/+GR0d7efnR32V8rymTZsOGzZs48aNN2/eRDMy2759O9oWaPny5SghtezsbLqf3r29vVGCVXUrIU+RqBw6dCgsLKxfv362traGhoY4Y7VgYGBgY2PTt2/fWbNmkWt65TfxoduZhHx+yroK8IcffoiWhGjVqlVhYSFKMKmOJuRZeXl506dPxxmrhQkTJuj2tqKhQ4eiK0LI/cXRkSNH0JIQJiYm6enpKMEkLSHVBC3YvnDhQhymC5WVlXT3R8l9Ry35KCAfCGhMCAVmbmJoCam2bNkynK5a0O1dd2SqTSbc6EqtGRsbp6WloYRs6G7ZiomJwfFM0hJSjaOE3Lx5s0mTJuhKrZGJkwIrhYaGhqI9IVasWIHjmaQlpBpHCbl8+TLFPTXOzs4KLFq1ZMkStCfEggULcDyTtIRU4yghFy9epFgRy9XVVYG1D+n235ozZw6OZ5KWkGocJSQzM9PMzAxdqbVu3bqVl5ejhGyWL1+O9oSYN28ejmeSlpBqHCXk2rVrFIuOtmnTpqioCCVkM3v2bLQnxNKlS3E8k7SEVOMoIXfu3GnRogW6UmuNGjVSYM/BgIAAtCfE+vXrcTyTtIRU4yghpaWldDvmxMfHo4Q8ysrKOnfujMaEYPwpES0h1ThKCEG3UNisWbNwvDzotvY2MDA4deoUSjBJS0g1vhISEhKCrgjRqVOn2q8gQYFMJ9CSEJaWlsrf2CaIlpBqfCXkyy+/RFcEku9hjEePHr3++utoRggXFxfGd5rWElKNr4QcP34cXRHIx8cHJaS2bds2tCHQ2LFjUYJVWkKq8ZWQvLw86k3Y5HgwuKioqH379mhAoM2bN6MKq7SEVOMrIYSfnx96I5Ctre1LdjOlM3HiRFQXyNTU9LfffkMVVmkJqcZdQjZt2oTeCNe/f38Jp+xieuLl5cX4JITQElKNu4TcunVLzILTo0aNkuQmlNjYWDHr3DF+V28NLSHVuEsI8f7776NDVMh1mshVHTZs2CAmHubm5llZWajFMC0h1QTdcsfInXbff/89OkSrS5cuP/74I8oJUVhYSD33eIp8jqEc27SEVFu5ciXOWy0w8jxDZWWl+EWKyYdAaGjo5cuXUfSflJaWbtmypWPHjjielqGhIeM/pT9VpxNSUFCQkJAwe/ZsQae8Xbt2M2fOjIuLk2ntqdrbt28f+iQOmdIEBwfHx8eTFwSl/7+HDx+mpaUtWrSIfOzgGHGGDRuG0syriwmpqKg4fPjwmDFjbGxscMaotGzZMjAw8MCBAwo8vve3Hj9+3K9fP/RGCuQvGjRo0OTJk8nnZGRk5NKlS8l7QUBAQKdOnQQtmPRyxsbGZ86cwd/AvLqVEPKuv2rVqm7duuFcScTJyYnMZCg24hDv559/rlevHvrBCTKHQe95UFcSQq4ToqKiZN0c0MHBYcWKFeJ3QRCKekVQnbCzs9PJWwm1OpGQpKQkV1dXnCKZde3a9dChQ2hYEUVFRXR3DerEnj170G9OqDwhxcXFkyZN0tPTw/lRSkhIyItmvXI4depU/fr10TbDpkyZgh7zQ80JIdNB6q0txCOzW+pt2Sh8/fXXaJhVffr0Ide66C4/VJuQnTt3Uqy8Ji1zc3Mld9efNm0aGmYPmQEy/qTUi6gzIatWrdLX18fJ0bUlS5agWzJ7/PixyI0FZWJjY6PAmqgyUWFC6Fb+k1VERAQ6J7PKysrRo0ejVTZYW1ufO3cO/eOQ2hISGRmJM8OYRYsWoYsyq6qqEn/TlFTat2+fkZGBnvFJVQnZtm2b8l9b1d6GDRvQUfktXbrUwMAADeuIt7e3YvtyyUc9CTl16hTFcp1KMjEx+eGHH9Bd+e3fv1/kbTViTJkyhcdvrp6nkoTk5ua2adMGJ4dh9vb2t2/fRqfld+PGjZEjR6JtpTg6OnL3s+BLqCQhH3zwAc4P8/z8/NBppZCLT7plGoWqV69eaGjoX3/9hYZVQQ0J2b17N04RJ5T8kaRGXl7ewoULW7ZsiR5IjWSDfFjx8siHINwnpKCggHys40RxgkwPZN2W9kVIo8uWLZP2Jq4mTZoEBQWlpKSgDdXhPiFz5szBuZKCg4PD22+/TWquW7du+xPr16+PiIgYMWJE69at8Y+kMGPGDPwBiistLT148OCoUaNsbW3RG+HMzMz69u27atWq69evo65K8Z2Q7OxsCwsLnDQRGjZsOGbMmMTExJdsslFcXHzkyJEPP/zQ3Nwch4lAiiiwXcHLkUuvhIQE8nYwcOBA8tZgamqKzv0dfX19KysrNze38ePHb9mypfYP7vKO74R89tlnOIG09PT0goODL126hIq1cOXKFZIT8b82TJ06FRUZcO/ePfIifP/992RaTz4ZFi9ePH/+fDJ1Wb58+aZNmw4cOHD27Nnbt2+zv7yV5DhOCHkLpNhr5lnkMmPfvn0oJ1BcXBx530UhKpaWljqZjWgE4TghGzduxFij0rVrV5HXOVlZWT169EA5KqtXr0YtDas4ToiYRQy6d+8uyft3YWHhG2+8gaLCkYDVwesWvvCaEHLR/PKZ5Us4Ojpeu3YNhUQjV+fUK58bGxunp6ejkIZJvCYkKioKo0wgIyOj5ORkVJHIiRMnqB+CjYyMRBUNk3hNyIgRIzDEBJLpUelZs2ahAYGGDBmCEhomcZmQBw8e0P2ObmVlJdNdQ7m5uXQ30pKjlFzzQSMUlwlJS0ujW0Zt5syZKCGDefPmoRkh9PX1U1NTUULDHi4TsmvXLowvIci0WNbn3a5cuUL35UFMTAxKaNjDZULonkT38PCoqqpCCXnQ7XQeHh6O4zXs4TIhdM9hT58+HcfL5vPPP0djQgQFBeF4DXu4TAjdF1nR0dE4XjY7d+5EY0L4+vrieA17uExI//79MbiEkPxnkOelpKRQLCVBrs1wvIY9XCaEYu8lQ0NDBfasSEtLo9jaz9PTU+4JkoYalwnp1asXBletGRkZKbCuWUZGBsWP6+7u7trdWcziMiEUXxmRi5+TJ0/ieNmcPn2aYq8mEngcr2EPlwkhU1sMLiFiY2NxvGwOHTqExoQYOHAgjtewh8uE0K3fvHjxYhwvG0F76j4VEBCA4zXs4TIh4eHhGFxCKLD/KhnraEyITz75BMdr2MNlQuieLrS0tJR1B72CggJra2s0JoT2pCHLuEzI8ePH6Vaw3rx5M0rIgO7nQiIpKQklNOzhMiE5OTlNmzbF+BLCzc2toqICVSRVVVVF9zhu48aNs7KyUEXDHi4TQoYj3T2CxLZt21BFUnv27EEDAnl4eGg/hrCMy4QQ1CtlOTg43L17F1UkQmYg1Du1K3A/pUYMXhOSnJxMNxUhJP92NTAwEKWFS0xMRBUNk3hNSElJCfUKI0RYWBgKibZw4UIUFc7e3v4l66BqWMBrQgjqxRNqSLL7pshdRUNDQ1FIwyqOE5KRkWFkZISxRmXMmDH5+fkoJxB5758wYQIKUTEwMFDgdmONSBwnhBg2bBiGGy1nZ+f4+HiUq7WjR4+6uLigBC3tdiwu8J2QY8eOYbiJM3To0MOHD5eVlaHuC5SXlyclJVEv1fVf4uLiUFfDML4TQgwePBgjTjQnJ6epU6fu2bMnLS0tJyfn3hPkP6Snp+/du3fatGmdO3fGPxXNx8dHe2qKC9wnhFzKGxsbY9xJxMTEpFmzZg5PWFlZUTw2+HKGhoYnTpzAH6BhG/cJIcgbP4YeJ8aNG4eua5inhoQUFBSI+W1EYfb29pL/qK+RjxoSQiQnJ9OtU6owfX19bYLOF5UkhFi8eDGGIcPmzJmD7mo4oZ6EEO+//z5GIpP8/PwqKyvRVw0nVJWQkpISHx8fjEfG9OrV6969e+iohh+qSgiRm5tLsZqW3FxdXWXat0QjN7UlhCAh6du3L8YmAzw9PbV48EuFCSHu378/cuRIjFCdGjp0aGFhIbql4ZA6E0JUVVXR7VUgoRkzZmhTc96pNiE19u7d6+DggAGrIBsbmx07dqATGp6pPCFEdnZ2UFCQvr4+Bq/83n333Rs3bqB5DefUn5AaCQkJPXr0wBCWjaur6/79+9GkRhXqSkIIMiUgVz4yfRfs5ua2devW8vJyNKZRizqUkBqPHz+Oj48fPXq0paUlRrcIFhYWAQEBBw4c0LKhVnUuIU/dvHkzOjqajO82bdoInaU4OjqOGDFi/fr1169fRzmNStXdhDz18OHDixcvfvfdd/PnzyeTbHd3dxsbGzMzM4MnGjRoQP4ruYjy9/ePiIjYtWtXenp6SUkJDtao23/+87+yC2TxWZu58AAAAABJRU5ErkJggg==;" vertex="1" parent="1">
                    <mxGeometry x="892" y="402" width="30" height="30" as="geometry"/>
                </mxCell>
                <mxCell id="52" value="&lt;span style=&quot;font-weight: normal&quot;&gt;Integration Domain&lt;br&gt;Court Case Management (CCM)&lt;/span&gt;" style="text;strokeColor=none;fillColor=none;html=1;fontSize=24;fontStyle=1;verticalAlign=middle;align=left;rounded=1;labelBackgroundColor=none;fontColor=#000000;" vertex="1" parent="1">
                    <mxGeometry x="80.5" y="215" width="363" height="65" as="geometry"/>
                </mxCell>
                <mxCell id="53" value="&amp;nbsp; &amp;nbsp;KPIs&lt;br&gt;&amp;nbsp; &amp;nbsp;(Kafka Topic)" style="strokeWidth=2;html=1;shape=mxgraph.flowchart.multi-document;whiteSpace=wrap;fillColor=#f5f5f5;fontColor=#333333;strokeColor=#000000;align=left;" vertex="1" parent="1">
                    <mxGeometry x="406.14" y="494" width="143" height="90" as="geometry"/>
                </mxCell>
                <mxCell id="54" value="" style="shape=image;verticalLabelPosition=bottom;verticalAlign=top;imageAspect=0;aspect=fixed;image=data:image/png,iVBORw0KGgoAAAANSUhEUgAAAQsAAAELCAIAAABBNzQFAAAAAXNSR0IArs4c6QAAAARnQU1BAACxjwv8YQUAAAAJcEhZcwAADsMAAA7DAcdvqGQAAChPSURBVHhe7d13WBXH3gfwlyIgohgMigpIscYIFqRZgiKWx4jRoIEUBZRoLBijRiVBLNeWq2hUYuxgzGOL2GkaTEQTsSWAijGxIMagNEFBKXLfQb6vj+81Gna2nJllP3/d4v5mODvfc3bO2Z35n//UeaWlpRcuXNi9e/fcuXP9/f3d3NxsbGwaNGhg8ISpqam1tbWrq+s777wTERGxc+fO9PT0kpISHKxRu7qbkJs3b27ZsoVEonXr1vr6+v8jhIODg5+f39q1a69fv45yGpWqcwl5/PhxQkLCqFGjLC0tMd5FsLCwCAgIOHjwYHl5ORrQqEsdSkhFRcX27dt79uyJ0S0pcm0WExNTVlaGxjRqUVcSEhcX5+npieEsGxcXl3379qFJjSqoPyHZ2dmBgYF6enoYxfIj113a/EQ1VJ6Q2NhYMqvGyFWQtbU1uaJDJzQ8U21CqqqqwsLCMGB1ZPr06ZWVleiQhk/qTEhxcbGfnx/GqU4NHTq0oKAA3dJwSIUJyc3N7dOnD0YoAzw8PG7fvo3OaXijtoSQeMj0fa4Y3bt3/+uvv9BFDVdUlZCSkhJvb2+MSsaQ3BYWFqKjGn6oKiHvvfcexiOT3n77bW3izh31JGThwoUYiQwLDw9HdzWcUElCkpOTDQ0NMQwZpq+vf/jwYXRawwM1JKSgoKBdu3YYg8yzt7e/c+cOuq5hnhoSMnXqVIw+TowbNw5d1zCP+4ScPn3a2NgYQ08iJiYmVlZWDk+Q/1C/fn38HxIhF4QpKSn4AzRs4z4hgwcPxrgTzdnZmXwcxcbGpqWl5eTk3HuCXBGlp6fv3bt3+vTpXbp0wT8VzcfHp6qqCn+DhmF8J+TYsWMYceK89dZbZAL9j093VFRUJCUljRw5EoeJExcXh7oahvGdkGHDhmG40ercuXNCQgLK1VpycnL37t1RgtaAAQNQTsMwjhOSkZFhZGSE4UZl7Nix+fn5KCdQcXHxxIkTUYiKgYHBmTNnUE7DKo4TMmvWLIw1Kp9//jkKibBkyRKUozJ58mQU0rCK14SUlJS0b98eA004ki4UEk3Mb/l2dnZFRUUopGESrwkhMwHqB2sDAgJQRSKBgYEoLRzFLEijJF4T8tlnn2GICeTg4HD37l1UkUhBQQH1B9q0adNQRcMkLhNSVVXl5eWFISbQt99+iyqS2rNnDxoQyMPD4/Hjx6iiYQ+XCcnJyaFbD87Nza2iogJVJEUd2saNG2dlZaGKhj1cJuT48eN0k5DNmzejhAx27tyJZgRKSkpCCQ17uEzIxo0bMbiEaNq0qeQzkGeR2Yi1tTUaE2L16tUooWEPlwkJDw/H4BJi+PDhOF42AQEBaEyITz75BMdr2MNlQoKDgzG4hFi8eDGOl83KlSvRmBCSf/uskRCXCfH19cXgEiI2NhbHy+bQoUNoTIiBAwfieA17uEwIxXJYZGZ/8uRJHC+b06dPUzwM3KtXLxyvYQ+XCSFDCoOr1oyMjM6dO4fjZZORkUHxuJW7u7v2kwizuExI7969Mbhqjby1K3AjbVpaGsUDj56entrTVMziMiH9+/fH4BIiOTkZx8smJSWF4ocactGI4zXs4TIhI0aMwOASIjo6GsfLZseOHWhMCF9fXxyvYQ+XCaF7dGn69Ok4Xjaff/45GhMiKCgIx2vYw2VC6J5b8vDwkPtyn27NeW0hRpZxmZBdu3ZhcAlB5tDp6ekoIYMrV66YmpqiMSFiYmJQQsMeLhOSlpZWr149jC8hPv30U5SQwbx589CMEPr6+qmpqSihYQ+XCXnw4EHr1q0xxISwsrKSabOb3NxcutsWbWxstE2qWMZlQgjqRatCQ0NRQlIzZ85EAwINGTIEJTRM4jUhUVFRGGICGRkZHT16FFUkkpKSQr1yaWRkJKpomMRrQjIzM+mmxYSDg4OE+52Tyzbqh9Tl/vJAIx6vCSH69euHgSacu7u7JE9TFRYWvvHGGygqnKenp3ZHFuM4TsimTZsw0Ki4uLhcvXoVtahkZWX16NED5aisWrUKtTSs4jgh+fn5LVu2xFijYmNjs3fvXpQT6PDhw/b29ihExdLSMicnB+V0rays7MaNG6dOnTp06FB0dDSZ5q1cuZIEeMOGDbt37z527NilS5fq5k6lHCeEoLvL478EBQWR04+KtfDbb7+NHTtWX18fx9OaOnUqKurI/fv3f/rpp2XLlo0cObJz585NmjR5yR9lZmbm6Ojo7e09Y8aM2NjY7OxsVFE7vhNCzhM5rziHIjRs2DA4ODghIeHevXso/Zzi4uKkpKSQkJBGjRrhMBHMzc3/+OMPlFYWmfmQz4QpU6a0b9+eet1K8gE4bNiwzZs3q36feL4TQkREROCkScHBwWH48OFz5sxZt27d9ifWr19PmvDz8yPvoPhHUiDvxPgDFFRUVESumjw9PdEJKVhbW4eGhqalpaEN1eE+IQUFBXS/r+sQGVUKz0BKSkrWrFnTtm1b9EBqpqamY8aMuXDhAtpTEe4TQnz33Xc4UZzYunUruq6Iffv2de3aFW3LqXHjxmFhYdRbsrBJDQkhxKy+rjBywYZOy498Uo0dOxYNK8XJySkxMRE94J9KEpKXl8fFlup2dnYy3Tr5PDIdl++y6uUMDAzCw8MrKyvRFZ6pJCFEamqqmZkZThGTjI2NyahFd2UWFRUl+SbXQvn6+ubm5qJD3FJPQohvv/1W/M8U8lm/fj06KjPqG40lR+Y/uvpSWyqqSghBty6oAhYuXIguymzSpElokg1t2rQR9IMsa9SWEOKLL77AyWHGnDlz0DmZhYaGokmWkJD8/vvv6CJvVJgQYs2aNWSyiPOja0uWLEG3ZDZ37lw0yR5nZ2dZt6aQjzoTQuzevZtunyoJmZubK7ZKw9atW9EqqwYPHlxeXo7u8kO1CSHOnz/v6uqK86O4Tp06nThxAl2RGflLGzZsiIYZFhYWhh7zQ80JIe7fv08uzZX/gmvs2LGK/bRcUlLi4uKChtmmp6cXHx+PfnNC5QmpcfToUQ8PD5wlmXXu3PngwYNoWBHUG2frRNu2bfla26VOJIQoKytbu3Zthw4dcKJkYGdnFxkZST610KQiyPWVzn8ZFEqB5WElVFcSUqOwsDAqKkrya5LXX3/93//+t04eGHzzzTfRCSlYWlq6u7sHBATMmDEjIiKCfDqNGzeuf//+0t49bWpqytH6FXUrITUqKioSExPJuW/VqhVOGpUWLVqMGjVq3759Dx8+RGllkWt6dEUc8ink5+e3ffv2Fz05WFRUlJKSQubZUkXF398fpZlXFxPy1L17944cOTJ79mwrKyuculogH0HTpk0jkw3d3nRUVVXl7e2NPokQGBhY++efyCu2evVqke8sRL169RTYEkwSdTohTw0YMACn7p/o6emdPn0ah+kUeVMX+R0dmZUdPnwY5YS4efMm+fBEFVohISEoxzYtIdV8fHxw3v4JSQgjC1EHBQWhT1TI7OLPP/9ELSorVqyg2Nb0KQsLi1u3bqEWw7SEVKv94nQkIT///DMO052cnJxXX30VfRJu6NChDx48QC0RYmJixIRkzZo1KMQwLSHVuEsIGZrokHA9e/YsLi5GIdFWrVqFusKRl539LU61hFTjLiH+/v7okEDNmzcXudLk84KDg1FdIDMzM/afHtESUo2vhBQUFFB/m7RlyxZUkU5ubi718pMKL2pBQUtINb4ScuLECdINdEiI3r17y7SQ9saNG9GGQOPGjUMJVmkJqcZXQsgEF70RaN++fSghtdLSUrqVNFxdXRmfimgJqcZXQsj7LnojRIcOHWT97X/BggVoSYhmzZoptvgLHS0h1fhKCN1P6XLfL/jLL78YGRmhsVozMDBgfKNTLSHVOEoI+Rx4/fXX0RshDh06hBLyePTokZOTExoTQr5rP0loCanGUULu3LlDsWtKw4YNFVhL4Z133kF7QmzYsAHHM0lLSDWOEnLt2rXGjRujN7XWunXrl2z8IJVZs2ahPSG++OILHM8kLSHVOEpIZmYmxSPpXbt2VWAVheXLl6M9IebNm4fjmaQlpBpHCbl48WKDBg3Qm1pzc3NTYEtRujtQFFtMjI6WkGocJeTy5csUnyGdO3cmM2mUkM3SpUvRnhALFizA8UzSElKNo4RkZWVZWFigN7XWqlWrvLw8lJDN1KlT0Z4QkZGROJ5JWkKqcZSQ/Px8ipuyTExMMjIyUEI2dA/NR0dH43gmaQmpNmjQIJyuf0ISotu9yCoqKrp06YLeCPHtt9+ihDyKioocHBzQmBBxcXEowaS6npDbt2//8MMPHTt2xOmqhbCwsB9//FGH90rQvVUHBQXheHkcO3aMvH2gsVozNjb+9ddfUYJJdTEhBQUF8fHxM2fO7Nu3b9OmTXGuBCIHent7kyLkLVDhJdKmT5+OTghhZWUl69ITdLsy2NjYML7AXB1KSGlpKRnNH374IfXDDC9CCo4dO/bQoUPKLCf3zTffoGGB5HvqNScnh24dcS8vL5RgVZ1ISFZW1qJFi+juGhKEXK3Nnz//2rVraFge6enp5OIETQrRtm1bMltAFUlRr4yqk33lBVF5Qi5fvvzxxx+LWfSAwiuvvDJx4sSLFy+iEzJwd3dHYwLNnj0bJaRDEku98vz+/ftRhVWqTQj53J81a5bC2XgWyQmZMIhccedvpaamUq99SD58jhw5gkJSINeuPXr0QHWBmjVrppOlXAVRYUKqqqo2btxoZ2eH86BTZCa6du1aqfZNfvz4cWRkpMgtf0mXMjMzUVE0Mfu1v/POO6jCMLUlhJz7wYMH4wwww8fHR/wPdr///rtUf1q7du3I9SfqikCuYFGRyq5du1CIYapKyJYtW3S+M9uLWFhYfP311+iocNu2bWvevDlqScHW1jY5ORnVhcvPz3/vvfdQi4q9vb2Ey3bJRyUJKSkpGT9+PF57hgUHBwsdFnfv3hW5AOmL1K9ff+7cuRTPjcTFxTk7O6MKLdI0yrFNDQnJzs7u06cPXnjm9ezZ8/r16+j6P0lMTHzttddwpDycnJzItK2wsBBNvtTJkyffffddit/O/wv5RM3KykJRtnGfEHJ93759e7zwnHB0dDx//jz+gBd4+PBhWFiYYntet27devLkyQcOHCDpJR/I6MR//lNeXk4+xH7++edly5Z5eXmJz0aNmTNnogHm8Z2Q1NRUioe2WdCsWbOUlBT8Gc85e/Ys9VeoIpmbm5NPrd69ew8YMMDb27tbt26Sv8KkIPtf8j7FcUJOnz4t7eRVYZaWln8bki+//LJRo0b4R2q0bt06/Kk84DUhFy5csLGxwUvOLSsrq19++QV/0pNVGoYNG4b/T6V8fHyk+nVIGVwm5NatW3LPXxVDJgA1uwfu2LHD2toa/6tKNWnSRJLfYZTEX0IePXrUt29fvOSq0KdPnwkTJuC/qJrcT3HJgb+ETJw4Ea+3hiscfX/1LM4Ssm3bNrzemv/P1NQ0MDCQYrE5ZQQEBCiwHJEceEoImchSPxKobs7OzseOHSMv0e7du8VsLCiTIUOGlJaW1pxE7vCUEPJC4yXXPIPMYZ79RZzM+E1MTPD/MWD48OGS7CqqK9wkhPrR09pr3rw5mTSPHz9+0aJF69atIy0S5D+Q//rRRx95e3u3aNEC/5QNdnZ2f3t77MGDBxn5sB0zZowCK9nJio+E5OfnS/5w+VNknJHZf3x8/F9//YX2XiAnJycxMTE0NJT6ASYJDRs27MaNG+jZc86ePdu5c2f8U10wMDBYuHAhesMzPhISERGBF15Srq6umzZtquVNe88qLi7eunWrDm8MWb16NbryYuRtZfTo0ThGWeTtjHyOoR+c4yAh2dnZTZo0wWsvEfIhEB0dXVZWhjaoVFRUbNu2TeH7Jnv37v3sz/D/iFwoKvy4ZWBg4K1bt9A8/zhIyOzZs/HaS2Ts2LESrgd3584dZX7vMzQ0DA8Pp/hSKCsra9KkSQpM393d3Q8cOIBW1YL1hJDxZ2VlhTMgWoMGDTZu3IjSkoqJiaFe76M2XnvtNTIFQmNUzp8/Ty66RD7j/iLOzs4bNmzg9yvdl2A9IStXrsRJEI1cqh09ehR1ZXD8+PFmzZqhMUmFhIRItXJ7enr6jBkzpPraw9jYeNCgQdu3b5d1l13dYjoh5eXl3bp1w9kQx9LS8sSJE6grm9OnT0v4iUdYW1vLcS/TvXv3vvvuO/KRQuZjFA9FWVhY9O/ff+nSpQqsJ69zTCeEvCtL8lBb/fr1k5KSUFRmP/zwg1SXWwMGDLh69SrqyqOoqOjkyZNr1qwhH1NeXl5t27YlbyXk5SJzHoMnjIyMzM3NbW1tyVuVn59fRETE/v37a/8UsQownRCRi8089dVXX6GiIjZt2oSGxSHzclRUyoMHD27evHnp0qVz586dOnUqNTU1LS3tjz/+INd4VVVV+Ed1DLsJIdM+Sb5I9ff3R0UFBQYGonkROnbsqOLre16wm5CffvpJ/CUWmRXo5Lv5O3fuiH8EUl9fn7wIqKjREXYTsnjxYowUEb788kuUU9z69evRCREWLVqEchodYTchdDstPYtcpOnwrtJHjx6J349h8ODBKKfREUYTUlRURLGf5X9ZuXIlyunI119/ja7QIi8C41s0qR6jCTl79my9evUwTKi8+uqrcuxMIAiZjYhcr8jQ0PDMmTMop9EFRhOyfft2jBFaAQEBqKVT4u+u5XH1AzVhNCH/+te/MEBoxcTEoJZO7dixAx2iFRERgVoaXWA0ISEhIRggVExMTCTcREaMq1evirxZUO5dnjUvx2hCRH6R1a5dO5HPfkilvLy8S5cu6BaVgQMHopZGF1hMSFVVlcjH90jAUIsBfn5+6BaV7t2787WMp8qwmJBHjx6J3MBl/PjxqMUAkXeXtW/f/tntCjQKYzEhDx48IJdJGCBUwsLCUIsBCxYsQLeotGrVimKbKI1UWExIcXGxg4MDBgiVefPmoRYDli1bhm5RadGihfajoQ4xmhBHR0cMECpqSkjLli21hOgQiwkhl90i73v/9NNPUYsBIpcysre3LyoqQi2N4lhMSFlZmchvSIODg1GLAR999BG6RaVjx46qXCGBFywmpKqq6o033sAAodKvXz/UYoDI33Y8PDw4XTVdHVhMCDF8+HAMECq2trb3799HLZ0Sf8Xo6+uLWhpdYDQhkyZNwgChYmhoePbsWdTSqfT0dCMjI3SLyrhx41BLowuMJmT58uUYILR0/nBIjbVr16JDtBYvXoxaGl1gNCH79+/HAKHVv39/1NIp8U9K7t27F7U0usBoQi5dumRqaooxQqV+/foXL15EOR25cuWKyBt7TUxMLly4gHIaXWA0IY8ePRK/FNCMGTNQTkfCw8PRFVodOnTQbsrSLUYTQrz77rsYJrQsLS11uEz/3bt3RT6CSzDypGRdxm5CvvrqKwwTEaZMmYJyips5cyY6IYLCq0VqnsduQsgswtjYGCOFFrmOT01NRUUF/fLLLyLnUQTpvM6nUhp2E1JZWenu7o7BIoKrq6vCd22UlZX16tULzYvQo0cP7dd0nWM3IYTIJyuemjBhAioq4pNPPkHD4tRms0JpkWzn5uZev379t99+u3TpUmZm5h9//HH79m1GblDQCaYTkpGRIdXeYsuWLUNRma1atQpNijZy5MicnBzUlQeJRHp6+tatW0mq33zzzS5durRq1crCwqJBgwbkla9fv36jRo2aN2/eoUMHLy+vwMBA8jJ+//33d+7cwfF1ANMJIQYMGIDxIo6ent7atWtRVDabN2/W19dHk1Jo3759XFwcqkuHXHYeOXJk6tSpTk5OJAZorNasra2HDx++bt068gmDiurFekJ27tyJ0yKFL774AnVlsHLlSkn2A/ovJHJhYWFSTaWuXr06f/588QsK13jllVf8/f1JhlU8X2I9IWRkdOzYESdECiEhIcXFxagukZKSkokTJ6IBefTs2fPcuXNoj8rly5cnTZpExjQqSsrT03PXrl2q3IWH9YQQUVFROA8S6datm4Rbfh4/flyS79z+UePGjdesWYNWhcjLyyOfQmR2gUKy8fb2Tk5ORqtqwUFC7t+/L3Lpk+cZGhqSDxORvzaQd2Xy0SFyBW6h/Pz8bty4gR7Uwp49e1577TUcLD8DA4PQ0NDc3Fw0zz8OEkJER0fjDEjK3Nyc5OTkyZMVFRVoqRYqKytPnTo1YcIEBd6V/5adnV1tbvgl7yyTJ0/GMcoiF8Y//vgj+sE5PhJCRrDIVRhfztXVNTw8PDExMTs7G00+59atW+TabN68eR4eHnLMyIUib9Uv+ZkiMzNT1lfsH5mYmOhwAzAJ8ZEQ4sSJEwpcz1haWjo5OQ0cOHDUqFEfPTF69OhBgwY5Ozs3bdoU/4gZLi4uf7tJPJkMWFtb4x/pFIkx70uqcpMQYtq0aXjhNf+nQYMGS5YswQv0xMGDB8mcHv83Az744INHjx6hcxziKSHFxcUi1/NVK19f399//528RIcPHyaZwf/KjICAAEEzPabwlBAiNTWV4jfgusDW1pZMpV599VX8d8aEhITgFPKGs4QQ4tdG0OjE/PnzcQq5wl9CCF19iSkTcqUufrtD9hkYGMTGxuIU8oPLhJCL2rfeegsvPOcGDBhQ823PmjVrzM3N8b+qVLNmza5fv15zEnnBZUKIwsLCPn364IXnlpub27M/P587d06SR69YNmTIEL5u3+I1IQQZW1yPJxcXl+cXmigtLQ0LC5P2FnrWbN26FX8tDzhOCJGXl9e3b1+88Fzx9PS8ffs2/oznxMXFSX4rWi2ZmJjY2to6Ozu7urp27dq1bdu2kt8ObGdnR04c/lTm8Z0Qori4eMSIEXjtOTF48OB/HCI5OTlkBo8D5Ne8efNRo0bFxMSkp6eTvj193uPBgwfXrl1LSEj47LPPSGDwr0WbO3duTX32cZ8QglzXfvrpp3jtmTd58uTa72S9efNmue92cXR0XLFixUs+0J4qLy8nUSHxxpEikD/qzz//RF22qSEhNbZs2aKrm21ryczMLCoqCt2ttczMTB8fH5SQlJ6e3rRp0ygeOt+9e3ebNm1QhRYvK3arJyHE+fPne/fujTPAGDc3t59++gkdFYh85syfP1+qRS1qWFpailkz+9atW76+vqhFhcxwyCUcyjFMVQkhyGBasGBBw4YNcR4YQEb27NmzxS+/e+zYsU6dOqGoOGQuLn5/lcrKyuDgYFSkwsWy9mpLSI1ff/11yJAhOA86NXDgQAkXfczPzx8/fjxK0yKfHlJtP0Qm9P7+/qgr3Pvvv49CDFNnQmrs379fhz+YkMuqnTt3oiuS2rFjh5WVFZoRSF9fn7wsKCSF4uJiFxcXVBeoRYsWd+/eRSFWqTkhRHl5ORmmXl5eOCeK6NGjxzfffCPrQxHUa0d8/PHHKCGdM2fOUC9SfPjwYVRhlcoT8tTRo0cDAwPJBQbOjAwsLCzee++9hIQENCmbzMxMuhFpZ2dHrtNQRVLUC7GSGRpKsKquJKTGn3/+GR0d7efnR32V8rymTZsOGzZs48aNN2/eRDMy2759O9oWaPny5SghtezsbLqf3r29vVGCVXUrIU+RqBw6dCgsLKxfv362traGhoY4Y7VgYGBgY2PTt2/fWbNmkWt65TfxoduZhHx+yroK8IcffoiWhGjVqlVhYSFKMKmOJuRZeXl506dPxxmrhQkTJuj2tqKhQ4eiK0LI/cXRkSNH0JIQJiYm6enpKMEkLSHVBC3YvnDhQhymC5WVlXT3R8l9Ry35KCAfCGhMCAVmbmJoCam2bNkynK5a0O1dd2SqTSbc6EqtGRsbp6WloYRs6G7ZiomJwfFM0hJSjaOE3Lx5s0mTJuhKrZGJkwIrhYaGhqI9IVasWIHjmaQlpBpHCbl8+TLFPTXOzs4KLFq1ZMkStCfEggULcDyTtIRU4yghFy9epFgRy9XVVYG1D+n235ozZw6OZ5KWkGocJSQzM9PMzAxdqbVu3bqVl5ejhGyWL1+O9oSYN28ejmeSlpBqHCXk2rVrFIuOtmnTpqioCCVkM3v2bLQnxNKlS3E8k7SEVOMoIXfu3GnRogW6UmuNGjVSYM/BgIAAtCfE+vXrcTyTtIRU4yghpaWldDvmxMfHo4Q8ysrKOnfujMaEYPwpES0h1ThKCEG3UNisWbNwvDzotvY2MDA4deoUSjBJS0g1vhISEhKCrgjRqVOn2q8gQYFMJ9CSEJaWlsrf2CaIlpBqfCXkyy+/RFcEku9hjEePHr3++utoRggXFxfGd5rWElKNr4QcP34cXRHIx8cHJaS2bds2tCHQ2LFjUYJVWkKq8ZWQvLw86k3Y5HgwuKioqH379mhAoM2bN6MKq7SEVOMrIYSfnx96I5Ctre1LdjOlM3HiRFQXyNTU9LfffkMVVmkJqcZdQjZt2oTeCNe/f38Jp+xieuLl5cX4JITQElKNu4TcunVLzILTo0aNkuQmlNjYWDHr3DF+V28NLSHVuEsI8f7776NDVMh1mshVHTZs2CAmHubm5llZWajFMC0h1QTdcsfInXbff/89OkSrS5cuP/74I8oJUVhYSD33eIp8jqEc27SEVFu5ciXOWy0w8jxDZWWl+EWKyYdAaGjo5cuXUfSflJaWbtmypWPHjjielqGhIeM/pT9VpxNSUFCQkJAwe/ZsQae8Xbt2M2fOjIuLk2ntqdrbt28f+iQOmdIEBwfHx8eTFwSl/7+HDx+mpaUtWrSIfOzgGHGGDRuG0syriwmpqKg4fPjwmDFjbGxscMaotGzZMjAw8MCBAwo8vve3Hj9+3K9fP/RGCuQvGjRo0OTJk8nnZGRk5NKlS8l7QUBAQKdOnQQtmPRyxsbGZ86cwd/AvLqVEPKuv2rVqm7duuFcScTJyYnMZCg24hDv559/rlevHvrBCTKHQe95UFcSQq4ToqKiZN0c0MHBYcWKFeJ3QRCKekVQnbCzs9PJWwm1OpGQpKQkV1dXnCKZde3a9dChQ2hYEUVFRXR3DerEnj170G9OqDwhxcXFkyZN0tPTw/lRSkhIyItmvXI4depU/fr10TbDpkyZgh7zQ80JIdNB6q0txCOzW+pt2Sh8/fXXaJhVffr0Ide66C4/VJuQnTt3Uqy8Ji1zc3Mld9efNm0aGmYPmQEy/qTUi6gzIatWrdLX18fJ0bUlS5agWzJ7/PixyI0FZWJjY6PAmqgyUWFC6Fb+k1VERAQ6J7PKysrRo0ejVTZYW1ufO3cO/eOQ2hISGRmJM8OYRYsWoYsyq6qqEn/TlFTat2+fkZGBnvFJVQnZtm2b8l9b1d6GDRvQUfktXbrUwMAADeuIt7e3YvtyyUc9CTl16hTFcp1KMjEx+eGHH9Bd+e3fv1/kbTViTJkyhcdvrp6nkoTk5ua2adMGJ4dh9vb2t2/fRqfld+PGjZEjR6JtpTg6OnL3s+BLqCQhH3zwAc4P8/z8/NBppZCLT7plGoWqV69eaGjoX3/9hYZVQQ0J2b17N04RJ5T8kaRGXl7ewoULW7ZsiR5IjWSDfFjx8siHINwnpKCggHys40RxgkwPZN2W9kVIo8uWLZP2Jq4mTZoEBQWlpKSgDdXhPiFz5szBuZKCg4PD22+/TWquW7du+xPr16+PiIgYMWJE69at8Y+kMGPGDPwBiistLT148OCoUaNsbW3RG+HMzMz69u27atWq69evo65K8Z2Q7OxsCwsLnDQRGjZsOGbMmMTExJdsslFcXHzkyJEPP/zQ3Nwch4lAiiiwXcHLkUuvhIQE8nYwcOBA8tZgamqKzv0dfX19KysrNze38ePHb9mypfYP7vKO74R89tlnOIG09PT0goODL126hIq1cOXKFZIT8b82TJ06FRUZcO/ePfIifP/992RaTz4ZFi9ePH/+fDJ1Wb58+aZNmw4cOHD27Nnbt2+zv7yV5DhOCHkLpNhr5lnkMmPfvn0oJ1BcXBx530UhKpaWljqZjWgE4TghGzduxFij0rVrV5HXOVlZWT169EA5KqtXr0YtDas4ToiYRQy6d+8uyft3YWHhG2+8gaLCkYDVwesWvvCaEHLR/PKZ5Us4Ojpeu3YNhUQjV+fUK58bGxunp6ejkIZJvCYkKioKo0wgIyOj5ORkVJHIiRMnqB+CjYyMRBUNk3hNyIgRIzDEBJLpUelZs2ahAYGGDBmCEhomcZmQBw8e0P2ObmVlJdNdQ7m5uXQ30pKjlFzzQSMUlwlJS0ujW0Zt5syZKCGDefPmoRkh9PX1U1NTUULDHi4TsmvXLowvIci0WNbn3a5cuUL35UFMTAxKaNjDZULonkT38PCoqqpCCXnQ7XQeHh6O4zXs4TIhdM9hT58+HcfL5vPPP0djQgQFBeF4DXu4TAjdF1nR0dE4XjY7d+5EY0L4+vrieA17uExI//79MbiEkPxnkOelpKRQLCVBrs1wvIY9XCaEYu8lQ0NDBfasSEtLo9jaz9PTU+4JkoYalwnp1asXBletGRkZKbCuWUZGBsWP6+7u7trdWcziMiEUXxmRi5+TJ0/ieNmcPn2aYq8mEngcr2EPlwkhU1sMLiFiY2NxvGwOHTqExoQYOHAgjtewh8uE0K3fvHjxYhwvG0F76j4VEBCA4zXs4TIh4eHhGFxCKLD/KhnraEyITz75BMdr2MNlQuieLrS0tJR1B72CggJra2s0JoT2pCHLuEzI8ePH6Vaw3rx5M0rIgO7nQiIpKQklNOzhMiE5OTlNmzbF+BLCzc2toqICVSRVVVVF9zhu48aNs7KyUEXDHi4TQoYj3T2CxLZt21BFUnv27EEDAnl4eGg/hrCMy4QQ1CtlOTg43L17F1UkQmYg1Du1K3A/pUYMXhOSnJxMNxUhJP92NTAwEKWFS0xMRBUNk3hNSElJCfUKI0RYWBgKibZw4UIUFc7e3v4l66BqWMBrQgjqxRNqSLL7pshdRUNDQ1FIwyqOE5KRkWFkZISxRmXMmDH5+fkoJxB5758wYQIKUTEwMFDgdmONSBwnhBg2bBiGGy1nZ+f4+HiUq7WjR4+6uLigBC3tdiwu8J2QY8eOYbiJM3To0MOHD5eVlaHuC5SXlyclJVEv1fVf4uLiUFfDML4TQgwePBgjTjQnJ6epU6fu2bMnLS0tJyfn3hPkP6Snp+/du3fatGmdO3fGPxXNx8dHe2qKC9wnhFzKGxsbY9xJxMTEpFmzZg5PWFlZUTw2+HKGhoYnTpzAH6BhG/cJIcgbP4YeJ8aNG4eua5inhoQUFBSI+W1EYfb29pL/qK+RjxoSQiQnJ9OtU6owfX19bYLOF5UkhFi8eDGGIcPmzJmD7mo4oZ6EEO+//z5GIpP8/PwqKyvRVw0nVJWQkpISHx8fjEfG9OrV6969e+iohh+qSgiRm5tLsZqW3FxdXWXat0QjN7UlhCAh6du3L8YmAzw9PbV48EuFCSHu378/cuRIjFCdGjp0aGFhIbql4ZA6E0JUVVXR7VUgoRkzZmhTc96pNiE19u7d6+DggAGrIBsbmx07dqATGp6pPCFEdnZ2UFCQvr4+Bq/83n333Rs3bqB5DefUn5AaCQkJPXr0wBCWjaur6/79+9GkRhXqSkIIMiUgVz4yfRfs5ua2devW8vJyNKZRizqUkBqPHz+Oj48fPXq0paUlRrcIFhYWAQEBBw4c0LKhVnUuIU/dvHkzOjqajO82bdoInaU4OjqOGDFi/fr1169fRzmNStXdhDz18OHDixcvfvfdd/PnzyeTbHd3dxsbGzMzM4MnGjRoQP4ruYjy9/ePiIjYtWtXenp6SUkJDtao23/+87+yC2TxWZu58AAAAABJRU5ErkJggg==;" vertex="1" parent="1">
                    <mxGeometry x="495.4" y="532" width="30" height="30" as="geometry"/>
                </mxCell>
                <mxCell id="55" style="edgeStyle=none;html=1;entryX=0.5;entryY=0;entryDx=0;entryDy=0;strokeColor=#000000;exitX=0.5;exitY=1;exitDx=0;exitDy=0;entryPerimeter=0;" edge="1" parent="1" source="33" target="53">
                    <mxGeometry relative="1" as="geometry">
                        <mxPoint x="309.9999999999998" y="419" as="sourcePoint"/>
                        <mxPoint x="409" y="419" as="targetPoint"/>
                    </mxGeometry>
                </mxCell>
                <mxCell id="56" value="Record KPIs" style="edgeLabel;html=1;align=center;verticalAlign=middle;resizable=0;points=[];fontColor=#000000;labelBackgroundColor=none;" vertex="1" connectable="0" parent="55">
                    <mxGeometry x="-0.15" y="3" relative="1" as="geometry">
                        <mxPoint x="31" y="6" as="offset"/>
                    </mxGeometry>
                </mxCell>
                <mxCell id="61" value="&lt;span style=&quot;font-weight: 400 ; font-size: 29px&quot;&gt;Red Hat Integration POC - System Context Diagram&lt;/span&gt;" style="text;strokeColor=none;fillColor=none;html=1;fontSize=29;fontStyle=1;verticalAlign=middle;align=left;rounded=1;labelBackgroundColor=none;fontColor=#000000;" vertex="1" parent="1">
                    <mxGeometry x="24" y="18" width="363" height="65" as="geometry"/>
                </mxCell>
                <mxCell id="75" value="" style="sketch=0;html=1;dashed=0;whitespace=wrap;fillColor=#2875E2;strokeColor=#ffffff;points=[[0.005,0.63,0],[0.1,0.2,0],[0.9,0.2,0],[0.5,0,0],[0.995,0.63,0],[0.72,0.99,0],[0.5,1,0],[0.28,0.99,0]];shape=mxgraph.kubernetes.icon;prIcon=role;rounded=1;shadow=0;glass=0;labelBackgroundColor=none;fontSize=24;fontColor=#000000;" vertex="1" parent="1">
                    <mxGeometry x="80.5" y="641" width="42" height="43" as="geometry"/>
                </mxCell>
                <mxCell id="76" value="&lt;span style=&quot;font-weight: 400&quot;&gt;&lt;font style=&quot;font-size: 14px&quot;&gt;Kubernetes network policies on OCP&lt;/font&gt;&lt;/span&gt;" style="text;strokeColor=none;fillColor=none;html=1;fontSize=24;fontStyle=1;verticalAlign=middle;align=left;rounded=1;labelBackgroundColor=none;fontColor=#000000;" vertex="1" parent="1">
                    <mxGeometry x="125" y="644" width="313" height="39" as="geometry"/>
                </mxCell>
                <mxCell id="77" value="Splunk" style="rounded=1;whiteSpace=wrap;html=1;fillColor=#E6E6E6;strokeColor=#666666;fontSize=25;gradientColor=none;fontColor=#000000;" vertex="1" parent="1">
                    <mxGeometry x="1190" y="94" width="300" height="80" as="geometry"/>
                </mxCell>
            </root>
        </mxGraphModel>
    </diagram>
</mxfile>